<?xml version="1.0"?>
<svg xmlns="http://www.w3.org/2000/svg" width="500" height="420" version="1.0" id="ezcGraph"><defs/><g id="ezcGraphChart" color-rendering="optimizeQuality" shape-rendering="geometricPrecision" text-rendering="optimizeLegibility"><path d=" M 0.0000,420.0000 L 0.0000,0.0000 L 500.0000,0.0000 L 500.0000,420.0000 L 0.0000,420.0000 z " style="fill: #eeeeec; fill-opacity: 1.00; stroke: none;" id="ezcGraphPolygon_1"/><path d=" M 0.0000,42.0000 L 0.0000,0.0000 L 500.0000,0.0000 L 500.0000,42.0000 L 0.0000,42.0000 z " style="fill: #000000; fill-opacity: 0.00; stroke: none;" id="ezcGraphPolygon_2"/><path d="M 257.27,241.17 L 369.77,241.17 A 112.50,112.50 0 0,1 220.95,347.64 z" style="fill: #3465a4; fill-opacity: 1.00; stroke: none; cursor: pointer;" id="ezcGraphCircleSector_4" onclick="top.location = 'https://linux-hardware.org/?view=computers&amp;type=desktop&amp;f=net_wireless_model&amp;v=Intel+Wi-Fi+6+AX200&amp;c=Singapore'"/><path d="M 257.63,241.67 L 369.27,241.67 A 112.00,112.00 0 0,1 221.58,347.33 z" style="fill: none; stroke: #1a3352; stroke-width: 1; stroke-opacity: 1.00; stroke-linecap: round; stroke-linejoin: round;" id="ezcGraphCircleSector_5"/><path d="M 250.00,231.00 L 213.68,337.47 A 112.50,112.50 0 0,1 171.92,311.99 z" style="fill: #4e9a06; fill-opacity: 1.00; stroke: none; cursor: pointer;" id="ezcGraphCircleSector_6" onclick="top.location = 'https://linux-hardware.org/?view=computers&amp;type=desktop&amp;f=net_wireless_model&amp;v=Broadcom+BCM4360+802.11ac+Wireless+Network+Adapter&amp;c=Singapore'"/><path d="M 248.80,232.96 L 213.36,336.84 A 112.00,112.00 0 0,1 172.62,311.98 z" style="fill: none; stroke: #274d03; stroke-width: 1; stroke-opacity: 1.00; stroke-linecap: round; stroke-linejoin: round;" id="ezcGraphCircleSector_7"/><path d="M 250.00,231.00 L 171.92,311.99 A 112.50,112.50 0 0,1 151.89,286.06 z" style="fill: #cc0000; fill-opacity: 1.00; stroke: none; cursor: pointer;" id="ezcGraphCircleSector_8" onclick="top.location = 'https://linux-hardware.org/?view=computers&amp;type=desktop&amp;f=net_wireless_model&amp;v=TP-Link+Archer+T9UH+v1+%5BRealtek+RTL8814AU%5D&amp;c=Singapore'"/><path d="M 247.28,233.10 L 171.90,311.28 A 112.00,112.00 0 0,1 152.58,286.25 z" style="fill: none; stroke: #660000; stroke-width: 1; stroke-opacity: 1.00; stroke-linecap: round; stroke-linejoin: round;" id="ezcGraphCircleSector_9"/><path d="M 250.00,231.00 L 151.89,286.06 A 112.50,112.50 0 0,1 140.19,255.46 z" style="fill: #edd400; fill-opacity: 1.00; stroke: none; cursor: pointer;" id="ezcGraphCircleSector_10" onclick="top.location = 'https://linux-hardware.org/?view=computers&amp;type=desktop&amp;f=net_wireless_model&amp;v=TP-Link+AC600+wireless+Realtek+RTL8811AU+%5BArcher+T2U+Nano%5D&amp;c=Singapore'"/><path d="M 246.79,232.23 L 152.09,285.38 A 112.00,112.00 0 0,1 140.79,255.84 z" style="fill: none; stroke: #776a00; stroke-width: 1; stroke-opacity: 1.00; stroke-linecap: round; stroke-linejoin: round;" id="ezcGraphCircleSector_11"/><path d="M 250.00,231.00 L 140.19,255.46 A 112.50,112.50 0 0,1 137.80,222.79 z" style="fill: #75505b; fill-opacity: 1.00; stroke: none; cursor: pointer;" id="ezcGraphCircleSector_12" onclick="top.location = 'https://linux-hardware.org/?view=computers&amp;type=desktop&amp;f=net_wireless_model&amp;v=Realtek+Semiconductor+RTL8811AU+802.11a%2Fb%2Fg%2Fn%2Fac+WLAN+Adapter&amp;c=Singapore'"/><path d="M 246.58,231.25 L 140.57,254.86 A 112.00,112.00 0 0,1 138.26,223.32 z" style="fill: none; stroke: #3b282e; stroke-width: 1; stroke-opacity: 1.00; stroke-linecap: round; stroke-linejoin: round;" id="ezcGraphCircleSector_13"/><path d="M 250.00,231.00 L 137.80,222.79 A 112.50,112.50 0 0,1 362.50,231.00 z" style="fill: #f57900; fill-opacity: 1.00; stroke: none;" id="ezcGraphCircleSector_14"/><path d="M 250.02,230.50 L 138.34,222.33 A 112.00,112.00 0 0,1 362.00,230.50 z" style="fill: none; stroke: #7b3d00; stroke-width: 1; stroke-opacity: 1.00; stroke-linecap: round; stroke-linejoin: round;" id="ezcGraphCircleSector_15"/><path d=" M 166.8890,237.0829 L 119.3244,240.0000" style="fill: none; stroke: #000000; stroke-width: 1; stroke-opacity: 1.00; stroke-linecap: round; stroke-linejoin: round;" id="ezcGraphLine_16"/><ellipse cx="166.8890" cy="237.0829" rx="3.0000" ry="3.0000" style="fill: #000000; fill-opacity: 1.00; stroke: none;" id="ezcGraphCircle_17"/><ellipse cx="119.3244" cy="240.0000" rx="3.0000" ry="3.0000" style="fill: #000000; fill-opacity: 1.00; stroke: none;" id="ezcGraphCircle_18"/><path d=" M 172.1653,260.7692 L 127.9709,277.5000" style="fill: none; stroke: #000000; stroke-width: 1; stroke-opacity: 1.00; stroke-linecap: round; stroke-linejoin: round;" id="ezcGraphLine_20"/><ellipse cx="172.1653" cy="260.7692" rx="3.0000" ry="3.0000" style="fill: #000000; fill-opacity: 1.00; stroke: none;" id="ezcGraphCircle_21"/><ellipse cx="127.9709" cy="277.5000" rx="3.0000" ry="3.0000" style="fill: #000000; fill-opacity: 1.00; stroke: none;" id="ezcGraphCircle_22"/><path d=" M 184.0420,281.9311 L 151.4311,315.0000" style="fill: none; stroke: #000000; stroke-width: 1; stroke-opacity: 1.00; stroke-linecap: round; stroke-linejoin: round;" id="ezcGraphLine_24"/><ellipse cx="184.0420" cy="281.9311" rx="3.0000" ry="3.0000" style="fill: #000000; fill-opacity: 1.00; stroke: none;" id="ezcGraphCircle_25"/><ellipse cx="151.4311" cy="315.0000" rx="3.0000" ry="3.0000" style="fill: #000000; fill-opacity: 1.00; stroke: none;" id="ezcGraphCircle_26"/><path d=" M 206.5883,302.1328 L 214.6274,352.5000" style="fill: none; stroke: #000000; stroke-width: 1; stroke-opacity: 1.00; stroke-linecap: round; stroke-linejoin: round;" id="ezcGraphLine_28"/><ellipse cx="206.5883" cy="302.1328" rx="3.0000" ry="3.0000" style="fill: #000000; fill-opacity: 1.00; stroke: none;" id="ezcGraphCircle_29"/><ellipse cx="214.6274" cy="352.5000" rx="3.0000" ry="3.0000" style="fill: #000000; fill-opacity: 1.00; stroke: none;" id="ezcGraphCircle_30"/><path d=" M 253.0435,147.7223 L 256.0000,106.0000" style="fill: none; stroke: #000000; stroke-width: 1; stroke-opacity: 1.00; stroke-linecap: round; stroke-linejoin: round;" id="ezcGraphLine_32"/><ellipse cx="253.0435" cy="147.7223" rx="3.0000" ry="3.0000" style="fill: #000000; fill-opacity: 1.00; stroke: none;" id="ezcGraphCircle_33"/><ellipse cx="256.0000" cy="106.0000" rx="3.0000" ry="3.0000" style="fill: #000000; fill-opacity: 1.00; stroke: none;" id="ezcGraphCircle_34"/><path d=" M 305.7615,308.9403 L 313.4804,342.0000" style="fill: none; stroke: #000000; stroke-width: 1; stroke-opacity: 1.00; stroke-linecap: round; stroke-linejoin: round;" id="ezcGraphLine_36"/><ellipse cx="305.7615" cy="308.9403" rx="3.0000" ry="3.0000" style="fill: #000000; fill-opacity: 1.00; stroke: none;" id="ezcGraphCircle_37"/><ellipse cx="313.4804" cy="342.0000" rx="3.0000" ry="3.0000" style="fill: #000000; fill-opacity: 1.00; stroke: none;" id="ezcGraphCircle_38"/><g id="ezcGraphTextBox_3"><path d=" M 101.1000,42.0000 L 101.1000,0.5000 L 399.4000,0.5000 L 399.4000,42.0000 L 101.1000,42.0000 z " style="fill: #ffffff; fill-opacity: 0.00; stroke: none;" id="ezcGraphPolygon_40"/><text id="ezcGraphTextBox_3_text" x="101.6000" text-length="296.8000px" y="35.0000" style="font-size: 40px; font-family: 'Arial'; fill: #2e3436; fill-opacity: 1.00; stroke: none;">Wireless Model</text></g><g id="ezcGraphTextBox_19" style=" cursor: pointer;" onclick="top.location = 'https://linux-hardware.org/?view=computers&amp;type=desktop&amp;f=net_wireless_model&amp;v=Realtek+Semiconductor+RTL8811AU+802.11a%2Fb%2Fg%2Fn%2Fac+WLAN+Adapter&amp;c=Singapore'"><path d=" M 19.8094,254.5500 L 19.8094,225.9500 L 114.3244,225.9500 L 114.3244,254.5500 L 19.8094,254.5500 z " style="fill: #ffffff; fill-opacity: 0.00; stroke: none;" id="ezcGraphPolygon_41"/><text id="ezcGraphTextBox_19_text" x="48.9294" text-length="64.3950px" y="237.9250" style="font-size: 13px; font-family: 'Arial'; fill: #2e3436; fill-opacity: 1.00; stroke: none;">RTL8811AU</text><text id="ezcGraphTextBox_19_text" x="20.3094" text-length="93.0150px" y="252.7750" style="font-size: 13px; font-family: 'Arial'; fill: #2e3436; fill-opacity: 1.00; stroke: none;">802... (4.7%)</text></g><g id="ezcGraphTextBox_23" style=" cursor: pointer;" onclick="top.location = 'https://linux-hardware.org/?view=computers&amp;type=desktop&amp;f=net_wireless_model&amp;v=TP-Link+AC600+wireless+Realtek+RTL8811AU+%5BArcher+T2U+Nano%5D&amp;c=Singapore'"><path d=" M 6.9909,292.0500 L 6.9909,263.4500 L 122.9709,263.4500 L 122.9709,292.0500 L 6.9909,292.0500 z " style="fill: #ffffff; fill-opacity: 0.00; stroke: none;" id="ezcGraphPolygon_42"/><text id="ezcGraphTextBox_23_text" x="7.4909" text-length="114.4800px" y="275.4250" style="font-size: 13px; font-family: 'Arial'; fill: #2e3436; fill-opacity: 1.00; stroke: none;">AC600 wireles...</text><text id="ezcGraphTextBox_23_text" x="79.0409" text-length="42.9300px" y="290.2750" style="font-size: 13px; font-family: 'Arial'; fill: #2e3436; fill-opacity: 1.00; stroke: none;">(4.7%)</text></g><g id="ezcGraphTextBox_27" style=" cursor: pointer;" onclick="top.location = 'https://linux-hardware.org/?view=computers&amp;type=desktop&amp;f=net_wireless_model&amp;v=TP-Link+Archer+T9UH+v1+%5BRealtek+RTL8814AU%5D&amp;c=Singapore'"><path d=" M 66.2261,329.5500 L 66.2261,300.9500 L 146.4311,300.9500 L 146.4311,329.5500 L 66.2261,329.5500 z " style="fill: #ffffff; fill-opacity: 0.00; stroke: none;" id="ezcGraphPolygon_43"/><text id="ezcGraphTextBox_27_text" x="66.7261" text-length="78.7050px" y="312.9250" style="font-size: 13px; font-family: 'Arial'; fill: #2e3436; fill-opacity: 1.00; stroke: none;">Archer T9UH</text><text id="ezcGraphTextBox_27_text" x="66.7261" text-length="78.7050px" y="327.7750" style="font-size: 13px; font-family: 'Arial'; fill: #2e3436; fill-opacity: 1.00; stroke: none;">v... (4.7%)</text></g><g id="ezcGraphTextBox_31" style=" cursor: pointer;" onclick="top.location = 'https://linux-hardware.org/?view=computers&amp;type=desktop&amp;f=net_wireless_model&amp;v=Broadcom+BCM4360+802.11ac+Wireless+Network+Adapter&amp;c=Singapore'"><path d=" M 93.6474,367.0500 L 93.6474,338.4500 L 209.6274,338.4500 L 209.6274,367.0500 L 93.6474,367.0500 z " style="fill: #ffffff; fill-opacity: 0.00; stroke: none;" id="ezcGraphPolygon_44"/><text id="ezcGraphTextBox_31_text" x="94.1474" text-length="114.4800px" y="350.4250" style="font-size: 13px; font-family: 'Arial'; fill: #2e3436; fill-opacity: 1.00; stroke: none;">BCM4360 802.1...</text><text id="ezcGraphTextBox_31_text" x="165.6974" text-length="42.9300px" y="365.2750" style="font-size: 13px; font-family: 'Arial'; fill: #2e3436; fill-opacity: 1.00; stroke: none;">(7.0%)</text></g><g id="ezcGraphTextBox_35"><path d=" M 261.5000,113.7500 L 261.5000,98.7500 L 363.1700,98.7500 L 363.1700,113.7500 L 261.5000,113.7500 z " style="fill: #ffffff; fill-opacity: 0.00; stroke: none;" id="ezcGraphPolygon_45"/><text id="ezcGraphTextBox_35_text" x="262.0000" text-length="100.1700px" y="110.7250" style="font-size: 13px; font-family: 'Arial'; fill: #2e3436; fill-opacity: 1.00; stroke: none;">Others (48.8%)</text></g><g id="ezcGraphTextBox_39" style=" cursor: pointer;" onclick="top.location = 'https://linux-hardware.org/?view=computers&amp;type=desktop&amp;f=net_wireless_model&amp;v=Intel+Wi-Fi+6+AX200&amp;c=Singapore'"><path d=" M 318.9804,356.5500 L 318.9804,327.9500 L 413.4954,327.9500 L 413.4954,356.5500 L 318.9804,356.5500 z " style="fill: #ffffff; fill-opacity: 0.00; stroke: none;" id="ezcGraphPolygon_46"/><text id="ezcGraphTextBox_39_text" x="319.4804" text-length="93.0150px" y="339.9250" style="font-size: 13px; font-family: 'Arial'; fill: #2e3436; fill-opacity: 1.00; stroke: none;">Wi-Fi 6 AX200</text><text id="ezcGraphTextBox_39_text" x="319.4804" text-length="50.0850px" y="354.7750" style="font-size: 13px; font-family: 'Arial'; fill: #2e3436; fill-opacity: 1.00; stroke: none;">(30.2%)</text></g></g></svg>
