<?xml version="1.0"?>
<svg xmlns="http://www.w3.org/2000/svg" width="500" height="420" version="1.0" id="ezcGraph"><defs/><g id="ezcGraphChart" color-rendering="optimizeQuality" shape-rendering="geometricPrecision" text-rendering="optimizeLegibility"><path d=" M 0.0000,420.0000 L 0.0000,0.0000 L 500.0000,0.0000 L 500.0000,420.0000 L 0.0000,420.0000 z " style="fill: #eeeeec; fill-opacity: 1.00; stroke: none;" id="ezcGraphPolygon_1"/><path d=" M 0.0000,42.0000 L 0.0000,0.0000 L 500.0000,0.0000 L 500.0000,42.0000 L 0.0000,42.0000 z " style="fill: #000000; fill-opacity: 0.00; stroke: none;" id="ezcGraphPolygon_2"/><path d="M 256.70,241.55 L 369.20,241.55 A 112.50,112.50 0 0,1 208.80,343.35 z" style="fill: #3465a4; fill-opacity: 1.00; stroke: none; cursor: pointer;" id="ezcGraphCircleSector_4" onclick="top.location = 'https://linux-hardware.org/?view=computers&amp;type=desktop&amp;f=net_model&amp;v=Realtek+Semiconductor+RTL8111%2F8168%2F8211%2F8411+PCI+Express+Gigabit+Ethernet+Controller&amp;c=Uruguay'"/><path d="M 257.02,242.05 L 368.70,242.05 A 112.00,112.00 0 0,1 209.46,343.11 z" style="fill: none; stroke: #1a3352; stroke-width: 1; stroke-opacity: 1.00; stroke-linecap: round; stroke-linejoin: round;" id="ezcGraphCircleSector_5"/><path d="M 250.00,231.00 L 202.10,332.79 A 112.50,112.50 0 0,1 169.39,309.47 z" style="fill: #4e9a06; fill-opacity: 1.00; stroke: none; cursor: pointer;" id="ezcGraphCircleSector_6" onclick="top.location = 'https://linux-hardware.org/?view=computers&amp;type=desktop&amp;f=net_model&amp;v=Intel+82579LM+Gigabit+Network+Connection+%28Lewisville%29&amp;c=Uruguay'"/><path d="M 248.37,233.28 L 201.86,332.13 A 112.00,112.00 0 0,1 170.09,309.48 z" style="fill: none; stroke: #274d03; stroke-width: 1; stroke-opacity: 1.00; stroke-linecap: round; stroke-linejoin: round;" id="ezcGraphCircleSector_7"/><path d="M 250.00,231.00 L 169.39,309.47 A 112.50,112.50 0 0,1 152.40,286.96 z" style="fill: #cc0000; fill-opacity: 1.00; stroke: none; cursor: pointer;" id="ezcGraphCircleSector_8" onclick="top.location = 'https://linux-hardware.org/?view=computers&amp;type=desktop&amp;f=net_model&amp;v=Realtek+Semiconductor+RTL8188EUS+802.11n+Wireless+Network+Adapter&amp;c=Uruguay'"/><path d="M 246.82,233.40 L 169.40,308.76 A 112.00,112.00 0 0,1 153.09,287.14 z" style="fill: none; stroke: #660000; stroke-width: 1; stroke-opacity: 1.00; stroke-linecap: round; stroke-linejoin: round;" id="ezcGraphCircleSector_9"/><path d="M 250.00,231.00 L 152.40,286.96 A 112.50,112.50 0 0,1 142.70,264.80 z" style="fill: #edd400; fill-opacity: 1.00; stroke: none; cursor: pointer;" id="ezcGraphCircleSector_10" onclick="top.location = 'https://linux-hardware.org/?view=computers&amp;type=desktop&amp;f=net_model&amp;v=Nvidia+MCP61+Ethernet&amp;c=Uruguay'"/><path d="M 245.74,232.87 L 152.59,286.28 A 112.00,112.00 0 0,1 143.33,265.13 z" style="fill: none; stroke: #776a00; stroke-width: 1; stroke-opacity: 1.00; stroke-linecap: round; stroke-linejoin: round;" id="ezcGraphCircleSector_11"/><path d="M 250.00,231.00 L 142.70,264.80 A 112.50,112.50 0 0,1 138.97,249.10 z" style="fill: #75505b; fill-opacity: 1.00; stroke: none; cursor: pointer;" id="ezcGraphCircleSector_12" onclick="top.location = 'https://linux-hardware.org/?view=computers&amp;type=desktop&amp;f=net_model&amp;v=Realtek+Semiconductor+RTL8192EU+802.11b%2Fg%2Fn+WLAN+Adapter&amp;c=Uruguay'"/><path d="M 243.22,232.61 L 143.03,264.18 A 112.00,112.00 0 0,1 139.54,249.51 z" style="fill: none; stroke: #3b282e; stroke-width: 1; stroke-opacity: 1.00; stroke-linecap: round; stroke-linejoin: round;" id="ezcGraphCircleSector_13"/><path d="M 250.00,231.00 L 138.97,249.10 A 112.50,112.50 0 1,1 362.50,231.00 z" style="fill: #f57900; fill-opacity: 1.00; stroke: none;" id="ezcGraphCircleSector_14"/><path d="M 249.96,230.50 L 139.38,248.52 A 112.00,112.00 0 1,1 362.00,230.50 z" style="fill: none; stroke: #7b3d00; stroke-width: 1; stroke-opacity: 1.00; stroke-linecap: round; stroke-linejoin: round;" id="ezcGraphCircleSector_15"/><path d=" M 243.2753,147.9384 L 244.0000,106.0000" style="fill: none; stroke: #000000; stroke-width: 1; stroke-opacity: 1.00; stroke-linecap: round; stroke-linejoin: round;" id="ezcGraphLine_16"/><ellipse cx="243.2753" cy="147.9384" rx="3.0000" ry="3.0000" style="fill: #000000; fill-opacity: 1.00; stroke: none;" id="ezcGraphCircle_17"/><ellipse cx="244.0000" cy="106.0000" rx="3.0000" ry="3.0000" style="fill: #000000; fill-opacity: 1.00; stroke: none;" id="ezcGraphCircle_18"/><path d=" M 168.9257,250.2719 L 122.1764,259.0000" style="fill: none; stroke: #000000; stroke-width: 1; stroke-opacity: 1.00; stroke-linecap: round; stroke-linejoin: round;" id="ezcGraphLine_20"/><ellipse cx="168.9257" cy="250.2719" rx="3.0000" ry="3.0000" style="fill: #000000; fill-opacity: 1.00; stroke: none;" id="ezcGraphCircle_21"/><ellipse cx="122.1764" cy="259.0000" rx="3.0000" ry="3.0000" style="fill: #000000; fill-opacity: 1.00; stroke: none;" id="ezcGraphCircle_22"/><path d=" M 173.6698,264.4386 L 136.0370,294.0000" style="fill: none; stroke: #000000; stroke-width: 1; stroke-opacity: 1.00; stroke-linecap: round; stroke-linejoin: round;" id="ezcGraphLine_24"/><ellipse cx="173.6698" cy="264.4386" rx="3.0000" ry="3.0000" style="fill: #000000; fill-opacity: 1.00; stroke: none;" id="ezcGraphCircle_25"/><ellipse cx="136.0370" cy="294.0000" rx="3.0000" ry="3.0000" style="fill: #000000; fill-opacity: 1.00; stroke: none;" id="ezcGraphCircle_26"/><path d=" M 183.4721,281.1844 L 166.4049,329.0000" style="fill: none; stroke: #000000; stroke-width: 1; stroke-opacity: 1.00; stroke-linecap: round; stroke-linejoin: round;" id="ezcGraphLine_28"/><ellipse cx="183.4721" cy="281.1844" rx="3.0000" ry="3.0000" style="fill: #000000; fill-opacity: 1.00; stroke: none;" id="ezcGraphCircle_29"/><ellipse cx="166.4049" cy="329.0000" rx="3.0000" ry="3.0000" style="fill: #000000; fill-opacity: 1.00; stroke: none;" id="ezcGraphCircle_30"/><path d=" M 201.6250,298.8550 L 201.6250,364.0000" style="fill: none; stroke: #000000; stroke-width: 1; stroke-opacity: 1.00; stroke-linecap: round; stroke-linejoin: round;" id="ezcGraphLine_32"/><ellipse cx="201.6250" cy="298.8550" rx="3.0000" ry="3.0000" style="fill: #000000; fill-opacity: 1.00; stroke: none;" id="ezcGraphCircle_33"/><ellipse cx="201.6250" cy="364.0000" rx="3.0000" ry="3.0000" style="fill: #000000; fill-opacity: 1.00; stroke: none;" id="ezcGraphCircle_34"/><path d=" M 301.3501,311.9148 L 302.5725,347.0000" style="fill: none; stroke: #000000; stroke-width: 1; stroke-opacity: 1.00; stroke-linecap: round; stroke-linejoin: round;" id="ezcGraphLine_36"/><ellipse cx="301.3501" cy="311.9148" rx="3.0000" ry="3.0000" style="fill: #000000; fill-opacity: 1.00; stroke: none;" id="ezcGraphCircle_37"/><ellipse cx="302.5725" cy="347.0000" rx="3.0000" ry="3.0000" style="fill: #000000; fill-opacity: 1.00; stroke: none;" id="ezcGraphCircle_38"/><g id="ezcGraphTextBox_3"><path d=" M 37.5000,42.0000 L 37.5000,0.5000 L 463.0000,0.5000 L 463.0000,42.0000 L 37.5000,42.0000 z " style="fill: #ffffff; fill-opacity: 0.00; stroke: none;" id="ezcGraphPolygon_40"/><text id="ezcGraphTextBox_3_text" x="38.0000" text-length="424.0000px" y="35.0000" style="font-size: 40px; font-family: 'Arial'; fill: #2e3436; fill-opacity: 1.00; stroke: none;">Net Controller Model</text></g><g id="ezcGraphTextBox_19"><path d=" M 118.7800,115.0000 L 118.7800,97.5000 L 239.0000,97.5000 L 239.0000,115.0000 L 118.7800,115.0000 z " style="fill: #ffffff; fill-opacity: 0.00; stroke: none;" id="ezcGraphPolygon_41"/><text id="ezcGraphTextBox_19_text" x="119.2800" text-length="118.7200px" y="111.6000" style="font-size: 16px; font-family: 'Arial'; fill: #2e3436; fill-opacity: 1.00; stroke: none;">Others (52.6%)</text></g><g id="ezcGraphTextBox_23" style=" cursor: pointer;" onclick="top.location = 'https://linux-hardware.org/?view=computers&amp;type=desktop&amp;f=net_model&amp;v=Realtek+Semiconductor+RTL8192EU+802.11b%2Fg%2Fn+WLAN+Adapter&amp;c=Uruguay'"><path d=" M 22.3964,276.0500 L 22.3964,242.4500 L 117.1764,242.4500 L 117.1764,276.0500 L 22.3964,276.0500 z " style="fill: #ffffff; fill-opacity: 0.00; stroke: none;" id="ezcGraphPolygon_42"/><text id="ezcGraphTextBox_23_text" x="39.8564" text-length="76.3200px" y="256.5500" style="font-size: 16px; font-family: 'Arial'; fill: #2e3436; fill-opacity: 1.00; stroke: none;">RTL8192EU</text><text id="ezcGraphTextBox_23_text" x="22.8964" text-length="93.2800px" y="274.1500" style="font-size: 16px; font-family: 'Arial'; fill: #2e3436; fill-opacity: 1.00; stroke: none;">8... (2.3%)</text></g><g id="ezcGraphTextBox_27" style=" cursor: pointer;" onclick="top.location = 'https://linux-hardware.org/?view=computers&amp;type=desktop&amp;f=net_model&amp;v=Nvidia+MCP61+Ethernet&amp;c=Uruguay'"><path d=" M 10.8170,311.0500 L 10.8170,277.4500 L 131.0370,277.4500 L 131.0370,311.0500 L 10.8170,311.0500 z " style="fill: #ffffff; fill-opacity: 0.00; stroke: none;" id="ezcGraphPolygon_43"/><text id="ezcGraphTextBox_27_text" x="11.3170" text-length="118.7200px" y="291.5500" style="font-size: 16px; font-family: 'Arial'; fill: #2e3436; fill-opacity: 1.00; stroke: none;">MCP61 Ethernet</text><text id="ezcGraphTextBox_27_text" x="79.1570" text-length="50.8800px" y="309.1500" style="font-size: 16px; font-family: 'Arial'; fill: #2e3436; fill-opacity: 1.00; stroke: none;">(3.4%)</text></g><g id="ezcGraphTextBox_31" style=" cursor: pointer;" onclick="top.location = 'https://linux-hardware.org/?view=computers&amp;type=desktop&amp;f=net_model&amp;v=Realtek+Semiconductor+RTL8188EUS+802.11n+Wireless+Network+Adapter&amp;c=Uruguay'"><path d=" M 41.1849,346.0500 L 41.1849,312.4500 L 161.4049,312.4500 L 161.4049,346.0500 L 41.1849,346.0500 z " style="fill: #ffffff; fill-opacity: 0.00; stroke: none;" id="ezcGraphPolygon_44"/><text id="ezcGraphTextBox_31_text" x="41.6849" text-length="118.7200px" y="326.5500" style="font-size: 16px; font-family: 'Arial'; fill: #2e3436; fill-opacity: 1.00; stroke: none;">RTL8188EUS ...</text><text id="ezcGraphTextBox_31_text" x="109.5249" text-length="50.8800px" y="344.1500" style="font-size: 16px; font-family: 'Arial'; fill: #2e3436; fill-opacity: 1.00; stroke: none;">(4.0%)</text></g><g id="ezcGraphTextBox_35" style=" cursor: pointer;" onclick="top.location = 'https://linux-hardware.org/?view=computers&amp;type=desktop&amp;f=net_model&amp;v=Intel+82579LM+Gigabit+Network+Connection+%28Lewisville%29&amp;c=Uruguay'"><path d=" M 17.0450,373.0000 L 17.0450,355.5000 L 196.6250,355.5000 L 196.6250,373.0000 L 17.0450,373.0000 z " style="fill: #ffffff; fill-opacity: 0.00; stroke: none;" id="ezcGraphPolygon_45"/><text id="ezcGraphTextBox_35_text" x="17.5450" text-length="178.0800px" y="369.6000" style="font-size: 16px; font-family: 'Arial'; fill: #2e3436; fill-opacity: 1.00; stroke: none;">82579LM Gig... (5.7%)</text></g><g id="ezcGraphTextBox_39" style=" cursor: pointer;" onclick="top.location = 'https://linux-hardware.org/?view=computers&amp;type=desktop&amp;f=net_model&amp;v=Realtek+Semiconductor+RTL8111%2F8168%2F8211%2F8411+PCI+Express+Gigabit+Ethernet+Controller&amp;c=Uruguay'"><path d=" M 308.0725,356.0000 L 308.0725,338.5000 L 496.1325,338.5000 L 496.1325,356.0000 L 308.0725,356.0000 z " style="fill: #ffffff; fill-opacity: 0.00; stroke: none;" id="ezcGraphPolygon_46"/><text id="ezcGraphTextBox_39_text" x="308.5725" text-length="186.5600px" y="352.6000" style="font-size: 16px; font-family: 'Arial'; fill: #2e3436; fill-opacity: 1.00; stroke: none;">RTL8111/816... (32.0%)</text></g></g></svg>
