<?xml version="1.0"?>
<svg xmlns="http://www.w3.org/2000/svg" width="500" height="420" version="1.0" id="ezcGraph"><defs/><g id="ezcGraphChart" color-rendering="optimizeQuality" shape-rendering="geometricPrecision" text-rendering="optimizeLegibility"><path d=" M 0.0000,420.0000 L 0.0000,0.0000 L 500.0000,0.0000 L 500.0000,420.0000 L 0.0000,420.0000 z " style="fill: #eeeeec; fill-opacity: 1.00; stroke: none;" id="ezcGraphPolygon_1"/><path d=" M 0.0000,42.0000 L 0.0000,0.0000 L 500.0000,0.0000 L 500.0000,42.0000 L 0.0000,42.0000 z " style="fill: #000000; fill-opacity: 0.00; stroke: none;" id="ezcGraphPolygon_2"/><path d="M 260.04,238.45 L 372.54,238.45 A 112.50,112.50 0 0,1 292.70,346.10 z" style="fill: #3465a4; fill-opacity: 1.00; stroke: none; cursor: pointer;" id="ezcGraphCircleSector_4" onclick="top.location = 'https://linux-hardware.org/?view=computers&amp;type=desktop&amp;f=memory_vendor&amp;v=Unknown&amp;r=xubuntu-20.04'"/><path d="M 260.71,238.95 L 372.04,238.95 A 112.00,112.00 0 0,1 293.03,345.48 z" style="fill: none; stroke: #1a3352; stroke-width: 1; stroke-opacity: 1.00; stroke-linecap: round; stroke-linejoin: round;" id="ezcGraphCircleSector_5"/><path d="M 250.00,231.00 L 282.66,338.66 A 112.50,112.50 0 0,1 185.67,323.30 z" style="fill: #4e9a06; fill-opacity: 1.00; stroke: none; cursor: pointer;" id="ezcGraphCircleSector_6" onclick="top.location = 'https://linux-hardware.org/?view=computers&amp;type=desktop&amp;f=memory_vendor&amp;v=Kingston&amp;r=xubuntu-20.04'"/><path d="M 249.82,232.13 L 282.03,338.32 A 112.00,112.00 0 0,1 186.37,323.17 z" style="fill: none; stroke: #274d03; stroke-width: 1; stroke-opacity: 1.00; stroke-linecap: round; stroke-linejoin: round;" id="ezcGraphCircleSector_7"/><path d="M 250.00,231.00 L 185.67,323.30 A 112.50,112.50 0 0,1 139.25,250.78 z" style="fill: #cc0000; fill-opacity: 1.00; stroke: none; cursor: pointer;" id="ezcGraphCircleSector_8" onclick="top.location = 'https://linux-hardware.org/?view=computers&amp;type=desktop&amp;f=memory_vendor&amp;v=Samsung+Electronics&amp;r=xubuntu-20.04'"/><path d="M 248.90,231.70 L 185.55,322.60 A 112.00,112.00 0 0,1 139.83,251.18 z" style="fill: none; stroke: #660000; stroke-width: 1; stroke-opacity: 1.00; stroke-linecap: round; stroke-linejoin: round;" id="ezcGraphCircleSector_9"/><path d="M 250.00,231.00 L 139.25,250.78 A 112.50,112.50 0 0,1 150.78,177.97 z" style="fill: #edd400; fill-opacity: 1.00; stroke: none; cursor: pointer;" id="ezcGraphCircleSector_10" onclick="top.location = 'https://linux-hardware.org/?view=computers&amp;type=desktop&amp;f=memory_vendor&amp;v=Crucial&amp;r=xubuntu-20.04'"/><path d="M 248.49,230.76 L 139.66,250.20 A 112.00,112.00 0 0,1 150.99,178.64 z" style="fill: none; stroke: #776a00; stroke-width: 1; stroke-opacity: 1.00; stroke-linecap: round; stroke-linejoin: round;" id="ezcGraphCircleSector_11"/><path d="M 250.00,231.00 L 150.78,177.97 A 112.50,112.50 0 0,1 198.93,130.76 z" style="fill: #75505b; fill-opacity: 1.00; stroke: none; cursor: pointer;" id="ezcGraphCircleSector_12" onclick="top.location = 'https://linux-hardware.org/?view=computers&amp;type=desktop&amp;f=memory_vendor&amp;v=SK+Hynix&amp;r=xubuntu-20.04'"/><path d="M 248.83,229.81 L 151.46,177.76 A 112.00,112.00 0 0,1 198.71,131.43 z" style="fill: none; stroke: #3b282e; stroke-width: 1; stroke-opacity: 1.00; stroke-linecap: round; stroke-linejoin: round;" id="ezcGraphCircleSector_13"/><path d="M 250.00,231.00 L 198.93,130.76 A 112.50,112.50 0 0,1 362.50,231.00 z" style="fill: #f57900; fill-opacity: 1.00; stroke: none;" id="ezcGraphCircleSector_14"/><path d="M 250.31,230.50 L 199.60,130.98 A 112.00,112.00 0 0,1 362.00,230.50 z" style="fill: none; stroke: #7b3d00; stroke-width: 1; stroke-opacity: 1.00; stroke-linecap: round; stroke-linejoin: round;" id="ezcGraphCircleSector_15"/><path d=" M 191.6558,171.4988 L 157.2532,141.0000" style="fill: none; stroke: #000000; stroke-width: 1; stroke-opacity: 1.00; stroke-linecap: round; stroke-linejoin: round;" id="ezcGraphLine_16"/><ellipse cx="191.6558" cy="171.4988" rx="3.0000" ry="3.0000" style="fill: #000000; fill-opacity: 1.00; stroke: none;" id="ezcGraphCircle_17"/><ellipse cx="157.2532" cy="141.0000" rx="3.0000" ry="3.0000" style="fill: #000000; fill-opacity: 1.00; stroke: none;" id="ezcGraphCircle_18"/><path d=" M 167.6926,217.9638 L 120.6104,211.0000" style="fill: none; stroke: #000000; stroke-width: 1; stroke-opacity: 1.00; stroke-linecap: round; stroke-linejoin: round;" id="ezcGraphLine_20"/><ellipse cx="167.6926" cy="217.9638" rx="3.0000" ry="3.0000" style="fill: #000000; fill-opacity: 1.00; stroke: none;" id="ezcGraphCircle_21"/><ellipse cx="120.6104" cy="211.0000" rx="3.0000" ry="3.0000" style="fill: #000000; fill-opacity: 1.00; stroke: none;" id="ezcGraphCircle_22"/><path d=" M 179.8152,275.9282 L 138.4728,298.0000" style="fill: none; stroke: #000000; stroke-width: 1; stroke-opacity: 1.00; stroke-linecap: round; stroke-linejoin: round;" id="ezcGraphLine_24"/><ellipse cx="179.8152" cy="275.9282" rx="3.0000" ry="3.0000" style="fill: #000000; fill-opacity: 1.00; stroke: none;" id="ezcGraphCircle_25"/><ellipse cx="138.4728" cy="298.0000" rx="3.0000" ry="3.0000" style="fill: #000000; fill-opacity: 1.00; stroke: none;" id="ezcGraphCircle_26"/><path d=" M 236.9638,313.3074 L 221.7289,354.0000" style="fill: none; stroke: #000000; stroke-width: 1; stroke-opacity: 1.00; stroke-linecap: round; stroke-linejoin: round;" id="ezcGraphLine_28"/><ellipse cx="236.9638" cy="313.3074" rx="3.0000" ry="3.0000" style="fill: #000000; fill-opacity: 1.00; stroke: none;" id="ezcGraphCircle_29"/><ellipse cx="221.7289" cy="354.0000" rx="3.0000" ry="3.0000" style="fill: #000000; fill-opacity: 1.00; stroke: none;" id="ezcGraphCircle_30"/><path d=" M 293.5415,159.9467 L 320.6220,124.0000" style="fill: none; stroke: #000000; stroke-width: 1; stroke-opacity: 1.00; stroke-linecap: round; stroke-linejoin: round;" id="ezcGraphLine_32"/><ellipse cx="293.5415" cy="159.9467" rx="3.0000" ry="3.0000" style="fill: #000000; fill-opacity: 1.00; stroke: none;" id="ezcGraphCircle_33"/><ellipse cx="320.6220" cy="124.0000" rx="3.0000" ry="3.0000" style="fill: #000000; fill-opacity: 1.00; stroke: none;" id="ezcGraphCircle_34"/><path d=" M 326.9741,288.0879 L 351.2050,312.0000" style="fill: none; stroke: #000000; stroke-width: 1; stroke-opacity: 1.00; stroke-linecap: round; stroke-linejoin: round;" id="ezcGraphLine_36"/><ellipse cx="326.9741" cy="288.0879" rx="3.0000" ry="3.0000" style="fill: #000000; fill-opacity: 1.00; stroke: none;" id="ezcGraphCircle_37"/><ellipse cx="351.2050" cy="312.0000" rx="3.0000" ry="3.0000" style="fill: #000000; fill-opacity: 1.00; stroke: none;" id="ezcGraphCircle_38"/><g id="ezcGraphTextBox_3"><path d=" M 111.7000,42.0000 L 111.7000,0.5000 L 388.8000,0.5000 L 388.8000,42.0000 L 111.7000,42.0000 z " style="fill: #ffffff; fill-opacity: 0.00; stroke: none;" id="ezcGraphPolygon_40"/><text id="ezcGraphTextBox_3_text" x="112.2000" text-length="275.6000px" y="35.0000" style="font-size: 40px; font-family: 'Arial'; fill: #2e3436; fill-opacity: 1.00; stroke: none;">Memory Vendor</text></g><g id="ezcGraphTextBox_19" style=" cursor: pointer;" onclick="top.location = 'https://linux-hardware.org/?view=computers&amp;type=desktop&amp;f=memory_vendor&amp;v=SK+Hynix&amp;r=xubuntu-20.04'"><path d=" M 31.5032,149.5000 L 31.5032,133.0000 L 152.2532,133.0000 L 152.2532,149.5000 L 31.5032,149.5000 z " style="fill: #ffffff; fill-opacity: 0.00; stroke: none;" id="ezcGraphPolygon_41"/><text id="ezcGraphTextBox_19_text" x="32.0032" text-length="119.2500px" y="146.2500" style="font-size: 15px; font-family: 'Arial'; fill: #2e3436; fill-opacity: 1.00; stroke: none;">SK Hynix (9.7%)</text></g><g id="ezcGraphTextBox_23" style=" cursor: pointer;" onclick="top.location = 'https://linux-hardware.org/?view=computers&amp;type=desktop&amp;f=memory_vendor&amp;v=Crucial&amp;r=xubuntu-20.04'"><path d=" M 58.4604,227.0500 L 58.4604,195.4500 L 115.6104,195.4500 L 115.6104,227.0500 L 58.4604,227.0500 z " style="fill: #ffffff; fill-opacity: 0.00; stroke: none;" id="ezcGraphPolygon_42"/><text id="ezcGraphTextBox_23_text" x="58.9604" text-length="55.6500px" y="208.7000" style="font-size: 15px; font-family: 'Arial'; fill: #2e3436; fill-opacity: 1.00; stroke: none;">Crucial</text><text id="ezcGraphTextBox_23_text" x="58.9604" text-length="55.6500px" y="225.2000" style="font-size: 15px; font-family: 'Arial'; fill: #2e3436; fill-opacity: 1.00; stroke: none;">(10.6%)</text></g><g id="ezcGraphTextBox_27" style=" cursor: pointer;" onclick="top.location = 'https://linux-hardware.org/?view=computers&amp;type=desktop&amp;f=memory_vendor&amp;v=Samsung+Electronics&amp;r=xubuntu-20.04'"><path d=" M 4.7728,314.0500 L 4.7728,282.4500 L 133.4728,282.4500 L 133.4728,314.0500 L 4.7728,314.0500 z " style="fill: #ffffff; fill-opacity: 0.00; stroke: none;" id="ezcGraphPolygon_43"/><text id="ezcGraphTextBox_27_text" x="5.2728" text-length="127.2000px" y="295.7000" style="font-size: 15px; font-family: 'Arial'; fill: #2e3436; fill-opacity: 1.00; stroke: none;">Samsung Elect...</text><text id="ezcGraphTextBox_27_text" x="76.8228" text-length="55.6500px" y="312.2000" style="font-size: 15px; font-family: 'Arial'; fill: #2e3436; fill-opacity: 1.00; stroke: none;">(12.5%)</text></g><g id="ezcGraphTextBox_31" style=" cursor: pointer;" onclick="top.location = 'https://linux-hardware.org/?view=computers&amp;type=desktop&amp;f=memory_vendor&amp;v=Kingston&amp;r=xubuntu-20.04'"><path d=" M 88.0289,362.5000 L 88.0289,346.0000 L 216.7289,346.0000 L 216.7289,362.5000 L 88.0289,362.5000 z " style="fill: #ffffff; fill-opacity: 0.00; stroke: none;" id="ezcGraphPolygon_44"/><text id="ezcGraphTextBox_31_text" x="88.5289" text-length="127.2000px" y="359.2500" style="font-size: 15px; font-family: 'Arial'; fill: #2e3436; fill-opacity: 1.00; stroke: none;">Kingston (14.4%)</text></g><g id="ezcGraphTextBox_35"><path d=" M 326.1220,132.5000 L 326.1220,116.0000 L 438.9220,116.0000 L 438.9220,132.5000 L 326.1220,132.5000 z " style="fill: #ffffff; fill-opacity: 0.00; stroke: none;" id="ezcGraphPolygon_45"/><text id="ezcGraphTextBox_35_text" x="326.6220" text-length="111.3000px" y="129.2500" style="font-size: 15px; font-family: 'Arial'; fill: #2e3436; fill-opacity: 1.00; stroke: none;">Others (32.5%)</text></g><g id="ezcGraphTextBox_39" style=" cursor: pointer;" onclick="top.location = 'https://linux-hardware.org/?view=computers&amp;type=desktop&amp;f=memory_vendor&amp;v=Unknown&amp;r=xubuntu-20.04'"><path d=" M 356.7050,320.5000 L 356.7050,304.0000 L 477.4550,304.0000 L 477.4550,320.5000 L 356.7050,320.5000 z " style="fill: #ffffff; fill-opacity: 0.00; stroke: none;" id="ezcGraphPolygon_46"/><text id="ezcGraphTextBox_39_text" x="357.2050" text-length="119.2500px" y="317.2500" style="font-size: 15px; font-family: 'Arial'; fill: #2e3436; fill-opacity: 1.00; stroke: none;">Unknown (20.3%)</text></g></g></svg>
