<?xml version="1.0"?>
<svg xmlns="http://www.w3.org/2000/svg" width="500" height="420" version="1.0" id="ezcGraph"><defs/><g id="ezcGraphChart" color-rendering="optimizeQuality" shape-rendering="geometricPrecision" text-rendering="optimizeLegibility"><path d=" M 0.0000,420.0000 L 0.0000,0.0000 L 500.0000,0.0000 L 500.0000,420.0000 L 0.0000,420.0000 z " style="fill: #eeeeec; fill-opacity: 1.00; stroke: none;" id="ezcGraphPolygon_1"/><path d=" M 0.0000,42.0000 L 0.0000,0.0000 L 500.0000,0.0000 L 500.0000,42.0000 L 0.0000,42.0000 z " style="fill: #000000; fill-opacity: 0.00; stroke: none;" id="ezcGraphPolygon_2"/><path d="M 262.47,231.90 L 374.97,231.90 A 112.50,112.50 0 0,1 373.81,247.98 z" style="fill: #3465a4; fill-opacity: 1.00; stroke: none; cursor: pointer;" id="ezcGraphCircleSector_4" onclick="top.location = 'https://linux-hardware.org/?view=computers&amp;type=notebook&amp;f=node_model&amp;v=Hewlett-Packard+ProBook+450+G7&amp;c=Pakistan'"/><path d="M 269.43,232.40 L 374.47,232.40 A 112.00,112.00 0 0,1 373.39,247.41 z" style="fill: none; stroke: #1a3352; stroke-width: 1; stroke-opacity: 1.00; stroke-linecap: round; stroke-linejoin: round;" id="ezcGraphCircleSector_5"/><path d="M 250.00,231.00 L 361.34,247.08 A 112.50,112.50 0 0,1 357.90,262.84 z" style="fill: #4e9a06; fill-opacity: 1.00; stroke: none; cursor: pointer;" id="ezcGraphCircleSector_6" onclick="top.location = 'https://linux-hardware.org/?view=computers&amp;type=notebook&amp;f=node_model&amp;v=Hewlett-Packard+EliteBook+8470p&amp;c=Pakistan'"/><path d="M 256.82,232.49 L 360.78,247.51 A 112.00,112.00 0 0,1 357.56,262.21 z" style="fill: none; stroke: #274d03; stroke-width: 1; stroke-opacity: 1.00; stroke-linecap: round; stroke-linejoin: round;" id="ezcGraphCircleSector_7"/><path d="M 250.00,231.00 L 357.90,262.84 A 112.50,112.50 0 0,1 352.24,277.93 z" style="fill: #cc0000; fill-opacity: 1.00; stroke: none; cursor: pointer;" id="ezcGraphCircleSector_8" onclick="top.location = 'https://linux-hardware.org/?view=computers&amp;type=notebook&amp;f=node_model&amp;v=Hewlett-Packard+EliteBook+840+G3&amp;c=Pakistan'"/><path d="M 256.53,233.45 L 357.28,263.17 A 112.00,112.00 0 0,1 352.00,277.27 z" style="fill: none; stroke: #660000; stroke-width: 1; stroke-opacity: 1.00; stroke-linecap: round; stroke-linejoin: round;" id="ezcGraphCircleSector_9"/><path d="M 250.00,231.00 L 352.24,277.93 A 112.50,112.50 0 0,1 346.20,289.33 z" style="fill: #edd400; fill-opacity: 1.00; stroke: none; cursor: pointer;" id="ezcGraphCircleSector_10" onclick="top.location = 'https://linux-hardware.org/?view=computers&amp;type=notebook&amp;f=node_model&amp;v=Haier+Y11C&amp;c=Pakistan'"/><path d="M 257.70,235.09 L 351.58,278.18 A 112.00,112.00 0 0,1 346.03,288.65 z" style="fill: none; stroke: #776a00; stroke-width: 1; stroke-opacity: 1.00; stroke-linecap: round; stroke-linejoin: round;" id="ezcGraphCircleSector_11"/><path d="M 250.00,231.00 L 346.20,289.33 A 112.50,112.50 0 0,1 338.88,299.96 z" style="fill: #75505b; fill-opacity: 1.00; stroke: none; cursor: pointer;" id="ezcGraphCircleSector_12" onclick="top.location = 'https://linux-hardware.org/?view=computers&amp;type=notebook&amp;f=node_model&amp;v=Dell+Latitude+E7450&amp;c=Pakistan'"/><path d="M 257.18,235.94 L 345.51,289.50 A 112.00,112.00 0 0,1 338.79,299.26 z" style="fill: none; stroke: #3b282e; stroke-width: 1; stroke-opacity: 1.00; stroke-linecap: round; stroke-linejoin: round;" id="ezcGraphCircleSector_13"/><path d="M 250.00,231.00 L 338.88,299.96 A 112.50,112.50 0 1,1 362.50,231.00 z" style="fill: #f57900; fill-opacity: 1.00; stroke: none;" id="ezcGraphCircleSector_14"/><path d="M 248.54,230.50 L 338.18,300.05 A 112.00,112.00 0 1,1 362.00,230.50 z" style="fill: none; stroke: #7b3d00; stroke-width: 1; stroke-opacity: 1.00; stroke-linecap: round; stroke-linejoin: round;" id="ezcGraphCircleSector_15"/><path d=" M 171.1615,204.0012 L 125.9153,190.0000" style="fill: none; stroke: #000000; stroke-width: 1; stroke-opacity: 1.00; stroke-linecap: round; stroke-linejoin: round;" id="ezcGraphLine_16"/><ellipse cx="171.1615" cy="204.0012" rx="3.0000" ry="3.0000" style="fill: #000000; fill-opacity: 1.00; stroke: none;" id="ezcGraphCircle_17"/><ellipse cx="125.9153" cy="190.0000" rx="3.0000" ry="3.0000" style="fill: #000000; fill-opacity: 1.00; stroke: none;" id="ezcGraphCircle_18"/><path d=" M 345.5869,237.8678 L 380.6756,240.0000" style="fill: none; stroke: #000000; stroke-width: 1; stroke-opacity: 1.00; stroke-linecap: round; stroke-linejoin: round;" id="ezcGraphLine_20"/><ellipse cx="345.5869" cy="237.8678" rx="3.0000" ry="3.0000" style="fill: #000000; fill-opacity: 1.00; stroke: none;" id="ezcGraphCircle_21"/><ellipse cx="380.6756" cy="240.0000" rx="3.0000" ry="3.0000" style="fill: #000000; fill-opacity: 1.00; stroke: none;" id="ezcGraphCircle_22"/><path d=" M 331.4115,248.7934 L 373.0000,275.0000" style="fill: none; stroke: #000000; stroke-width: 1; stroke-opacity: 1.00; stroke-linecap: round; stroke-linejoin: round;" id="ezcGraphLine_24"/><ellipse cx="331.4115" cy="248.7934" rx="3.0000" ry="3.0000" style="fill: #000000; fill-opacity: 1.00; stroke: none;" id="ezcGraphCircle_25"/><ellipse cx="373.0000" cy="275.0000" rx="3.0000" ry="3.0000" style="fill: #000000; fill-opacity: 1.00; stroke: none;" id="ezcGraphCircle_26"/><path d=" M 328.0316,260.2493 L 352.8710,310.0000" style="fill: none; stroke: #000000; stroke-width: 1; stroke-opacity: 1.00; stroke-linecap: round; stroke-linejoin: round;" id="ezcGraphLine_28"/><ellipse cx="328.0316" cy="260.2493" rx="3.0000" ry="3.0000" style="fill: #000000; fill-opacity: 1.00; stroke: none;" id="ezcGraphCircle_29"/><ellipse cx="352.8710" cy="310.0000" rx="3.0000" ry="3.0000" style="fill: #000000; fill-opacity: 1.00; stroke: none;" id="ezcGraphCircle_30"/><path d=" M 323.6163,270.0522 L 307.2738,345.0000" style="fill: none; stroke: #000000; stroke-width: 1; stroke-opacity: 1.00; stroke-linecap: round; stroke-linejoin: round;" id="ezcGraphLine_32"/><ellipse cx="323.6163" cy="270.0522" rx="3.0000" ry="3.0000" style="fill: #000000; fill-opacity: 1.00; stroke: none;" id="ezcGraphCircle_33"/><ellipse cx="307.2738" cy="345.0000" rx="3.0000" ry="3.0000" style="fill: #000000; fill-opacity: 1.00; stroke: none;" id="ezcGraphCircle_34"/><path d=" M 318.6603,278.2251 L 318.6603,380.0000" style="fill: none; stroke: #000000; stroke-width: 1; stroke-opacity: 1.00; stroke-linecap: round; stroke-linejoin: round;" id="ezcGraphLine_36"/><ellipse cx="318.6603" cy="278.2251" rx="3.0000" ry="3.0000" style="fill: #000000; fill-opacity: 1.00; stroke: none;" id="ezcGraphCircle_37"/><ellipse cx="318.6603" cy="380.0000" rx="3.0000" ry="3.0000" style="fill: #000000; fill-opacity: 1.00; stroke: none;" id="ezcGraphCircle_38"/><g id="ezcGraphTextBox_3"><path d=" M 196.5000,42.0000 L 196.5000,0.5000 L 304.0000,0.5000 L 304.0000,42.0000 L 196.5000,42.0000 z " style="fill: #ffffff; fill-opacity: 0.00; stroke: none;" id="ezcGraphPolygon_40"/><text id="ezcGraphTextBox_3_text" x="197.0000" text-length="106.0000px" y="35.0000" style="font-size: 40px; font-family: 'Arial'; fill: #2e3436; fill-opacity: 1.00; stroke: none;">Model</text></g><g id="ezcGraphTextBox_19"><path d=" M 0.6953,199.0000 L 0.6953,181.5000 L 120.9153,181.5000 L 120.9153,199.0000 L 0.6953,199.0000 z " style="fill: #ffffff; fill-opacity: 0.00; stroke: none;" id="ezcGraphPolygon_41"/><text id="ezcGraphTextBox_19_text" x="1.1953" text-length="118.7200px" y="195.6000" style="font-size: 16px; font-family: 'Arial'; fill: #2e3436; fill-opacity: 1.00; stroke: none;">Others (89.5%)</text></g><g id="ezcGraphTextBox_23" style=" cursor: pointer;" onclick="top.location = 'https://linux-hardware.org/?view=computers&amp;type=notebook&amp;f=node_model&amp;v=Hewlett-Packard+ProBook+450+G7&amp;c=Pakistan'"><path d=" M 386.1756,257.0500 L 386.1756,223.4500 L 489.4356,223.4500 L 489.4356,257.0500 L 386.1756,257.0500 z " style="fill: #ffffff; fill-opacity: 0.00; stroke: none;" id="ezcGraphPolygon_42"/><text id="ezcGraphTextBox_23_text" x="386.6756" text-length="84.8000px" y="237.5500" style="font-size: 16px; font-family: 'Arial'; fill: #2e3436; fill-opacity: 1.00; stroke: none;">HP ProBook</text><text id="ezcGraphTextBox_23_text" x="386.6756" text-length="101.7600px" y="255.1500" style="font-size: 16px; font-family: 'Arial'; fill: #2e3436; fill-opacity: 1.00; stroke: none;">45... (2.3%)</text></g><g id="ezcGraphTextBox_27" style=" cursor: pointer;" onclick="top.location = 'https://linux-hardware.org/?view=computers&amp;type=notebook&amp;f=node_model&amp;v=Hewlett-Packard+EliteBook+8470p&amp;c=Pakistan'"><path d=" M 378.5000,292.0500 L 378.5000,258.4500 L 481.7600,258.4500 L 481.7600,292.0500 L 378.5000,292.0500 z " style="fill: #ffffff; fill-opacity: 0.00; stroke: none;" id="ezcGraphPolygon_43"/><text id="ezcGraphTextBox_27_text" x="379.0000" text-length="101.7600px" y="272.5500" style="font-size: 16px; font-family: 'Arial'; fill: #2e3436; fill-opacity: 1.00; stroke: none;">HP EliteBook</text><text id="ezcGraphTextBox_27_text" x="379.0000" text-length="84.8000px" y="290.1500" style="font-size: 16px; font-family: 'Arial'; fill: #2e3436; fill-opacity: 1.00; stroke: none;">... (2.3%)</text></g><g id="ezcGraphTextBox_31" style=" cursor: pointer;" onclick="top.location = 'https://linux-hardware.org/?view=computers&amp;type=notebook&amp;f=node_model&amp;v=Hewlett-Packard+EliteBook+840+G3&amp;c=Pakistan'"><path d=" M 358.3710,327.0500 L 358.3710,293.4500 L 495.5510,293.4500 L 495.5510,327.0500 L 358.3710,327.0500 z " style="fill: #ffffff; fill-opacity: 0.00; stroke: none;" id="ezcGraphPolygon_44"/><text id="ezcGraphTextBox_31_text" x="358.8710" text-length="135.6800px" y="307.5500" style="font-size: 16px; font-family: 'Arial'; fill: #2e3436; fill-opacity: 1.00; stroke: none;">HP EliteBook ...</text><text id="ezcGraphTextBox_31_text" x="358.8710" text-length="50.8800px" y="325.1500" style="font-size: 16px; font-family: 'Arial'; fill: #2e3436; fill-opacity: 1.00; stroke: none;">(2.3%)</text></g><g id="ezcGraphTextBox_35" style=" cursor: pointer;" onclick="top.location = 'https://linux-hardware.org/?view=computers&amp;type=notebook&amp;f=node_model&amp;v=Haier+Y11C&amp;c=Pakistan'"><path d=" M 312.7738,354.0000 L 312.7738,336.5000 L 458.4338,336.5000 L 458.4338,354.0000 L 312.7738,354.0000 z " style="fill: #ffffff; fill-opacity: 0.00; stroke: none;" id="ezcGraphPolygon_45"/><text id="ezcGraphTextBox_35_text" x="313.2738" text-length="144.1600px" y="350.6000" style="font-size: 16px; font-family: 'Arial'; fill: #2e3436; fill-opacity: 1.00; stroke: none;">Haier Y11C (1.8%)</text></g><g id="ezcGraphTextBox_39" style=" cursor: pointer;" onclick="top.location = 'https://linux-hardware.org/?view=computers&amp;type=notebook&amp;f=node_model&amp;v=Dell+Latitude+E7450&amp;c=Pakistan'"><path d=" M 324.1603,397.0500 L 324.1603,363.4500 L 461.3403,363.4500 L 461.3403,397.0500 L 324.1603,397.0500 z " style="fill: #ffffff; fill-opacity: 0.00; stroke: none;" id="ezcGraphPolygon_46"/><text id="ezcGraphTextBox_39_text" x="324.6603" text-length="135.6800px" y="377.5500" style="font-size: 16px; font-family: 'Arial'; fill: #2e3436; fill-opacity: 1.00; stroke: none;">Dell Latitude...</text><text id="ezcGraphTextBox_39_text" x="324.6603" text-length="50.8800px" y="395.1500" style="font-size: 16px; font-family: 'Arial'; fill: #2e3436; fill-opacity: 1.00; stroke: none;">(1.8%)</text></g></g></svg>
