<?xml version="1.0"?>
<svg xmlns="http://www.w3.org/2000/svg" width="500" height="420" version="1.0" id="ezcGraph"><defs/><g id="ezcGraphChart" color-rendering="optimizeQuality" shape-rendering="geometricPrecision" text-rendering="optimizeLegibility"><path d=" M 0.0000,420.0000 L 0.0000,0.0000 L 500.0000,0.0000 L 500.0000,420.0000 L 0.0000,420.0000 z " style="fill: #eeeeec; fill-opacity: 1.00; stroke: none;" id="ezcGraphPolygon_1"/><path d=" M 0.0000,42.0000 L 0.0000,0.0000 L 500.0000,0.0000 L 500.0000,42.0000 L 0.0000,42.0000 z " style="fill: #000000; fill-opacity: 0.00; stroke: none;" id="ezcGraphPolygon_2"/><path d="M 256.17,241.87 L 368.67,241.87 A 112.50,112.50 0 0,1 198.42,338.42 z" style="fill: #3465a4; fill-opacity: 1.00; stroke: none;" id="ezcGraphCircleSector_4"/><path d="M 256.45,242.37 L 368.17,242.37 A 112.00,112.00 0 0,1 199.11,338.25 z" style="fill: none; stroke: #1a3352; stroke-width: 1; stroke-opacity: 1.00; stroke-linecap: round; stroke-linejoin: round;" id="ezcGraphCircleSector_5"/><path d="M 250.00,231.00 L 192.26,327.55 A 112.50,112.50 0 0,1 140.10,255.07 z" style="fill: #4e9a06; fill-opacity: 1.00; stroke: none;" id="ezcGraphCircleSector_6"/><path d="M 248.98,231.74 L 192.08,326.86 A 112.00,112.00 0 0,1 140.70,255.45 z" style="fill: none; stroke: #274d03; stroke-width: 1; stroke-opacity: 1.00; stroke-linecap: round; stroke-linejoin: round;" id="ezcGraphCircleSector_7"/><path d="M 250.00,231.00 L 140.10,255.07 A 112.50,112.50 0 0,1 140.29,206.09 z" style="fill: #cc0000; fill-opacity: 1.00; stroke: none;" id="ezcGraphCircleSector_8"/><path d="M 247.70,230.99 L 140.49,254.47 A 112.00,112.00 0 0,1 140.67,206.69 z" style="fill: none; stroke: #660000; stroke-width: 1; stroke-opacity: 1.00; stroke-linecap: round; stroke-linejoin: round;" id="ezcGraphCircleSector_9"/><path d="M 250.00,231.00 L 140.29,206.09 A 112.50,112.50 0 0,1 153.90,172.51 z" style="fill: #edd400; fill-opacity: 1.00; stroke: none;" id="ezcGraphCircleSector_10"/><path d="M 247.12,229.83 L 140.89,205.71 A 112.00,112.00 0 0,1 154.06,173.20 z" style="fill: none; stroke: #776a00; stroke-width: 1; stroke-opacity: 1.00; stroke-linecap: round; stroke-linejoin: round;" id="ezcGraphCircleSector_11"/><path d="M 250.00,231.00 L 153.90,172.51 A 112.50,112.50 0 0,1 167.45,154.57 z" style="fill: #75505b; fill-opacity: 1.00; stroke: none;" id="ezcGraphCircleSector_12"/><path d="M 246.01,227.98 L 154.58,172.35 A 112.00,112.00 0 0,1 167.47,155.28 z" style="fill: none; stroke: #3b282e; stroke-width: 1; stroke-opacity: 1.00; stroke-linecap: round; stroke-linejoin: round;" id="ezcGraphCircleSector_13"/><path d="M 250.00,231.00 L 167.45,154.57 A 112.50,112.50 0 0,1 362.50,231.00 z" style="fill: #f57900; fill-opacity: 1.00; stroke: none;" id="ezcGraphCircleSector_14"/><path d="M 250.20,230.50 L 168.15,154.54 A 112.00,112.00 0 0,1 362.00,230.50 z" style="fill: none; stroke: #7b3d00; stroke-width: 1; stroke-opacity: 1.00; stroke-linecap: round; stroke-linejoin: round;" id="ezcGraphCircleSector_15"/><path d=" M 183.4986,180.7804 L 144.7579,155.0000" style="fill: none; stroke: #000000; stroke-width: 1; stroke-opacity: 1.00; stroke-linecap: round; stroke-linejoin: round;" id="ezcGraphLine_16"/><ellipse cx="183.4986" cy="180.7804" rx="3.0000" ry="3.0000" style="fill: #000000; fill-opacity: 1.00; stroke: none;" id="ezcGraphCircle_17"/><ellipse cx="144.7579" cy="155.0000" rx="3.0000" ry="3.0000" style="fill: #000000; fill-opacity: 1.00; stroke: none;" id="ezcGraphCircle_18"/><path d=" M 172.7668,199.7035 L 125.0767,192.5000" style="fill: none; stroke: #000000; stroke-width: 1; stroke-opacity: 1.00; stroke-linecap: round; stroke-linejoin: round;" id="ezcGraphLine_20"/><ellipse cx="172.7668" cy="199.7035" rx="3.0000" ry="3.0000" style="fill: #000000; fill-opacity: 1.00; stroke: none;" id="ezcGraphCircle_21"/><ellipse cx="125.0767" cy="192.5000" rx="3.0000" ry="3.0000" style="fill: #000000; fill-opacity: 1.00; stroke: none;" id="ezcGraphCircle_22"/><path d=" M 166.6673,230.6792 L 119.0040,230.0000" style="fill: none; stroke: #000000; stroke-width: 1; stroke-opacity: 1.00; stroke-linecap: round; stroke-linejoin: round;" id="ezcGraphLine_24"/><ellipse cx="166.6673" cy="230.6792" rx="3.0000" ry="3.0000" style="fill: #000000; fill-opacity: 1.00; stroke: none;" id="ezcGraphCircle_25"/><ellipse cx="119.0040" cy="230.0000" rx="3.0000" ry="3.0000" style="fill: #000000; fill-opacity: 1.00; stroke: none;" id="ezcGraphCircle_26"/><path d=" M 182.3563,279.6701 L 142.5308,304.0000" style="fill: none; stroke: #000000; stroke-width: 1; stroke-opacity: 1.00; stroke-linecap: round; stroke-linejoin: round;" id="ezcGraphLine_28"/><ellipse cx="182.3563" cy="279.6701" rx="3.0000" ry="3.0000" style="fill: #000000; fill-opacity: 1.00; stroke: none;" id="ezcGraphCircle_29"/><ellipse cx="142.5308" cy="304.0000" rx="3.0000" ry="3.0000" style="fill: #000000; fill-opacity: 1.00; stroke: none;" id="ezcGraphCircle_30"/><path d=" M 280.4024,153.4105 L 300.0000,114.0000" style="fill: none; stroke: #000000; stroke-width: 1; stroke-opacity: 1.00; stroke-linecap: round; stroke-linejoin: round;" id="ezcGraphLine_32"/><ellipse cx="280.4024" cy="153.4105" rx="3.0000" ry="3.0000" style="fill: #000000; fill-opacity: 1.00; stroke: none;" id="ezcGraphCircle_33"/><ellipse cx="300.0000" cy="114.0000" rx="3.0000" ry="3.0000" style="fill: #000000; fill-opacity: 1.00; stroke: none;" id="ezcGraphCircle_34"/><path d=" M 297.2762,314.3606 L 294.2623,350.0000" style="fill: none; stroke: #000000; stroke-width: 1; stroke-opacity: 1.00; stroke-linecap: round; stroke-linejoin: round;" id="ezcGraphLine_36"/><ellipse cx="297.2762" cy="314.3606" rx="3.0000" ry="3.0000" style="fill: #000000; fill-opacity: 1.00; stroke: none;" id="ezcGraphCircle_37"/><ellipse cx="294.2623" cy="350.0000" rx="3.0000" ry="3.0000" style="fill: #000000; fill-opacity: 1.00; stroke: none;" id="ezcGraphCircle_38"/><g id="ezcGraphTextBox_3"><path d=" M 207.1000,42.0000 L 207.1000,0.5000 L 293.4000,0.5000 L 293.4000,42.0000 L 207.1000,42.0000 z " style="fill: #ffffff; fill-opacity: 0.00; stroke: none;" id="ezcGraphPolygon_40"/><text id="ezcGraphTextBox_3_text" x="207.6000" text-length="84.8000px" y="35.0000" style="font-size: 40px; font-family: 'Arial'; fill: #2e3436; fill-opacity: 1.00; stroke: none;">City</text></g><g id="ezcGraphTextBox_19"><path d=" M 8.4079,164.7500 L 8.4079,145.7500 L 139.7579,145.7500 L 139.7579,164.7500 L 8.4079,164.7500 z " style="fill: #ffffff; fill-opacity: 0.00; stroke: none;" id="ezcGraphPolygon_41"/><text id="ezcGraphTextBox_19_text" x="8.9079" text-length="129.8500px" y="161.1250" style="font-size: 17px; font-family: 'Arial'; fill: #2e3436; fill-opacity: 1.00; stroke: none;">Antalya (3.2%)</text></g><g id="ezcGraphTextBox_23"><path d=" M 7.2767,202.2500 L 7.2767,183.2500 L 120.0767,183.2500 L 120.0767,202.2500 L 7.2767,202.2500 z " style="fill: #ffffff; fill-opacity: 0.00; stroke: none;" id="ezcGraphPolygon_42"/><text id="ezcGraphTextBox_23_text" x="7.7767" text-length="111.3000px" y="198.6250" style="font-size: 17px; font-family: 'Arial'; fill: #2e3436; fill-opacity: 1.00; stroke: none;">Bursa (5.1%)</text></g><g id="ezcGraphTextBox_27"><path d=" M 1.2040,239.7500 L 1.2040,220.7500 L 114.0040,220.7500 L 114.0040,239.7500 L 1.2040,239.7500 z " style="fill: #ffffff; fill-opacity: 0.00; stroke: none;" id="ezcGraphPolygon_43"/><text id="ezcGraphTextBox_27_text" x="1.7040" text-length="111.3000px" y="236.1250" style="font-size: 17px; font-family: 'Arial'; fill: #2e3436; fill-opacity: 1.00; stroke: none;">Izmir (7.0%)</text></g><g id="ezcGraphTextBox_31"><path d=" M 6.1808,313.7500 L 6.1808,294.7500 L 137.5308,294.7500 L 137.5308,313.7500 L 6.1808,313.7500 z " style="fill: #ffffff; fill-opacity: 0.00; stroke: none;" id="ezcGraphPolygon_44"/><text id="ezcGraphTextBox_31_text" x="6.6808" text-length="129.8500px" y="310.1250" style="font-size: 17px; font-family: 'Arial'; fill: #2e3436; fill-opacity: 1.00; stroke: none;">Ankara (13.0%)</text></g><g id="ezcGraphTextBox_35"><path d=" M 305.5000,123.7500 L 305.5000,104.7500 L 436.8500,104.7500 L 436.8500,123.7500 L 305.5000,123.7500 z " style="fill: #ffffff; fill-opacity: 0.00; stroke: none;" id="ezcGraphPolygon_45"/><text id="ezcGraphTextBox_35_text" x="306.0000" text-length="129.8500px" y="120.1250" style="font-size: 17px; font-family: 'Arial'; fill: #2e3436; fill-opacity: 1.00; stroke: none;">Others (38.1%)</text></g><g id="ezcGraphTextBox_39"><path d=" M 299.7623,359.7500 L 299.7623,340.7500 L 449.6623,340.7500 L 449.6623,359.7500 L 299.7623,359.7500 z " style="fill: #ffffff; fill-opacity: 0.00; stroke: none;" id="ezcGraphPolygon_46"/><text id="ezcGraphTextBox_39_text" x="300.2623" text-length="148.4000px" y="356.1250" style="font-size: 17px; font-family: 'Arial'; fill: #2e3436; fill-opacity: 1.00; stroke: none;">Istanbul (33.6%)</text></g></g></svg>
