<?xml version="1.0"?>
<svg xmlns="http://www.w3.org/2000/svg" width="500" height="420" version="1.0" id="ezcGraph"><defs/><g id="ezcGraphChart" color-rendering="optimizeQuality" shape-rendering="geometricPrecision" text-rendering="optimizeLegibility"><path d=" M 0.0000,420.0000 L 0.0000,0.0000 L 500.0000,0.0000 L 500.0000,420.0000 L 0.0000,420.0000 z " style="fill: #eeeeec; fill-opacity: 1.00; stroke: none;" id="ezcGraphPolygon_1"/><path d=" M 0.0000,42.0000 L 0.0000,0.0000 L 500.0000,0.0000 L 500.0000,42.0000 L 0.0000,42.0000 z " style="fill: #000000; fill-opacity: 0.00; stroke: none;" id="ezcGraphPolygon_2"/><path d="M 261.14,236.68 L 373.64,236.68 A 112.50,112.50 0 0,1 327.24,327.71 z" style="fill: #3465a4; fill-opacity: 1.00; stroke: none; cursor: pointer;" id="ezcGraphCircleSector_4" onclick="top.location = 'https://linux-hardware.org/?view=computers&amp;type=notebook&amp;f=storage_model&amp;v=AMD+FCH+SATA+Controller+%5BAHCI+mode%5D&amp;c=Indonesia'"/><path d="M 262.12,237.18 L 373.14,237.18 A 112.00,112.00 0 0,1 327.35,327.01 z" style="fill: none; stroke: #1a3352; stroke-width: 1; stroke-opacity: 1.00; stroke-linecap: round; stroke-linejoin: round;" id="ezcGraphCircleSector_5"/><path d="M 250.00,231.00 L 316.10,322.03 A 112.50,112.50 0 0,1 266.32,342.31 z" style="fill: #4e9a06; fill-opacity: 1.00; stroke: none; cursor: pointer;" id="ezcGraphCircleSector_6" onclick="top.location = 'https://linux-hardware.org/?view=computers&amp;type=notebook&amp;f=storage_model&amp;v=Intel+7+Series+Chipset+Family+6-port+SATA+Controller+%5BAHCI+mode%5D&amp;c=Indonesia'"/><path d="M 250.79,232.94 L 315.40,321.92 A 112.00,112.00 0 0,1 266.74,341.74 z" style="fill: none; stroke: #274d03; stroke-width: 1; stroke-opacity: 1.00; stroke-linecap: round; stroke-linejoin: round;" id="ezcGraphCircleSector_7"/><path d="M 250.00,231.00 L 266.32,342.31 A 112.50,112.50 0 0,1 215.77,338.17 z" style="fill: #cc0000; fill-opacity: 1.00; stroke: none; cursor: pointer;" id="ezcGraphCircleSector_8" onclick="top.location = 'https://linux-hardware.org/?view=computers&amp;type=notebook&amp;f=storage_model&amp;v=Intel+Sunrise+Point-LP+SATA+Controller+%5BAHCI+mode%5D&amp;c=Indonesia'"/><path d="M 249.82,233.21 L 265.75,341.89 A 112.00,112.00 0 0,1 216.40,337.84 z" style="fill: none; stroke: #660000; stroke-width: 1; stroke-opacity: 1.00; stroke-linecap: round; stroke-linejoin: round;" id="ezcGraphCircleSector_9"/><path d="M 250.00,231.00 L 215.77,338.17 A 112.50,112.50 0 0,1 186.19,323.65 z" style="fill: #edd400; fill-opacity: 1.00; stroke: none; cursor: pointer;" id="ezcGraphCircleSector_10" onclick="top.location = 'https://linux-hardware.org/?view=computers&amp;type=notebook&amp;f=storage_model&amp;v=Intel+6+Series%2FC200+Series+Chipset+Family+6+port+Mobile+SATA+AHCI+Controller&amp;c=Indonesia'"/><path d="M 248.50,234.07 L 215.45,337.54 A 112.00,112.00 0 0,1 186.89,323.53 z" style="fill: none; stroke: #776a00; stroke-width: 1; stroke-opacity: 1.00; stroke-linecap: round; stroke-linejoin: round;" id="ezcGraphCircleSector_11"/><path d="M 250.00,231.00 L 186.19,323.65 A 112.50,112.50 0 0,1 163.66,303.13 z" style="fill: #75505b; fill-opacity: 1.00; stroke: none; cursor: pointer;" id="ezcGraphCircleSector_12" onclick="top.location = 'https://linux-hardware.org/?view=computers&amp;type=notebook&amp;f=storage_model&amp;v=Intel+82801+Mobile+SATA+Controller+%5BRAID+mode%5D&amp;c=Indonesia'"/><path d="M 247.51,233.73 L 186.06,322.96 A 112.00,112.00 0 0,1 164.37,303.19 z" style="fill: none; stroke: #3b282e; stroke-width: 1; stroke-opacity: 1.00; stroke-linecap: round; stroke-linejoin: round;" id="ezcGraphCircleSector_13"/><path d="M 250.00,231.00 L 163.66,303.13 A 112.50,112.50 0 1,1 362.50,231.00 z" style="fill: #f57900; fill-opacity: 1.00; stroke: none;" id="ezcGraphCircleSector_14"/><path d="M 249.82,230.50 L 163.73,302.42 A 112.00,112.00 0 1,1 362.00,230.50 z" style="fill: none; stroke: #7b3d00; stroke-width: 1; stroke-opacity: 1.00; stroke-linecap: round; stroke-linejoin: round;" id="ezcGraphCircleSector_15"/><path d=" M 221.5828,152.6616 L 202.7568,113.0000" style="fill: none; stroke: #000000; stroke-width: 1; stroke-opacity: 1.00; stroke-linecap: round; stroke-linejoin: round;" id="ezcGraphLine_16"/><ellipse cx="221.5828" cy="152.6616" rx="3.0000" ry="3.0000" style="fill: #000000; fill-opacity: 1.00; stroke: none;" id="ezcGraphCircle_17"/><ellipse cx="202.7568" cy="113.0000" rx="3.0000" ry="3.0000" style="fill: #000000; fill-opacity: 1.00; stroke: none;" id="ezcGraphCircle_18"/><path d=" M 193.8738,292.5978 L 159.3773,323.0000" style="fill: none; stroke: #000000; stroke-width: 1; stroke-opacity: 1.00; stroke-linecap: round; stroke-linejoin: round;" id="ezcGraphLine_20"/><ellipse cx="193.8738" cy="292.5978" rx="3.0000" ry="3.0000" style="fill: #000000; fill-opacity: 1.00; stroke: none;" id="ezcGraphCircle_21"/><ellipse cx="159.3773" cy="323.0000" rx="3.0000" ry="3.0000" style="fill: #000000; fill-opacity: 1.00; stroke: none;" id="ezcGraphCircle_22"/><path d=" M 213.2938,305.8138 L 213.2938,360.5000" style="fill: none; stroke: #000000; stroke-width: 1; stroke-opacity: 1.00; stroke-linecap: round; stroke-linejoin: round;" id="ezcGraphLine_24"/><ellipse cx="213.2938" cy="305.8138" rx="3.0000" ry="3.0000" style="fill: #000000; fill-opacity: 1.00; stroke: none;" id="ezcGraphCircle_25"/><ellipse cx="213.2938" cy="360.5000" rx="3.0000" ry="3.0000" style="fill: #000000; fill-opacity: 1.00; stroke: none;" id="ezcGraphCircle_26"/><path d=" M 243.1911,314.0547 L 243.1911,398.0000" style="fill: none; stroke: #000000; stroke-width: 1; stroke-opacity: 1.00; stroke-linecap: round; stroke-linejoin: round;" id="ezcGraphLine_28"/><ellipse cx="243.1911" cy="314.0547" rx="3.0000" ry="3.0000" style="fill: #000000; fill-opacity: 1.00; stroke: none;" id="ezcGraphCircle_29"/><ellipse cx="243.1911" cy="398.0000" rx="3.0000" ry="3.0000" style="fill: #000000; fill-opacity: 1.00; stroke: none;" id="ezcGraphCircle_30"/><path d=" M 335.3821,274.5193 L 364.5403,293.0000" style="fill: none; stroke: #000000; stroke-width: 1; stroke-opacity: 1.00; stroke-linecap: round; stroke-linejoin: round;" id="ezcGraphLine_32"/><ellipse cx="335.3821" cy="274.5193" rx="3.0000" ry="3.0000" style="fill: #000000; fill-opacity: 1.00; stroke: none;" id="ezcGraphCircle_33"/><ellipse cx="364.5403" cy="293.0000" rx="3.0000" ry="3.0000" style="fill: #000000; fill-opacity: 1.00; stroke: none;" id="ezcGraphCircle_34"/><path d=" M 281.4361,308.1765 L 304.9898,346.0000" style="fill: none; stroke: #000000; stroke-width: 1; stroke-opacity: 1.00; stroke-linecap: round; stroke-linejoin: round;" id="ezcGraphLine_36"/><ellipse cx="281.4361" cy="308.1765" rx="3.0000" ry="3.0000" style="fill: #000000; fill-opacity: 1.00; stroke: none;" id="ezcGraphCircle_37"/><ellipse cx="304.9898" cy="346.0000" rx="3.0000" ry="3.0000" style="fill: #000000; fill-opacity: 1.00; stroke: none;" id="ezcGraphCircle_38"/><g id="ezcGraphTextBox_3"><path d=" M 111.7000,42.0000 L 111.7000,0.5000 L 388.8000,0.5000 L 388.8000,42.0000 L 111.7000,42.0000 z " style="fill: #ffffff; fill-opacity: 0.00; stroke: none;" id="ezcGraphPolygon_40"/><text id="ezcGraphTextBox_3_text" x="112.2000" text-length="275.6000px" y="35.0000" style="font-size: 40px; font-family: 'Arial'; fill: #2e3436; fill-opacity: 1.00; stroke: none;">Storage Model</text></g><g id="ezcGraphTextBox_19"><path d=" M 81.2468,121.7500 L 81.2468,104.7500 L 197.7568,104.7500 L 197.7568,121.7500 L 81.2468,121.7500 z " style="fill: #ffffff; fill-opacity: 0.00; stroke: none;" id="ezcGraphPolygon_41"/><text id="ezcGraphTextBox_19_text" x="81.7468" text-length="115.0100px" y="118.4250" style="font-size: 15px; font-family: 'Arial'; fill: #2e3436; fill-opacity: 1.00; stroke: none;">Others (61.1%)</text></g><g id="ezcGraphTextBox_23" style=" cursor: pointer;" onclick="top.location = 'https://linux-hardware.org/?view=computers&amp;type=notebook&amp;f=storage_model&amp;v=Intel+82801+Mobile+SATA+Controller+%5BRAID+mode%5D&amp;c=Indonesia'"><path d=" M 21.4373,339.5500 L 21.4373,306.9500 L 154.3773,306.9500 L 154.3773,339.5500 L 21.4373,339.5500 z " style="fill: #ffffff; fill-opacity: 0.00; stroke: none;" id="ezcGraphPolygon_42"/><text id="ezcGraphTextBox_23_text" x="21.9373" text-length="131.4400px" y="320.6250" style="font-size: 15px; font-family: 'Arial'; fill: #2e3436; fill-opacity: 1.00; stroke: none;">82801 Mobile ...</text><text id="ezcGraphTextBox_23_text" x="104.0873" text-length="49.2900px" y="337.6750" style="font-size: 15px; font-family: 'Arial'; fill: #2e3436; fill-opacity: 1.00; stroke: none;">(4.3%)</text></g><g id="ezcGraphTextBox_27" style=" cursor: pointer;" onclick="top.location = 'https://linux-hardware.org/?view=computers&amp;type=notebook&amp;f=storage_model&amp;v=Intel+6+Series%2FC200+Series+Chipset+Family+6+port+Mobile+SATA+AHCI+Controller&amp;c=Indonesia'"><path d=" M 75.3538,377.0500 L 75.3538,344.4500 L 208.2938,344.4500 L 208.2938,377.0500 L 75.3538,377.0500 z " style="fill: #ffffff; fill-opacity: 0.00; stroke: none;" id="ezcGraphPolygon_43"/><text id="ezcGraphTextBox_27_text" x="75.8538" text-length="131.4400px" y="358.1250" style="font-size: 15px; font-family: 'Arial'; fill: #2e3436; fill-opacity: 1.00; stroke: none;">6 Series/C200...</text><text id="ezcGraphTextBox_27_text" x="158.0038" text-length="49.2900px" y="375.1750" style="font-size: 15px; font-family: 'Arial'; fill: #2e3436; fill-opacity: 1.00; stroke: none;">(4.7%)</text></g><g id="ezcGraphTextBox_31" style=" cursor: pointer;" onclick="top.location = 'https://linux-hardware.org/?view=computers&amp;type=notebook&amp;f=storage_model&amp;v=Intel+Sunrise+Point-LP+SATA+Controller+%5BAHCI+mode%5D&amp;c=Indonesia'"><path d=" M 47.7461,406.7500 L 47.7461,389.7500 L 238.1911,389.7500 L 238.1911,406.7500 L 47.7461,406.7500 z " style="fill: #ffffff; fill-opacity: 0.00; stroke: none;" id="ezcGraphPolygon_44"/><text id="ezcGraphTextBox_31_text" x="48.2461" text-length="188.9450px" y="403.4250" style="font-size: 15px; font-family: 'Arial'; fill: #2e3436; fill-opacity: 1.00; stroke: none;">Sunrise Point... (7.2%)</text></g><g id="ezcGraphTextBox_35" style=" cursor: pointer;" onclick="top.location = 'https://linux-hardware.org/?view=computers&amp;type=notebook&amp;f=storage_model&amp;v=AMD+FCH+SATA+Controller+%5BAHCI+mode%5D&amp;c=Indonesia'"><path d=" M 370.0403,309.5500 L 370.0403,276.9500 L 494.7653,276.9500 L 494.7653,309.5500 L 370.0403,309.5500 z " style="fill: #ffffff; fill-opacity: 0.00; stroke: none;" id="ezcGraphPolygon_45"/><text id="ezcGraphTextBox_35_text" x="370.5403" text-length="65.7200px" y="290.6250" style="font-size: 15px; font-family: 'Arial'; fill: #2e3436; fill-opacity: 1.00; stroke: none;">FCH SATA</text><text id="ezcGraphTextBox_35_text" x="370.5403" text-length="123.2250px" y="307.6750" style="font-size: 15px; font-family: 'Arial'; fill: #2e3436; fill-opacity: 1.00; stroke: none;">Cont... (15.0%)</text></g><g id="ezcGraphTextBox_39" style=" cursor: pointer;" onclick="top.location = 'https://linux-hardware.org/?view=computers&amp;type=notebook&amp;f=storage_model&amp;v=Intel+7+Series+Chipset+Family+6-port+SATA+Controller+%5BAHCI+mode%5D&amp;c=Indonesia'"><path d=" M 310.4898,362.5500 L 310.4898,329.9500 L 443.4298,329.9500 L 443.4298,362.5500 L 310.4898,362.5500 z " style="fill: #ffffff; fill-opacity: 0.00; stroke: none;" id="ezcGraphPolygon_46"/><text id="ezcGraphTextBox_39_text" x="310.9898" text-length="131.4400px" y="343.6250" style="font-size: 15px; font-family: 'Arial'; fill: #2e3436; fill-opacity: 1.00; stroke: none;">7 Series Chip...</text><text id="ezcGraphTextBox_39_text" x="310.9898" text-length="49.2900px" y="360.6750" style="font-size: 15px; font-family: 'Arial'; fill: #2e3436; fill-opacity: 1.00; stroke: none;">(7.7%)</text></g></g></svg>
