<?xml version="1.0"?>
<svg xmlns="http://www.w3.org/2000/svg" width="500" height="420" version="1.0" id="ezcGraph"><defs/><g id="ezcGraphChart" color-rendering="optimizeQuality" shape-rendering="geometricPrecision" text-rendering="optimizeLegibility"><path d=" M 0.0000,420.0000 L 0.0000,0.0000 L 500.0000,0.0000 L 500.0000,420.0000 L 0.0000,420.0000 z " style="fill: #eeeeec; fill-opacity: 1.00; stroke: none;" id="ezcGraphPolygon_1"/><path d=" M 0.0000,42.0000 L 0.0000,0.0000 L 500.0000,0.0000 L 500.0000,42.0000 L 0.0000,42.0000 z " style="fill: #000000; fill-opacity: 0.00; stroke: none;" id="ezcGraphPolygon_2"/><path d="M 243.92,241.92 L 356.42,241.92 A 112.50,112.50 0 1,1 184.62,146.32 z" style="fill: #3465a4; fill-opacity: 1.00; stroke: none; cursor: pointer;" id="ezcGraphCircleSector_4" onclick="top.location = 'https://linux-hardware.org/?view=computers&amp;type=desktop&amp;f=mon_ratio&amp;v=16%2F9&amp;r=xubuntu-22.04'"/><path d="M 243.64,242.42 L 355.92,242.42 A 112.00,112.00 0 1,1 184.46,147.01 z" style="fill: none; stroke: #1a3352; stroke-width: 1; stroke-opacity: 1.00; stroke-linecap: round; stroke-linejoin: round;" id="ezcGraphCircleSector_5"/><path d="M 250.00,231.00 L 190.70,135.40 A 112.50,112.50 0 0,1 285.17,124.14 z" style="fill: #4e9a06; fill-opacity: 1.00; stroke: none; cursor: pointer;" id="ezcGraphCircleSector_6" onclick="top.location = 'https://linux-hardware.org/?view=computers&amp;type=desktop&amp;f=mon_ratio&amp;v=16%2F10&amp;r=xubuntu-22.04'"/><path d="M 249.86,229.83 L 191.38,135.56 A 112.00,112.00 0 0,1 284.54,124.46 z" style="fill: none; stroke: #274d03; stroke-width: 1; stroke-opacity: 1.00; stroke-linecap: round; stroke-linejoin: round;" id="ezcGraphCircleSector_7"/><path d="M 250.00,231.00 L 285.17,124.14 A 112.50,112.50 0 0,1 328.60,150.51 z" style="fill: #cc0000; fill-opacity: 1.00; stroke: none; cursor: pointer;" id="ezcGraphCircleSector_8" onclick="top.location = 'https://linux-hardware.org/?view=computers&amp;type=desktop&amp;f=mon_ratio&amp;v=5%2F4&amp;r=xubuntu-22.04'"/><path d="M 251.15,229.11 L 285.49,124.77 A 112.00,112.00 0 0,1 327.89,150.52 z" style="fill: none; stroke: #660000; stroke-width: 1; stroke-opacity: 1.00; stroke-linecap: round; stroke-linejoin: round;" id="ezcGraphCircleSector_9"/><path d="M 250.00,231.00 L 328.60,150.51 A 112.50,112.50 0 0,1 346.98,173.98 z" style="fill: #edd400; fill-opacity: 1.00; stroke: none; cursor: pointer;" id="ezcGraphCircleSector_10" onclick="top.location = 'https://linux-hardware.org/?view=computers&amp;type=desktop&amp;f=mon_ratio&amp;v=4%2F3&amp;r=xubuntu-22.04'"/><path d="M 252.97,228.67 L 328.61,151.22 A 112.00,112.00 0 0,1 346.30,173.80 z" style="fill: none; stroke: #776a00; stroke-width: 1; stroke-opacity: 1.00; stroke-linecap: round; stroke-linejoin: round;" id="ezcGraphCircleSector_11"/><path d="M 250.00,231.00 L 346.98,173.98 A 112.50,112.50 0 0,1 357.97,199.40 z" style="fill: #75505b; fill-opacity: 1.00; stroke: none; cursor: pointer;" id="ezcGraphCircleSector_12" onclick="top.location = 'https://linux-hardware.org/?view=computers&amp;type=desktop&amp;f=mon_ratio&amp;v=&amp;r=xubuntu-22.04'"/><path d="M 253.73,229.39 L 346.80,174.67 A 112.00,112.00 0 0,1 357.35,199.06 z" style="fill: none; stroke: #3b282e; stroke-width: 1; stroke-opacity: 1.00; stroke-linecap: round; stroke-linejoin: round;" id="ezcGraphCircleSector_13"/><path d="M 250.00,231.00 L 357.97,199.40 A 112.50,112.50 0 0,1 362.50,231.00 z" style="fill: #f57900; fill-opacity: 1.00; stroke: none;" id="ezcGraphCircleSector_14"/><path d="M 253.49,230.50 L 357.63,200.02 A 112.00,112.00 0 0,1 362.00,230.50 z" style="fill: none; stroke: #7b3d00; stroke-width: 1; stroke-opacity: 1.00; stroke-linecap: round; stroke-linejoin: round;" id="ezcGraphCircleSector_15"/><path d=" M 240.1365,148.2525 L 244.0000,106.0000" style="fill: none; stroke: #000000; stroke-width: 1; stroke-opacity: 1.00; stroke-linecap: round; stroke-linejoin: round;" id="ezcGraphLine_16"/><ellipse cx="240.1365" cy="148.2525" rx="3.0000" ry="3.0000" style="fill: #000000; fill-opacity: 1.00; stroke: none;" id="ezcGraphCircle_17"/><ellipse cx="244.0000" cy="106.0000" rx="3.0000" ry="3.0000" style="fill: #000000; fill-opacity: 1.00; stroke: none;" id="ezcGraphCircle_18"/><path d=" M 203.4021,314.7417 L 209.0000,351.0000" style="fill: none; stroke: #000000; stroke-width: 1; stroke-opacity: 1.00; stroke-linecap: round; stroke-linejoin: round;" id="ezcGraphLine_20"/><ellipse cx="203.4021" cy="314.7417" rx="3.0000" ry="3.0000" style="fill: #000000; fill-opacity: 1.00; stroke: none;" id="ezcGraphCircle_21"/><ellipse cx="209.0000" cy="351.0000" rx="3.0000" ry="3.0000" style="fill: #000000; fill-opacity: 1.00; stroke: none;" id="ezcGraphCircle_22"/><path d=" M 293.2546,159.7716 L 320.6220,124.0000" style="fill: none; stroke: #000000; stroke-width: 1; stroke-opacity: 1.00; stroke-linecap: round; stroke-linejoin: round;" id="ezcGraphLine_24"/><ellipse cx="293.2546" cy="159.7716" rx="3.0000" ry="3.0000" style="fill: #000000; fill-opacity: 1.00; stroke: none;" id="ezcGraphCircle_25"/><ellipse cx="320.6220" cy="124.0000" rx="3.0000" ry="3.0000" style="fill: #000000; fill-opacity: 1.00; stroke: none;" id="ezcGraphCircle_26"/><path d=" M 315.6080,179.6187 L 359.8978,161.5000" style="fill: none; stroke: #000000; stroke-width: 1; stroke-opacity: 1.00; stroke-linecap: round; stroke-linejoin: round;" id="ezcGraphLine_28"/><ellipse cx="315.6080" cy="179.6187" rx="3.0000" ry="3.0000" style="fill: #000000; fill-opacity: 1.00; stroke: none;" id="ezcGraphCircle_29"/><ellipse cx="359.8978" cy="161.5000" rx="3.0000" ry="3.0000" style="fill: #000000; fill-opacity: 1.00; stroke: none;" id="ezcGraphCircle_30"/><path d=" M 326.4890,197.9261 L 376.8346,199.0000" style="fill: none; stroke: #000000; stroke-width: 1; stroke-opacity: 1.00; stroke-linecap: round; stroke-linejoin: round;" id="ezcGraphLine_32"/><ellipse cx="326.4890" cy="197.9261" rx="3.0000" ry="3.0000" style="fill: #000000; fill-opacity: 1.00; stroke: none;" id="ezcGraphCircle_33"/><ellipse cx="376.8346" cy="199.0000" rx="3.0000" ry="3.0000" style="fill: #000000; fill-opacity: 1.00; stroke: none;" id="ezcGraphCircle_34"/><path d=" M 332.4902,219.1760 L 380.8789,236.5000" style="fill: none; stroke: #000000; stroke-width: 1; stroke-opacity: 1.00; stroke-linecap: round; stroke-linejoin: round;" id="ezcGraphLine_36"/><ellipse cx="332.4902" cy="219.1760" rx="3.0000" ry="3.0000" style="fill: #000000; fill-opacity: 1.00; stroke: none;" id="ezcGraphCircle_37"/><ellipse cx="380.8789" cy="236.5000" rx="3.0000" ry="3.0000" style="fill: #000000; fill-opacity: 1.00; stroke: none;" id="ezcGraphCircle_38"/><g id="ezcGraphTextBox_3"><path d=" M 122.3000,42.0000 L 122.3000,0.5000 L 378.2000,0.5000 L 378.2000,42.0000 L 122.3000,42.0000 z " style="fill: #ffffff; fill-opacity: 0.00; stroke: none;" id="ezcGraphPolygon_40"/><text id="ezcGraphTextBox_3_text" x="122.8000" text-length="254.4000px" y="35.0000" style="font-size: 40px; font-family: 'Arial'; fill: #2e3436; fill-opacity: 1.00; stroke: none;">Aspect Ratio</text></g><g id="ezcGraphTextBox_19" style=" cursor: pointer;" onclick="top.location = 'https://linux-hardware.org/?view=computers&amp;type=desktop&amp;f=mon_ratio&amp;v=16%2F10&amp;r=xubuntu-22.04'"><path d=" M 120.3700,115.5000 L 120.3700,97.0000 L 239.0000,97.0000 L 239.0000,115.5000 L 120.3700,115.5000 z " style="fill: #ffffff; fill-opacity: 0.00; stroke: none;" id="ezcGraphPolygon_41"/><text id="ezcGraphTextBox_19_text" x="120.8700" text-length="117.1300px" y="111.9500" style="font-size: 17px; font-family: 'Arial'; fill: #2e3436; fill-opacity: 1.00; stroke: none;">16/10 (13.9%)</text></g><g id="ezcGraphTextBox_23" style=" cursor: pointer;" onclick="top.location = 'https://linux-hardware.org/?view=computers&amp;type=desktop&amp;f=mon_ratio&amp;v=16%2F9&amp;r=xubuntu-22.04'"><path d=" M 94.3800,360.5000 L 94.3800,342.0000 L 204.0000,342.0000 L 204.0000,360.5000 L 94.3800,360.5000 z " style="fill: #ffffff; fill-opacity: 0.00; stroke: none;" id="ezcGraphPolygon_42"/><text id="ezcGraphTextBox_23_text" x="94.8800" text-length="108.1200px" y="356.9500" style="font-size: 17px; font-family: 'Arial'; fill: #2e3436; fill-opacity: 1.00; stroke: none;">16/9 (66.2%)</text></g><g id="ezcGraphTextBox_27" style=" cursor: pointer;" onclick="top.location = 'https://linux-hardware.org/?view=computers&amp;type=desktop&amp;f=mon_ratio&amp;v=5%2F4&amp;r=xubuntu-22.04'"><path d=" M 326.1220,133.5000 L 326.1220,115.0000 L 417.7220,115.0000 L 417.7220,133.5000 L 326.1220,133.5000 z " style="fill: #ffffff; fill-opacity: 0.00; stroke: none;" id="ezcGraphPolygon_43"/><text id="ezcGraphTextBox_27_text" x="326.6220" text-length="90.1000px" y="129.9500" style="font-size: 17px; font-family: 'Arial'; fill: #2e3436; fill-opacity: 1.00; stroke: none;">5/4 (7.3%)</text></g><g id="ezcGraphTextBox_31" style=" cursor: pointer;" onclick="top.location = 'https://linux-hardware.org/?view=computers&amp;type=desktop&amp;f=mon_ratio&amp;v=4%2F3&amp;r=xubuntu-22.04'"><path d=" M 365.3978,171.0000 L 365.3978,152.5000 L 456.9978,152.5000 L 456.9978,171.0000 L 365.3978,171.0000 z " style="fill: #ffffff; fill-opacity: 0.00; stroke: none;" id="ezcGraphPolygon_44"/><text id="ezcGraphTextBox_31_text" x="365.8978" text-length="90.1000px" y="167.4500" style="font-size: 17px; font-family: 'Arial'; fill: #2e3436; fill-opacity: 1.00; stroke: none;">4/3 (4.2%)</text></g><g id="ezcGraphTextBox_35" style=" cursor: pointer;" onclick="top.location = 'https://linux-hardware.org/?view=computers&amp;type=desktop&amp;f=mon_ratio&amp;v=&amp;r=xubuntu-22.04'"><path d=" M 382.3346,217.0500 L 382.3346,181.4500 L 446.9046,181.4500 L 446.9046,217.0500 L 382.3346,217.0500 z " style="fill: #ffffff; fill-opacity: 0.00; stroke: none;" id="ezcGraphPolygon_45"/><text id="ezcGraphTextBox_35_text" x="382.8346" text-length="63.0700px" y="196.4000" style="font-size: 17px; font-family: 'Arial'; fill: #2e3436; fill-opacity: 1.00; stroke: none;">Unknown</text><text id="ezcGraphTextBox_35_text" x="382.8346" text-length="54.0600px" y="215.1000" style="font-size: 17px; font-family: 'Arial'; fill: #2e3436; fill-opacity: 1.00; stroke: none;">(3.9%)</text></g><g id="ezcGraphTextBox_39"><path d=" M 386.3789,254.5500 L 386.3789,218.9500 L 441.9389,218.9500 L 441.9389,254.5500 L 386.3789,254.5500 z " style="fill: #ffffff; fill-opacity: 0.00; stroke: none;" id="ezcGraphPolygon_46"/><text id="ezcGraphTextBox_39_text" x="386.8789" text-length="54.0600px" y="233.9000" style="font-size: 17px; font-family: 'Arial'; fill: #2e3436; fill-opacity: 1.00; stroke: none;">Others</text><text id="ezcGraphTextBox_39_text" x="386.8789" text-length="54.0600px" y="252.6000" style="font-size: 17px; font-family: 'Arial'; fill: #2e3436; fill-opacity: 1.00; stroke: none;">(4.5%)</text></g></g></svg>
