<?xml version="1.0"?>
<svg xmlns="http://www.w3.org/2000/svg" width="500" height="420" version="1.0" id="ezcGraph"><defs/><g id="ezcGraphChart" color-rendering="optimizeQuality" shape-rendering="geometricPrecision" text-rendering="optimizeLegibility"><path d=" M 0.0000,420.0000 L 0.0000,0.0000 L 500.0000,0.0000 L 500.0000,420.0000 L 0.0000,420.0000 z " style="fill: #eeeeec; fill-opacity: 1.00; stroke: none;" id="ezcGraphPolygon_1"/><path d=" M 0.0000,42.0000 L 0.0000,0.0000 L 500.0000,0.0000 L 500.0000,42.0000 L 0.0000,42.0000 z " style="fill: #000000; fill-opacity: 0.00; stroke: none;" id="ezcGraphPolygon_2"/><path d="M 238.58,236.07 L 351.08,236.07 A 112.50,112.50 0 1,1 314.03,152.63 z" style="fill: #3465a4; fill-opacity: 1.00; stroke: none; cursor: pointer;" id="ezcGraphCircleSector_4" onclick="top.location = 'https://linux-hardware.org/?view=computers&amp;type=desktop&amp;f=device_unsupported&amp;v=0'"/><path d="M 237.45,236.57 L 350.58,236.57 A 112.00,112.00 0 1,1 313.33,152.67 z" style="fill: none; stroke: #1a3352; stroke-width: 1; stroke-opacity: 1.00; stroke-linecap: round; stroke-linejoin: round;" id="ezcGraphCircleSector_5"/><path d="M 250.00,231.00 L 325.46,147.56 A 112.50,112.50 0 0,1 361.09,213.22 z" style="fill: #4e9a06; fill-opacity: 1.00; stroke: none; cursor: pointer;" id="ezcGraphCircleSector_6" onclick="top.location = 'https://linux-hardware.org/?view=computers&amp;type=desktop&amp;f=device_unsupported&amp;v=1'"/><path d="M 251.32,230.28 L 325.49,148.27 A 112.00,112.00 0 0,1 360.51,212.80 z" style="fill: none; stroke: #274d03; stroke-width: 1; stroke-opacity: 1.00; stroke-linecap: round; stroke-linejoin: round;" id="ezcGraphCircleSector_7"/><path d="M 250.00,231.00 L 361.09,213.22 A 112.50,112.50 0 0,1 362.35,225.23 z" style="fill: #cc0000; fill-opacity: 1.00; stroke: none; cursor: pointer;" id="ezcGraphCircleSector_8" onclick="top.location = 'https://linux-hardware.org/?view=computers&amp;type=desktop&amp;f=device_unsupported&amp;v=2'"/><path d="M 259.27,230.02 L 360.67,213.79 A 112.00,112.00 0 0,1 361.83,224.75 z" style="fill: none; stroke: #660000; stroke-width: 1; stroke-opacity: 1.00; stroke-linecap: round; stroke-linejoin: round;" id="ezcGraphCircleSector_9"/><path d="M 250.00,231.00 L 362.35,225.23 A 112.50,112.50 0 0,1 362.47,228.37 z" style="fill: #edd400; fill-opacity: 1.00; stroke: none; cursor: pointer;" id="ezcGraphCircleSector_10" onclick="top.location = 'https://linux-hardware.org/?view=computers&amp;type=desktop&amp;f=device_unsupported&amp;v=3'"/><path d="M 285.68,229.67 L 361.88,225.75 A 112.00,112.00 0 0,1 361.96,227.89 z" style="fill: none; stroke: #776a00; stroke-width: 1; stroke-opacity: 1.00; stroke-linecap: round; stroke-linejoin: round;" id="ezcGraphCircleSector_11"/><path d="M 250.00,231.00 L 362.47,228.37 A 112.50,112.50 0 0,1 362.50,230.47 z" style="fill: #75505b; fill-opacity: 1.00; stroke: none; cursor: pointer;" id="ezcGraphCircleSector_12" onclick="top.location = 'https://linux-hardware.org/?view=computers&amp;type=desktop&amp;f=device_unsupported&amp;v=4'"/><path d="M 303.55,230.25 L 361.98,228.89 A 112.00,112.00 0 0,1 362.00,229.98 z" style="fill: none; stroke: #3b282e; stroke-width: 1; stroke-opacity: 1.00; stroke-linecap: round; stroke-linejoin: round;" id="ezcGraphCircleSector_13"/><path d="M 250.00,231.00 L 362.50,230.47 A 112.50,112.50 0 0,1 362.50,231.00 z" style="fill: #f57900; fill-opacity: 1.00; stroke: none;" id="ezcGraphCircleSector_14"/><path d=" M 162.4095,269.8835 L 131.7503,286.0000" style="fill: none; stroke: #000000; stroke-width: 1; stroke-opacity: 1.00; stroke-linecap: round; stroke-linejoin: round;" id="ezcGraphLine_15"/><ellipse cx="162.4095" cy="269.8835" rx="3.0000" ry="3.0000" style="fill: #000000; fill-opacity: 1.00; stroke: none;" id="ezcGraphCircle_16"/><ellipse cx="131.7503" cy="286.0000" rx="3.0000" ry="3.0000" style="fill: #000000; fill-opacity: 1.00; stroke: none;" id="ezcGraphCircle_17"/><path d=" M 323.2456,191.2567 L 365.6586,171.0000" style="fill: none; stroke: #000000; stroke-width: 1; stroke-opacity: 1.00; stroke-linecap: round; stroke-linejoin: round;" id="ezcGraphLine_19"/><ellipse cx="323.2456" cy="191.2567" rx="3.0000" ry="3.0000" style="fill: #000000; fill-opacity: 1.00; stroke: none;" id="ezcGraphCircle_20"/><ellipse cx="365.6586" cy="171.0000" rx="3.0000" ry="3.0000" style="fill: #000000; fill-opacity: 1.00; stroke: none;" id="ezcGraphCircle_21"/><path d=" M 332.8741,222.2635 L 380.2135,217.0000" style="fill: none; stroke: #000000; stroke-width: 1; stroke-opacity: 1.00; stroke-linecap: round; stroke-linejoin: round;" id="ezcGraphLine_23"/><ellipse cx="332.8741" cy="222.2635" rx="3.0000" ry="3.0000" style="fill: #000000; fill-opacity: 1.00; stroke: none;" id="ezcGraphCircle_24"/><ellipse cx="380.2135" cy="217.0000" rx="3.0000" ry="3.0000" style="fill: #000000; fill-opacity: 1.00; stroke: none;" id="ezcGraphCircle_25"/><path d=" M 333.2752,227.8887 L 379.2234,252.0000" style="fill: none; stroke: #000000; stroke-width: 1; stroke-opacity: 1.00; stroke-linecap: round; stroke-linejoin: round;" id="ezcGraphLine_27"/><ellipse cx="333.2752" cy="227.8887" rx="3.0000" ry="3.0000" style="fill: #000000; fill-opacity: 1.00; stroke: none;" id="ezcGraphCircle_28"/><ellipse cx="379.2234" cy="252.0000" rx="3.0000" ry="3.0000" style="fill: #000000; fill-opacity: 1.00; stroke: none;" id="ezcGraphCircle_29"/><path d=" M 333.3252,229.8330 L 367.7542,287.0000" style="fill: none; stroke: #000000; stroke-width: 1; stroke-opacity: 1.00; stroke-linecap: round; stroke-linejoin: round;" id="ezcGraphLine_31"/><ellipse cx="333.3252" cy="229.8330" rx="3.0000" ry="3.0000" style="fill: #000000; fill-opacity: 1.00; stroke: none;" id="ezcGraphCircle_32"/><ellipse cx="367.7542" cy="287.0000" rx="3.0000" ry="3.0000" style="fill: #000000; fill-opacity: 1.00; stroke: none;" id="ezcGraphCircle_33"/><path d=" M 333.3331,230.8055 L 341.6971,322.0000" style="fill: none; stroke: #000000; stroke-width: 1; stroke-opacity: 1.00; stroke-linecap: round; stroke-linejoin: round;" id="ezcGraphLine_35"/><ellipse cx="333.3331" cy="230.8055" rx="3.0000" ry="3.0000" style="fill: #000000; fill-opacity: 1.00; stroke: none;" id="ezcGraphCircle_36"/><ellipse cx="341.6971" cy="322.0000" rx="3.0000" ry="3.0000" style="fill: #000000; fill-opacity: 1.00; stroke: none;" id="ezcGraphCircle_37"/><g id="ezcGraphTextBox_3"><path d=" M 48.1000,42.0000 L 48.1000,0.5000 L 452.4000,0.5000 L 452.4000,42.0000 L 48.1000,42.0000 z " style="fill: #ffffff; fill-opacity: 0.00; stroke: none;" id="ezcGraphPolygon_39"/><text id="ezcGraphTextBox_3_text" x="48.6000" text-length="402.8000px" y="35.0000" style="font-size: 40px; font-family: 'Arial'; fill: #2e3436; fill-opacity: 1.00; stroke: none;">Unsupported Devices</text></g><g id="ezcGraphTextBox_18" style=" cursor: pointer;" onclick="top.location = 'https://linux-hardware.org/?view=computers&amp;type=desktop&amp;f=device_unsupported&amp;v=0'"><path d=" M 20.3103,298.0000 L 20.3103,274.5000 L 126.7503,274.5000 L 126.7503,298.0000 L 20.3103,298.0000 z " style="fill: #ffffff; fill-opacity: 0.00; stroke: none;" id="ezcGraphPolygon_40"/><text id="ezcGraphTextBox_18_text" x="20.8103" text-length="104.9400px" y="293.7000" style="font-size: 22px; font-family: 'Arial'; fill: #2e3436; fill-opacity: 1.00; stroke: none;">0 (86.7%)</text></g><g id="ezcGraphTextBox_22" style=" cursor: pointer;" onclick="top.location = 'https://linux-hardware.org/?view=computers&amp;type=desktop&amp;f=device_unsupported&amp;v=1'"><path d=" M 371.1586,183.0000 L 371.1586,159.5000 L 477.5986,159.5000 L 477.5986,183.0000 L 371.1586,183.0000 z " style="fill: #ffffff; fill-opacity: 0.00; stroke: none;" id="ezcGraphPolygon_41"/><text id="ezcGraphTextBox_22_text" x="371.6586" text-length="104.9400px" y="178.7000" style="font-size: 22px; font-family: 'Arial'; fill: #2e3436; fill-opacity: 1.00; stroke: none;">1 (10.8%)</text></g><g id="ezcGraphTextBox_26" style=" cursor: pointer;" onclick="top.location = 'https://linux-hardware.org/?view=computers&amp;type=desktop&amp;f=device_unsupported&amp;v=2'"><path d=" M 385.7135,229.0000 L 385.7135,205.5000 L 480.4935,205.5000 L 480.4935,229.0000 L 385.7135,229.0000 z " style="fill: #ffffff; fill-opacity: 0.00; stroke: none;" id="ezcGraphPolygon_42"/><text id="ezcGraphTextBox_26_text" x="386.2135" text-length="93.2800px" y="224.7000" style="font-size: 22px; font-family: 'Arial'; fill: #2e3436; fill-opacity: 1.00; stroke: none;">2 (1.7%)</text></g><g id="ezcGraphTextBox_30" style=" cursor: pointer;" onclick="top.location = 'https://linux-hardware.org/?view=computers&amp;type=desktop&amp;f=device_unsupported&amp;v=3'"><path d=" M 384.7234,264.0000 L 384.7234,240.5000 L 479.5034,240.5000 L 479.5034,264.0000 L 384.7234,264.0000 z " style="fill: #ffffff; fill-opacity: 0.00; stroke: none;" id="ezcGraphPolygon_43"/><text id="ezcGraphTextBox_30_text" x="385.2234" text-length="93.2800px" y="259.7000" style="font-size: 22px; font-family: 'Arial'; fill: #2e3436; fill-opacity: 1.00; stroke: none;">3 (0.4%)</text></g><g id="ezcGraphTextBox_34" style=" cursor: pointer;" onclick="top.location = 'https://linux-hardware.org/?view=computers&amp;type=desktop&amp;f=device_unsupported&amp;v=4'"><path d=" M 373.2542,299.0000 L 373.2542,275.5000 L 468.0342,275.5000 L 468.0342,299.0000 L 373.2542,299.0000 z " style="fill: #ffffff; fill-opacity: 0.00; stroke: none;" id="ezcGraphPolygon_44"/><text id="ezcGraphTextBox_34_text" x="373.7542" text-length="93.2800px" y="294.7000" style="font-size: 22px; font-family: 'Arial'; fill: #2e3436; fill-opacity: 1.00; stroke: none;">4 (0.3%)</text></g><g id="ezcGraphTextBox_38"><path d=" M 347.1971,334.0000 L 347.1971,310.5000 L 500.2771,310.5000 L 500.2771,334.0000 L 347.1971,334.0000 z " style="fill: #ffffff; fill-opacity: 0.00; stroke: none;" id="ezcGraphPolygon_45"/><text id="ezcGraphTextBox_38_text" x="347.6971" text-length="151.5800px" y="329.7000" style="font-size: 22px; font-family: 'Arial'; fill: #2e3436; fill-opacity: 1.00; stroke: none;">Others (0.1%)</text></g></g></svg>
