<?xml version="1.0"?>
<svg xmlns="http://www.w3.org/2000/svg" width="500" height="420" version="1.0" id="ezcGraph"><defs/><g id="ezcGraphChart" color-rendering="optimizeQuality" shape-rendering="geometricPrecision" text-rendering="optimizeLegibility"><path d=" M 0.0000,420.0000 L 0.0000,0.0000 L 500.0000,0.0000 L 500.0000,420.0000 L 0.0000,420.0000 z " style="fill: #eeeeec; fill-opacity: 1.00; stroke: none;" id="ezcGraphPolygon_1"/><path d=" M 0.0000,42.0000 L 0.0000,0.0000 L 500.0000,0.0000 L 500.0000,42.0000 L 0.0000,42.0000 z " style="fill: #000000; fill-opacity: 0.00; stroke: none;" id="ezcGraphPolygon_2"/><path d="M 252.28,243.29 L 364.78,243.29 A 112.50,112.50 0 0,1 147.25,283.60 z" style="fill: #3465a4; fill-opacity: 1.00; stroke: none; cursor: pointer;" id="ezcGraphCircleSector_4" onclick="top.location = 'https://linux-hardware.org/?view=computers&amp;f=drive_kind&amp;v=HDD&amp;c=Slovakia'"/><path d="M 252.37,243.79 L 364.28,243.79 A 112.00,112.00 0 0,1 147.89,283.89 z" style="fill: none; stroke: #1a3352; stroke-width: 1; stroke-opacity: 1.00; stroke-linecap: round; stroke-linejoin: round;" id="ezcGraphCircleSector_5"/><path d="M 250.00,231.00 L 144.97,271.31 A 112.50,112.50 0 0,1 261.79,119.12 z" style="fill: #4e9a06; fill-opacity: 1.00; stroke: none; cursor: pointer;" id="ezcGraphCircleSector_6" onclick="top.location = 'https://linux-hardware.org/?view=computers&amp;f=drive_kind&amp;v=SSD&amp;c=Slovakia'"/><path d="M 249.53,230.64 L 145.26,270.66 A 112.00,112.00 0 0,1 261.24,119.56 z" style="fill: none; stroke: #274d03; stroke-width: 1; stroke-opacity: 1.00; stroke-linecap: round; stroke-linejoin: round;" id="ezcGraphCircleSector_7"/><path d="M 250.00,231.00 L 261.79,119.12 A 112.50,112.50 0 0,1 353.10,185.98 z" style="fill: #cc0000; fill-opacity: 1.00; stroke: none; cursor: pointer;" id="ezcGraphCircleSector_8" onclick="top.location = 'https://linux-hardware.org/?view=computers&amp;f=drive_kind&amp;v=NVMe&amp;c=Slovakia'"/><path d="M 250.59,230.20 L 262.24,119.67 A 112.00,112.00 0 0,1 352.44,185.72 z" style="fill: none; stroke: #660000; stroke-width: 1; stroke-opacity: 1.00; stroke-linecap: round; stroke-linejoin: round;" id="ezcGraphCircleSector_9"/><path d="M 250.00,231.00 L 353.10,185.98 A 112.50,112.50 0 0,1 362.04,220.82 z" style="fill: #edd400; fill-opacity: 1.00; stroke: none; cursor: pointer;" id="ezcGraphCircleSector_10" onclick="top.location = 'https://linux-hardware.org/?view=computers&amp;f=drive_kind&amp;v=MMC&amp;c=Slovakia'"/><path d="M 253.03,230.22 L 352.84,186.64 A 112.00,112.00 0 0,1 361.50,220.37 z" style="fill: none; stroke: #776a00; stroke-width: 1; stroke-opacity: 1.00; stroke-linecap: round; stroke-linejoin: round;" id="ezcGraphCircleSector_11"/><path d="M 250.00,231.00 L 362.04,220.82 A 112.50,112.50 0 0,1 362.50,231.00 z" style="fill: #75505b; fill-opacity: 1.00; stroke: none; cursor: pointer;" id="ezcGraphCircleSector_12" onclick="top.location = 'https://linux-hardware.org/?view=computers&amp;f=drive_kind&amp;v=&amp;c=Slovakia'"/><path d="M 261.03,230.50 L 361.59,221.37 A 112.00,112.00 0 0,1 362.00,230.50 z" style="fill: none; stroke: #3b282e; stroke-width: 1; stroke-opacity: 1.00; stroke-linecap: round; stroke-linejoin: round;" id="ezcGraphCircleSector_13"/><path d=" M 183.8959,180.2585 L 145.5317,154.0000" style="fill: none; stroke: #000000; stroke-width: 1; stroke-opacity: 1.00; stroke-linecap: round; stroke-linejoin: round;" id="ezcGraphLine_14"/><ellipse cx="183.8959" cy="180.2585" rx="3.0000" ry="3.0000" style="fill: #000000; fill-opacity: 1.00; stroke: none;" id="ezcGraphCircle_15"/><ellipse cx="145.5317" cy="154.0000" rx="3.0000" ry="3.0000" style="fill: #000000; fill-opacity: 1.00; stroke: none;" id="ezcGraphCircle_16"/><path d=" M 299.2316,163.7639 L 329.6478,130.0000" style="fill: none; stroke: #000000; stroke-width: 1; stroke-opacity: 1.00; stroke-linecap: round; stroke-linejoin: round;" id="ezcGraphLine_18"/><ellipse cx="299.2316" cy="163.7639" rx="3.0000" ry="3.0000" style="fill: #000000; fill-opacity: 1.00; stroke: none;" id="ezcGraphCircle_19"/><ellipse cx="329.6478" cy="130.0000" rx="3.0000" ry="3.0000" style="fill: #000000; fill-opacity: 1.00; stroke: none;" id="ezcGraphCircle_20"/><path d=" M 330.7187,210.2891 L 376.8346,199.0000" style="fill: none; stroke: #000000; stroke-width: 1; stroke-opacity: 1.00; stroke-linecap: round; stroke-linejoin: round;" id="ezcGraphLine_22"/><ellipse cx="330.7187" cy="210.2891" rx="3.0000" ry="3.0000" style="fill: #000000; fill-opacity: 1.00; stroke: none;" id="ezcGraphCircle_23"/><ellipse cx="376.8346" cy="199.0000" rx="3.0000" ry="3.0000" style="fill: #000000; fill-opacity: 1.00; stroke: none;" id="ezcGraphCircle_24"/><path d=" M 333.2479,227.2270 L 380.8789,236.5000" style="fill: none; stroke: #000000; stroke-width: 1; stroke-opacity: 1.00; stroke-linecap: round; stroke-linejoin: round;" id="ezcGraphLine_26"/><ellipse cx="333.2479" cy="227.2270" rx="3.0000" ry="3.0000" style="fill: #000000; fill-opacity: 1.00; stroke: none;" id="ezcGraphCircle_27"/><ellipse cx="380.8789" cy="236.5000" rx="3.0000" ry="3.0000" style="fill: #000000; fill-opacity: 1.00; stroke: none;" id="ezcGraphCircle_28"/><path d=" M 267.4610,325.2292 L 267.4610,366.0000" style="fill: none; stroke: #000000; stroke-width: 1; stroke-opacity: 1.00; stroke-linecap: round; stroke-linejoin: round;" id="ezcGraphLine_30"/><ellipse cx="267.4610" cy="325.2292" rx="3.0000" ry="3.0000" style="fill: #000000; fill-opacity: 1.00; stroke: none;" id="ezcGraphCircle_31"/><ellipse cx="267.4610" cy="366.0000" rx="3.0000" ry="3.0000" style="fill: #000000; fill-opacity: 1.00; stroke: none;" id="ezcGraphCircle_32"/><g id="ezcGraphTextBox_3"><path d=" M 143.5000,42.0000 L 143.5000,0.5000 L 357.0000,0.5000 L 357.0000,42.0000 L 143.5000,42.0000 z " style="fill: #ffffff; fill-opacity: 0.00; stroke: none;" id="ezcGraphPolygon_34"/><text id="ezcGraphTextBox_3_text" x="144.0000" text-length="212.0000px" y="35.0000" style="font-size: 40px; font-family: 'Arial'; fill: #2e3436; fill-opacity: 1.00; stroke: none;">Drive Kind</text></g><g id="ezcGraphTextBox_17" style=" cursor: pointer;" onclick="top.location = 'https://linux-hardware.org/?view=computers&amp;f=drive_kind&amp;v=SSD&amp;c=Slovakia'"><path d=" M 39.9217,163.5000 L 39.9217,145.0000 L 140.5317,145.0000 L 140.5317,163.5000 L 39.9217,163.5000 z " style="fill: #ffffff; fill-opacity: 0.00; stroke: none;" id="ezcGraphPolygon_35"/><text id="ezcGraphTextBox_17_text" x="40.4217" text-length="99.1100px" y="159.9500" style="font-size: 17px; font-family: 'Arial'; fill: #2e3436; fill-opacity: 1.00; stroke: none;">SSD (32.5%)</text></g><g id="ezcGraphTextBox_21" style=" cursor: pointer;" onclick="top.location = 'https://linux-hardware.org/?view=computers&amp;f=drive_kind&amp;v=NVMe&amp;c=Slovakia'"><path d=" M 335.1478,139.5000 L 335.1478,121.0000 L 444.7678,121.0000 L 444.7678,139.5000 L 335.1478,139.5000 z " style="fill: #ffffff; fill-opacity: 0.00; stroke: none;" id="ezcGraphPolygon_36"/><text id="ezcGraphTextBox_21_text" x="335.6478" text-length="108.1200px" y="135.9500" style="font-size: 17px; font-family: 'Arial'; fill: #2e3436; fill-opacity: 1.00; stroke: none;">NVMe (16.8%)</text></g><g id="ezcGraphTextBox_25" style=" cursor: pointer;" onclick="top.location = 'https://linux-hardware.org/?view=computers&amp;f=drive_kind&amp;v=MMC&amp;c=Slovakia'"><path d=" M 382.3346,208.5000 L 382.3346,190.0000 L 473.9346,190.0000 L 473.9346,208.5000 L 382.3346,208.5000 z " style="fill: #ffffff; fill-opacity: 0.00; stroke: none;" id="ezcGraphPolygon_37"/><text id="ezcGraphTextBox_25_text" x="382.8346" text-length="90.1000px" y="204.9500" style="font-size: 17px; font-family: 'Arial'; fill: #2e3436; fill-opacity: 1.00; stroke: none;">MMC (5.1%)</text></g><g id="ezcGraphTextBox_29" style=" cursor: pointer;" onclick="top.location = 'https://linux-hardware.org/?view=computers&amp;f=drive_kind&amp;v=&amp;c=Slovakia'"><path d=" M 386.3789,254.5500 L 386.3789,218.9500 L 450.9489,218.9500 L 450.9489,254.5500 L 386.3789,254.5500 z " style="fill: #ffffff; fill-opacity: 0.00; stroke: none;" id="ezcGraphPolygon_38"/><text id="ezcGraphTextBox_29_text" x="386.8789" text-length="63.0700px" y="233.9000" style="font-size: 17px; font-family: 'Arial'; fill: #2e3436; fill-opacity: 1.00; stroke: none;">Unknown</text><text id="ezcGraphTextBox_29_text" x="386.8789" text-length="54.0600px" y="252.6000" style="font-size: 17px; font-family: 'Arial'; fill: #2e3436; fill-opacity: 1.00; stroke: none;">(1.4%)</text></g><g id="ezcGraphTextBox_33" style=" cursor: pointer;" onclick="top.location = 'https://linux-hardware.org/?view=computers&amp;f=drive_kind&amp;v=HDD&amp;c=Slovakia'"><path d=" M 272.9610,375.5000 L 272.9610,357.0000 L 373.5710,357.0000 L 373.5710,375.5000 L 272.9610,375.5000 z " style="fill: #ffffff; fill-opacity: 0.00; stroke: none;" id="ezcGraphPolygon_39"/><text id="ezcGraphTextBox_33_text" x="273.4610" text-length="99.1100px" y="371.9500" style="font-size: 17px; font-family: 'Arial'; fill: #2e3436; fill-opacity: 1.00; stroke: none;">HDD (44.2%)</text></g></g></svg>
