<?xml version="1.0"?>
<svg xmlns="http://www.w3.org/2000/svg" width="500" height="420" version="1.0" id="ezcGraph"><defs/><g id="ezcGraphChart" color-rendering="optimizeQuality" shape-rendering="geometricPrecision" text-rendering="optimizeLegibility"><path d=" M 0.0000,420.0000 L 0.0000,0.0000 L 500.0000,0.0000 L 500.0000,420.0000 L 0.0000,420.0000 z " style="fill: #eeeeec; fill-opacity: 1.00; stroke: none;" id="ezcGraphPolygon_1"/><path d=" M 0.0000,42.0000 L 0.0000,0.0000 L 500.0000,0.0000 L 500.0000,42.0000 L 0.0000,42.0000 z " style="fill: #000000; fill-opacity: 0.00; stroke: none;" id="ezcGraphPolygon_2"/><path d="M 245.80,242.77 L 358.30,242.77 A 112.50,112.50 0 1,1 158.66,171.63 z" style="fill: #3465a4; fill-opacity: 1.00; stroke: none; cursor: pointer;" id="ezcGraphCircleSector_4" onclick="top.location = 'https://linux-hardware.org/?view=computers&amp;f=os_part_scheme&amp;v=&amp;c=Argentina'"/><path d="M 245.63,243.27 L 357.80,243.27 A 112.00,112.00 0 1,1 158.73,172.33 z" style="fill: none; stroke: #1a3352; stroke-width: 1; stroke-opacity: 1.00; stroke-linecap: round; stroke-linejoin: round;" id="ezcGraphCircleSector_5"/><path d="M 250.00,231.00 L 162.85,159.85 A 112.50,112.50 0 0,1 332.53,154.54 z" style="fill: #4e9a06; fill-opacity: 1.00; stroke: none; cursor: pointer;" id="ezcGraphCircleSector_6" onclick="top.location = 'https://linux-hardware.org/?view=computers&amp;f=os_part_scheme&amp;v=GPT&amp;c=Argentina'"/><path d="M 249.98,230.34 L 163.56,159.78 A 112.00,112.00 0 0,1 331.82,154.52 z" style="fill: none; stroke: #274d03; stroke-width: 1; stroke-opacity: 1.00; stroke-linecap: round; stroke-linejoin: round;" id="ezcGraphCircleSector_7"/><path d="M 250.00,231.00 L 332.53,154.54 A 112.50,112.50 0 0,1 362.50,231.00 z" style="fill: #cc0000; fill-opacity: 1.00; stroke: none; cursor: pointer;" id="ezcGraphCircleSector_8" onclick="top.location = 'https://linux-hardware.org/?view=computers&amp;f=os_part_scheme&amp;v=MBR&amp;c=Argentina'"/><path d="M 251.28,230.50 L 332.50,155.25 A 112.00,112.00 0 0,1 362.00,230.50 z" style="fill: none; stroke: #660000; stroke-width: 1; stroke-opacity: 1.00; stroke-linecap: round; stroke-linejoin: round;" id="ezcGraphCircleSector_9"/><path d=" M 247.3922,147.7075 L 244.0000,106.0000" style="fill: none; stroke: #000000; stroke-width: 1; stroke-opacity: 1.00; stroke-linecap: round; stroke-linejoin: round;" id="ezcGraphLine_10"/><ellipse cx="247.3922" cy="147.7075" rx="3.0000" ry="3.0000" style="fill: #000000; fill-opacity: 1.00; stroke: none;" id="ezcGraphCircle_11"/><ellipse cx="244.0000" cy="106.0000" rx="3.0000" ry="3.0000" style="fill: #000000; fill-opacity: 1.00; stroke: none;" id="ezcGraphCircle_12"/><path d=" M 217.8306,321.2727 L 217.8306,360.0000" style="fill: none; stroke: #000000; stroke-width: 1; stroke-opacity: 1.00; stroke-linecap: round; stroke-linejoin: round;" id="ezcGraphLine_14"/><ellipse cx="217.8306" cy="321.2727" rx="3.0000" ry="3.0000" style="fill: #000000; fill-opacity: 1.00; stroke: none;" id="ezcGraphCircle_15"/><ellipse cx="217.8306" cy="360.0000" rx="3.0000" ry="3.0000" style="fill: #000000; fill-opacity: 1.00; stroke: none;" id="ezcGraphCircle_16"/><path d=" M 327.5842,200.5838 L 372.2282,185.0000" style="fill: none; stroke: #000000; stroke-width: 1; stroke-opacity: 1.00; stroke-linecap: round; stroke-linejoin: round;" id="ezcGraphLine_18"/><ellipse cx="327.5842" cy="200.5838" rx="3.0000" ry="3.0000" style="fill: #000000; fill-opacity: 1.00; stroke: none;" id="ezcGraphCircle_19"/><ellipse cx="372.2282" cy="185.0000" rx="3.0000" ry="3.0000" style="fill: #000000; fill-opacity: 1.00; stroke: none;" id="ezcGraphCircle_20"/><g id="ezcGraphTextBox_3"><path d=" M 122.3000,42.0000 L 122.3000,0.5000 L 378.2000,0.5000 L 378.2000,42.0000 L 122.3000,42.0000 z " style="fill: #ffffff; fill-opacity: 0.00; stroke: none;" id="ezcGraphPolygon_22"/><text id="ezcGraphTextBox_3_text" x="122.8000" text-length="254.4000px" y="35.0000" style="font-size: 40px; font-family: 'Arial'; fill: #2e3436; fill-opacity: 1.00; stroke: none;">Part. scheme</text></g><g id="ezcGraphTextBox_13" style=" cursor: pointer;" onclick="top.location = 'https://linux-hardware.org/?view=computers&amp;f=os_part_scheme&amp;v=GPT&amp;c=Argentina'"><path d=" M 116.2360,117.4000 L 116.2360,95.1000 L 239.0000,95.1000 L 239.0000,117.4000 L 116.2360,117.4000 z " style="fill: #ffffff; fill-opacity: 0.00; stroke: none;" id="ezcGraphPolygon_23"/><text id="ezcGraphTextBox_13_text" x="116.7360" text-length="121.2640px" y="113.2800" style="font-size: 20px; font-family: 'Arial'; fill: #2e3436; fill-opacity: 1.00; stroke: none;">GPT (27.2%)</text></g><g id="ezcGraphTextBox_17" style=" cursor: pointer;" onclick="top.location = 'https://linux-hardware.org/?view=computers&amp;f=os_part_scheme&amp;v=&amp;c=Argentina'"><path d=" M 45.9706,371.4000 L 45.9706,349.1000 L 212.8306,349.1000 L 212.8306,371.4000 L 45.9706,371.4000 z " style="fill: #ffffff; fill-opacity: 0.00; stroke: none;" id="ezcGraphPolygon_24"/><text id="ezcGraphTextBox_17_text" x="46.4706" text-length="165.3600px" y="367.2800" style="font-size: 20px; font-family: 'Arial'; fill: #2e3436; fill-opacity: 1.00; stroke: none;">Unknown (60.9%)</text></g><g id="ezcGraphTextBox_21" style=" cursor: pointer;" onclick="top.location = 'https://linux-hardware.org/?view=computers&amp;f=os_part_scheme&amp;v=MBR&amp;c=Argentina'"><path d=" M 377.7282,196.4000 L 377.7282,174.1000 L 500.4922,174.1000 L 500.4922,196.4000 L 377.7282,196.4000 z " style="fill: #ffffff; fill-opacity: 0.00; stroke: none;" id="ezcGraphPolygon_25"/><text id="ezcGraphTextBox_21_text" x="378.2282" text-length="121.2640px" y="192.2800" style="font-size: 20px; font-family: 'Arial'; fill: #2e3436; fill-opacity: 1.00; stroke: none;">MBR (11.9%)</text></g></g></svg>
