<?xml version="1.0"?>
<svg xmlns="http://www.w3.org/2000/svg" width="500" height="420" version="1.0" id="ezcGraph"><defs/><g id="ezcGraphChart" color-rendering="optimizeQuality" shape-rendering="geometricPrecision" text-rendering="optimizeLegibility"><path d=" M 0.0000,420.0000 L 0.0000,0.0000 L 500.0000,0.0000 L 500.0000,420.0000 L 0.0000,420.0000 z " style="fill: #eeeeec; fill-opacity: 1.00; stroke: none;" id="ezcGraphPolygon_1"/><path d=" M 0.0000,42.0000 L 0.0000,0.0000 L 500.0000,0.0000 L 500.0000,42.0000 L 0.0000,42.0000 z " style="fill: #000000; fill-opacity: 0.00; stroke: none;" id="ezcGraphPolygon_2"/><path d="M 259.82,238.74 L 372.32,238.74 A 112.50,112.50 0 0,1 286.08,348.13 z" style="fill: #3465a4; fill-opacity: 1.00; stroke: none; cursor: pointer;" id="ezcGraphCircleSector_4" onclick="top.location = 'https://linux-hardware.org/?view=computers&amp;f=node_location&amp;v=USA&amp;r=centos-8'"/><path d="M 260.45,239.24 L 371.82,239.24 A 112.00,112.00 0 0,1 286.45,347.53 z" style="fill: none; stroke: #1a3352; stroke-width: 1; stroke-opacity: 1.00; stroke-linecap: round; stroke-linejoin: round;" id="ezcGraphCircleSector_5"/><path d="M 250.00,231.00 L 276.26,340.39 A 112.50,112.50 0 0,1 206.95,334.94 z" style="fill: #4e9a06; fill-opacity: 1.00; stroke: none; cursor: pointer;" id="ezcGraphCircleSector_6" onclick="top.location = 'https://linux-hardware.org/?view=computers&amp;f=node_location&amp;v=Germany&amp;r=centos-8'"/><path d="M 249.87,232.61 L 275.66,340.02 A 112.00,112.00 0 0,1 207.60,334.67 z" style="fill: none; stroke: #274d03; stroke-width: 1; stroke-opacity: 1.00; stroke-linecap: round; stroke-linejoin: round;" id="ezcGraphCircleSector_7"/><path d="M 250.00,231.00 L 206.95,334.94 A 112.50,112.50 0 0,1 176.94,316.55 z" style="fill: #cc0000; fill-opacity: 1.00; stroke: none; cursor: pointer;" id="ezcGraphCircleSector_8" onclick="top.location = 'https://linux-hardware.org/?view=computers&amp;f=node_location&amp;v=India&amp;r=centos-8'"/><path d="M 248.33,233.73 L 206.68,334.28 A 112.00,112.00 0 0,1 177.64,316.49 z" style="fill: none; stroke: #660000; stroke-width: 1; stroke-opacity: 1.00; stroke-linecap: round; stroke-linejoin: round;" id="ezcGraphCircleSector_9"/><path d="M 250.00,231.00 L 176.94,316.55 A 112.50,112.50 0 0,1 154.08,289.78 z" style="fill: #edd400; fill-opacity: 1.00; stroke: none; cursor: pointer;" id="ezcGraphCircleSector_10" onclick="top.location = 'https://linux-hardware.org/?view=computers&amp;f=node_location&amp;v=Brazil&amp;r=centos-8'"/><path d="M 247.57,233.08 L 176.88,315.84 A 112.00,112.00 0 0,1 154.77,289.95 z" style="fill: none; stroke: #776a00; stroke-width: 1; stroke-opacity: 1.00; stroke-linecap: round; stroke-linejoin: round;" id="ezcGraphCircleSector_11"/><path d="M 250.00,231.00 L 154.08,289.78 A 112.50,112.50 0 0,1 141.15,259.41 z" style="fill: #75505b; fill-opacity: 1.00; stroke: none; cursor: pointer;" id="ezcGraphCircleSector_12" onclick="top.location = 'https://linux-hardware.org/?view=computers&amp;f=node_location&amp;v=UK&amp;r=centos-8'"/><path d="M 246.86,232.33 L 154.24,289.09 A 112.00,112.00 0 0,1 141.76,259.76 z" style="fill: none; stroke: #3b282e; stroke-width: 1; stroke-opacity: 1.00; stroke-linecap: round; stroke-linejoin: round;" id="ezcGraphCircleSector_13"/><path d="M 250.00,231.00 L 141.15,259.41 A 112.50,112.50 0 1,1 362.50,231.00 z" style="fill: #f57900; fill-opacity: 1.00; stroke: none;" id="ezcGraphCircleSector_14"/><path d="M 249.94,230.50 L 141.50,258.80 A 112.00,112.00 0 1,1 362.00,230.50 z" style="fill: none; stroke: #7b3d00; stroke-width: 1; stroke-opacity: 1.00; stroke-linecap: round; stroke-linejoin: round;" id="ezcGraphCircleSector_15"/><path d=" M 239.3932,148.3444 L 228.2203,107.0000" style="fill: none; stroke: #000000; stroke-width: 1; stroke-opacity: 1.00; stroke-linecap: round; stroke-linejoin: round;" id="ezcGraphLine_16"/><ellipse cx="239.3932" cy="148.3444" rx="3.0000" ry="3.0000" style="fill: #000000; fill-opacity: 1.00; stroke: none;" id="ezcGraphCircle_17"/><ellipse cx="228.2203" cy="107.0000" rx="3.0000" ry="3.0000" style="fill: #000000; fill-opacity: 1.00; stroke: none;" id="ezcGraphCircle_18"/><path d=" M 173.3268,263.6446 L 128.5834,279.0000" style="fill: none; stroke: #000000; stroke-width: 1; stroke-opacity: 1.00; stroke-linecap: round; stroke-linejoin: round;" id="ezcGraphLine_20"/><ellipse cx="173.3268" cy="263.6446" rx="3.0000" ry="3.0000" style="fill: #000000; fill-opacity: 1.00; stroke: none;" id="ezcGraphCircle_21"/><ellipse cx="128.5834" cy="279.0000" rx="3.0000" ry="3.0000" style="fill: #000000; fill-opacity: 1.00; stroke: none;" id="ezcGraphCircle_22"/><path d=" M 186.6328,285.1207 L 150.5334,314.0000" style="fill: none; stroke: #000000; stroke-width: 1; stroke-opacity: 1.00; stroke-linecap: round; stroke-linejoin: round;" id="ezcGraphLine_24"/><ellipse cx="186.6328" cy="285.1207" rx="3.0000" ry="3.0000" style="fill: #000000; fill-opacity: 1.00; stroke: none;" id="ezcGraphCircle_25"/><ellipse cx="150.5334" cy="314.0000" rx="3.0000" ry="3.0000" style="fill: #000000; fill-opacity: 1.00; stroke: none;" id="ezcGraphCircle_26"/><path d=" M 206.4585,302.0533 L 202.7568,349.0000" style="fill: none; stroke: #000000; stroke-width: 1; stroke-opacity: 1.00; stroke-linecap: round; stroke-linejoin: round;" id="ezcGraphLine_28"/><ellipse cx="206.4585" cy="302.0533" rx="3.0000" ry="3.0000" style="fill: #000000; fill-opacity: 1.00; stroke: none;" id="ezcGraphCircle_29"/><ellipse cx="202.7568" cy="349.0000" rx="3.0000" ry="3.0000" style="fill: #000000; fill-opacity: 1.00; stroke: none;" id="ezcGraphCircle_30"/><path d=" M 243.4617,314.0764 L 243.4617,384.0000" style="fill: none; stroke: #000000; stroke-width: 1; stroke-opacity: 1.00; stroke-linecap: round; stroke-linejoin: round;" id="ezcGraphLine_32"/><ellipse cx="243.4617" cy="314.0764" rx="3.0000" ry="3.0000" style="fill: #000000; fill-opacity: 1.00; stroke: none;" id="ezcGraphCircle_33"/><ellipse cx="243.4617" cy="384.0000" rx="3.0000" ry="3.0000" style="fill: #000000; fill-opacity: 1.00; stroke: none;" id="ezcGraphCircle_34"/><path d=" M 325.2595,290.3298 L 347.6515,316.0000" style="fill: none; stroke: #000000; stroke-width: 1; stroke-opacity: 1.00; stroke-linecap: round; stroke-linejoin: round;" id="ezcGraphLine_36"/><ellipse cx="325.2595" cy="290.3298" rx="3.0000" ry="3.0000" style="fill: #000000; fill-opacity: 1.00; stroke: none;" id="ezcGraphCircle_37"/><ellipse cx="347.6515" cy="316.0000" rx="3.0000" ry="3.0000" style="fill: #000000; fill-opacity: 1.00; stroke: none;" id="ezcGraphCircle_38"/><g id="ezcGraphTextBox_3"><path d=" M 175.3000,42.0000 L 175.3000,0.5000 L 325.2000,0.5000 L 325.2000,42.0000 L 175.3000,42.0000 z " style="fill: #ffffff; fill-opacity: 0.00; stroke: none;" id="ezcGraphPolygon_40"/><text id="ezcGraphTextBox_3_text" x="175.8000" text-length="148.4000px" y="35.0000" style="font-size: 40px; font-family: 'Arial'; fill: #2e3436; fill-opacity: 1.00; stroke: none;">Country</text></g><g id="ezcGraphTextBox_19"><path d=" M 73.3203,118.0000 L 73.3203,96.5000 L 223.2203,96.5000 L 223.2203,118.0000 L 73.3203,118.0000 z " style="fill: #ffffff; fill-opacity: 0.00; stroke: none;" id="ezcGraphPolygon_41"/><text id="ezcGraphTextBox_19_text" x="73.8203" text-length="148.4000px" y="114.0000" style="font-size: 20px; font-family: 'Arial'; fill: #2e3436; fill-opacity: 1.00; stroke: none;">Others (54.1%)</text></g><g id="ezcGraphTextBox_23" style=" cursor: pointer;" onclick="top.location = 'https://linux-hardware.org/?view=computers&amp;f=node_location&amp;v=UK&amp;r=centos-8'"><path d=" M 26.6834,290.0000 L 26.6834,268.5000 L 123.5834,268.5000 L 123.5834,290.0000 L 26.6834,290.0000 z " style="fill: #ffffff; fill-opacity: 0.00; stroke: none;" id="ezcGraphPolygon_42"/><text id="ezcGraphTextBox_23_text" x="27.1834" text-length="95.4000px" y="286.0000" style="font-size: 20px; font-family: 'Arial'; fill: #2e3436; fill-opacity: 1.00; stroke: none;">UK (4.7%)</text></g><g id="ezcGraphTextBox_27" style=" cursor: pointer;" onclick="top.location = 'https://linux-hardware.org/?view=computers&amp;f=node_location&amp;v=Brazil&amp;r=centos-8'"><path d=" M 6.2334,325.0000 L 6.2334,303.5000 L 145.5334,303.5000 L 145.5334,325.0000 L 6.2334,325.0000 z " style="fill: #ffffff; fill-opacity: 0.00; stroke: none;" id="ezcGraphPolygon_43"/><text id="ezcGraphTextBox_27_text" x="6.7334" text-length="137.8000px" y="321.0000" style="font-size: 20px; font-family: 'Arial'; fill: #2e3436; fill-opacity: 1.00; stroke: none;">Brazil (5.0%)</text></g><g id="ezcGraphTextBox_31" style=" cursor: pointer;" onclick="top.location = 'https://linux-hardware.org/?view=computers&amp;f=node_location&amp;v=India&amp;r=centos-8'"><path d=" M 69.0568,360.0000 L 69.0568,338.5000 L 197.7568,338.5000 L 197.7568,360.0000 L 69.0568,360.0000 z " style="fill: #ffffff; fill-opacity: 0.00; stroke: none;" id="ezcGraphPolygon_44"/><text id="ezcGraphTextBox_31_text" x="69.5568" text-length="127.2000px" y="356.0000" style="font-size: 20px; font-family: 'Arial'; fill: #2e3436; fill-opacity: 1.00; stroke: none;">India (5.0%)</text></g><g id="ezcGraphTextBox_35" style=" cursor: pointer;" onclick="top.location = 'https://linux-hardware.org/?view=computers&amp;f=node_location&amp;v=Germany&amp;r=centos-8'"><path d=" M 77.9617,395.0000 L 77.9617,373.5000 L 238.4617,373.5000 L 238.4617,395.0000 L 77.9617,395.0000 z " style="fill: #ffffff; fill-opacity: 0.00; stroke: none;" id="ezcGraphPolygon_45"/><text id="ezcGraphTextBox_35_text" x="78.4617" text-length="159.0000px" y="391.0000" style="font-size: 20px; font-family: 'Arial'; fill: #2e3436; fill-opacity: 1.00; stroke: none;">Germany (10.0%)</text></g><g id="ezcGraphTextBox_39" style=" cursor: pointer;" onclick="top.location = 'https://linux-hardware.org/?view=computers&amp;f=node_location&amp;v=USA&amp;r=centos-8'"><path d=" M 353.1515,327.0000 L 353.1515,305.5000 L 471.2515,305.5000 L 471.2515,327.0000 L 353.1515,327.0000 z " style="fill: #ffffff; fill-opacity: 0.00; stroke: none;" id="ezcGraphPolygon_46"/><text id="ezcGraphTextBox_39_text" x="353.6515" text-length="116.6000px" y="323.0000" style="font-size: 20px; font-family: 'Arial'; fill: #2e3436; fill-opacity: 1.00; stroke: none;">USA (21.2%)</text></g></g></svg>
