<?xml version="1.0"?>
<svg xmlns="http://www.w3.org/2000/svg" width="500" height="420" version="1.0" id="ezcGraph"><defs/><g id="ezcGraphChart" color-rendering="optimizeQuality" shape-rendering="geometricPrecision" text-rendering="optimizeLegibility"><path d=" M 0.0000,420.0000 L 0.0000,0.0000 L 500.0000,0.0000 L 500.0000,420.0000 L 0.0000,420.0000 z " style="fill: #eeeeec; fill-opacity: 1.00; stroke: none;" id="ezcGraphPolygon_1"/><path d=" M 0.0000,42.0000 L 0.0000,0.0000 L 500.0000,0.0000 L 500.0000,42.0000 L 0.0000,42.0000 z " style="fill: #000000; fill-opacity: 0.00; stroke: none;" id="ezcGraphPolygon_2"/><path d="M 252.20,243.31 L 364.70,243.31 A 112.50,112.50 0 0,1 146.65,282.24 z" style="fill: #3465a4; fill-opacity: 1.00; stroke: none; cursor: pointer;" id="ezcGraphCircleSector_4" onclick="top.location = 'https://linux-hardware.org/?view=computers&amp;type=notebook&amp;f=net_ethernet_model&amp;v=Realtek+Semiconductor+RTL8111%2F8168%2F8211%2F8411+PCI+Express+Gigabit+Ethernet+Controller&amp;c=Philippines'"/><path d="M 252.29,243.81 L 364.20,243.81 A 112.00,112.00 0 0,1 147.29,282.53 z" style="fill: none; stroke: #1a3352; stroke-width: 1; stroke-opacity: 1.00; stroke-linecap: round; stroke-linejoin: round;" id="ezcGraphCircleSector_5"/><path d="M 250.00,231.00 L 144.45,269.93 A 112.50,112.50 0 0,1 144.96,190.72 z" style="fill: #4e9a06; fill-opacity: 1.00; stroke: none; cursor: pointer;" id="ezcGraphCircleSector_6" onclick="top.location = 'https://linux-hardware.org/?view=computers&amp;type=notebook&amp;f=net_ethernet_model&amp;v=Realtek+Semiconductor+RTL810xE+PCI+Express+Fast+Ethernet+controller&amp;c=Philippines'"/><path d="M 248.58,230.99 L 144.75,269.29 A 112.00,112.00 0 0,1 145.25,191.36 z" style="fill: none; stroke: #274d03; stroke-width: 1; stroke-opacity: 1.00; stroke-linecap: round; stroke-linejoin: round;" id="ezcGraphCircleSector_7"/><path d="M 250.00,231.00 L 144.96,190.72 A 112.50,112.50 0 0,1 162.14,160.74 z" style="fill: #cc0000; fill-opacity: 1.00; stroke: none; cursor: pointer;" id="ezcGraphCircleSector_8" onclick="top.location = 'https://linux-hardware.org/?view=computers&amp;type=notebook&amp;f=net_ethernet_model&amp;v=Intel+82579LM+Gigabit+Network+Connection+%28Lewisville%29&amp;c=Philippines'"/><path d="M 247.18,229.38 L 145.61,190.43 A 112.00,112.00 0 0,1 162.22,161.44 z" style="fill: none; stroke: #660000; stroke-width: 1; stroke-opacity: 1.00; stroke-linecap: round; stroke-linejoin: round;" id="ezcGraphCircleSector_9"/><path d="M 250.00,231.00 L 162.14,160.74 A 112.50,112.50 0 0,1 172.91,149.06 z" style="fill: #edd400; fill-opacity: 1.00; stroke: none; cursor: pointer;" id="ezcGraphCircleSector_10" onclick="top.location = 'https://linux-hardware.org/?view=computers&amp;type=notebook&amp;f=net_ethernet_model&amp;v=Realtek+Semiconductor+Killer+E2600+GbE+Controller&amp;c=Philippines'"/><path d="M 244.80,226.20 L 162.84,160.66 A 112.00,112.00 0 0,1 172.89,149.77 z" style="fill: none; stroke: #776a00; stroke-width: 1; stroke-opacity: 1.00; stroke-linecap: round; stroke-linejoin: round;" id="ezcGraphCircleSector_11"/><path d="M 250.00,231.00 L 172.91,149.06 A 112.50,112.50 0 0,1 182.88,140.71 z" style="fill: #75505b; fill-opacity: 1.00; stroke: none; cursor: pointer;" id="ezcGraphCircleSector_12" onclick="top.location = 'https://linux-hardware.org/?view=computers&amp;type=notebook&amp;f=net_ethernet_model&amp;v=Realtek+Semiconductor+RTL8153+Gigabit+Ethernet+Adapter&amp;c=Philippines'"/><path d="M 244.45,224.37 L 173.62,149.08 A 112.00,112.00 0 0,1 182.78,141.41 z" style="fill: none; stroke: #3b282e; stroke-width: 1; stroke-opacity: 1.00; stroke-linecap: round; stroke-linejoin: round;" id="ezcGraphCircleSector_13"/><path d="M 250.00,231.00 L 182.88,140.71 A 112.50,112.50 0 0,1 362.50,231.00 z" style="fill: #f57900; fill-opacity: 1.00; stroke: none;" id="ezcGraphCircleSector_14"/><path d="M 250.25,230.50 L 183.58,140.82 A 112.00,112.00 0 0,1 362.00,230.50 z" style="fill: none; stroke: #7b3d00; stroke-width: 1; stroke-opacity: 1.00; stroke-linecap: round; stroke-linejoin: round;" id="ezcGraphCircleSector_15"/><path d=" M 196.5028,167.1056 L 163.9438,135.0000" style="fill: none; stroke: #000000; stroke-width: 1; stroke-opacity: 1.00; stroke-linecap: round; stroke-linejoin: round;" id="ezcGraphLine_16"/><ellipse cx="196.5028" cy="167.1056" rx="3.0000" ry="3.0000" style="fill: #000000; fill-opacity: 1.00; stroke: none;" id="ezcGraphCircle_17"/><ellipse cx="163.9438" cy="135.0000" rx="3.0000" ry="3.0000" style="fill: #000000; fill-opacity: 1.00; stroke: none;" id="ezcGraphCircle_18"/><path d=" M 188.7565,174.4873 L 133.5339,172.5000" style="fill: none; stroke: #000000; stroke-width: 1; stroke-opacity: 1.00; stroke-linecap: round; stroke-linejoin: round;" id="ezcGraphLine_20"/><ellipse cx="188.7565" cy="174.4873" rx="3.0000" ry="3.0000" style="fill: #000000; fill-opacity: 1.00; stroke: none;" id="ezcGraphCircle_21"/><ellipse cx="133.5339" cy="172.5000" rx="3.0000" ry="3.0000" style="fill: #000000; fill-opacity: 1.00; stroke: none;" id="ezcGraphCircle_22"/><path d=" M 177.6977,189.5654 L 120.7766,210.0000" style="fill: none; stroke: #000000; stroke-width: 1; stroke-opacity: 1.00; stroke-linecap: round; stroke-linejoin: round;" id="ezcGraphLine_24"/><ellipse cx="177.6977" cy="189.5654" rx="3.0000" ry="3.0000" style="fill: #000000; fill-opacity: 1.00; stroke: none;" id="ezcGraphCircle_25"/><ellipse cx="120.7766" cy="210.0000" rx="3.0000" ry="3.0000" style="fill: #000000; fill-opacity: 1.00; stroke: none;" id="ezcGraphCircle_26"/><path d=" M 166.6684,230.4646 L 120.0938,247.5000" style="fill: none; stroke: #000000; stroke-width: 1; stroke-opacity: 1.00; stroke-linecap: round; stroke-linejoin: round;" id="ezcGraphLine_28"/><ellipse cx="166.6684" cy="230.4646" rx="3.0000" ry="3.0000" style="fill: #000000; fill-opacity: 1.00; stroke: none;" id="ezcGraphCircle_29"/><ellipse cx="120.0938" cy="247.5000" rx="3.0000" ry="3.0000" style="fill: #000000; fill-opacity: 1.00; stroke: none;" id="ezcGraphCircle_30"/><path d=" M 287.4265,156.5440 L 311.5068,119.0000" style="fill: none; stroke: #000000; stroke-width: 1; stroke-opacity: 1.00; stroke-linecap: round; stroke-linejoin: round;" id="ezcGraphLine_32"/><ellipse cx="287.4265" cy="156.5440" rx="3.0000" ry="3.0000" style="fill: #000000; fill-opacity: 1.00; stroke: none;" id="ezcGraphCircle_33"/><ellipse cx="311.5068" cy="119.0000" rx="3.0000" ry="3.0000" style="fill: #000000; fill-opacity: 1.00; stroke: none;" id="ezcGraphCircle_34"/><path d=" M 266.8434,325.3416 L 266.8434,366.0000" style="fill: none; stroke: #000000; stroke-width: 1; stroke-opacity: 1.00; stroke-linecap: round; stroke-linejoin: round;" id="ezcGraphLine_36"/><ellipse cx="266.8434" cy="325.3416" rx="3.0000" ry="3.0000" style="fill: #000000; fill-opacity: 1.00; stroke: none;" id="ezcGraphCircle_37"/><ellipse cx="266.8434" cy="366.0000" rx="3.0000" ry="3.0000" style="fill: #000000; fill-opacity: 1.00; stroke: none;" id="ezcGraphCircle_38"/><g id="ezcGraphTextBox_3"><path d=" M 101.1000,42.0000 L 101.1000,0.5000 L 399.4000,0.5000 L 399.4000,42.0000 L 101.1000,42.0000 z " style="fill: #ffffff; fill-opacity: 0.00; stroke: none;" id="ezcGraphPolygon_40"/><text id="ezcGraphTextBox_3_text" x="101.6000" text-length="296.8000px" y="35.0000" style="font-size: 40px; font-family: 'Arial'; fill: #2e3436; fill-opacity: 1.00; stroke: none;">Ethernet Model</text></g><g id="ezcGraphTextBox_19" style=" cursor: pointer;" onclick="top.location = 'https://linux-hardware.org/?view=computers&amp;type=notebook&amp;f=net_ethernet_model&amp;v=Realtek+Semiconductor+RTL8153+Gigabit+Ethernet+Adapter&amp;c=Philippines'"><path d=" M 38.7238,150.0500 L 38.7238,120.4500 L 158.9438,120.4500 L 158.9438,150.0500 L 38.7238,150.0500 z " style="fill: #ffffff; fill-opacity: 0.00; stroke: none;" id="ezcGraphPolygon_41"/><text id="ezcGraphTextBox_19_text" x="39.2238" text-length="118.7200px" y="132.8500" style="font-size: 14px; font-family: 'Arial'; fill: #2e3436; fill-opacity: 1.00; stroke: none;">RTL8153 Gigab...</text><text id="ezcGraphTextBox_19_text" x="113.4238" text-length="44.5200px" y="148.2500" style="font-size: 14px; font-family: 'Arial'; fill: #2e3436; fill-opacity: 1.00; stroke: none;">(1.8%)</text></g><g id="ezcGraphTextBox_23" style=" cursor: pointer;" onclick="top.location = 'https://linux-hardware.org/?view=computers&amp;type=notebook&amp;f=net_ethernet_model&amp;v=Realtek+Semiconductor+Killer+E2600+GbE+Controller&amp;c=Philippines'"><path d=" M 37.9939,187.5500 L 37.9939,157.9500 L 128.5339,157.9500 L 128.5339,187.5500 L 37.9939,187.5500 z " style="fill: #ffffff; fill-opacity: 0.00; stroke: none;" id="ezcGraphPolygon_42"/><text id="ezcGraphTextBox_23_text" x="38.4939" text-length="89.0400px" y="170.3500" style="font-size: 14px; font-family: 'Arial'; fill: #2e3436; fill-opacity: 1.00; stroke: none;">Killer E2600</text><text id="ezcGraphTextBox_23_text" x="53.3339" text-length="74.2000px" y="185.7500" style="font-size: 14px; font-family: 'Arial'; fill: #2e3436; fill-opacity: 1.00; stroke: none;">... (2.2%)</text></g><g id="ezcGraphTextBox_27" style=" cursor: pointer;" onclick="top.location = 'https://linux-hardware.org/?view=computers&amp;type=notebook&amp;f=net_ethernet_model&amp;v=Intel+82579LM+Gigabit+Network+Connection+%28Lewisville%29&amp;c=Philippines'"><path d=" M 2.9766,225.0500 L 2.9766,195.4500 L 115.7766,195.4500 L 115.7766,225.0500 L 2.9766,225.0500 z " style="fill: #ffffff; fill-opacity: 0.00; stroke: none;" id="ezcGraphPolygon_43"/><text id="ezcGraphTextBox_27_text" x="62.8366" text-length="51.9400px" y="207.8500" style="font-size: 14px; font-family: 'Arial'; fill: #2e3436; fill-opacity: 1.00; stroke: none;">82579LM</text><text id="ezcGraphTextBox_27_text" x="3.4766" text-length="111.3000px" y="223.2500" style="font-size: 14px; font-family: 'Arial'; fill: #2e3436; fill-opacity: 1.00; stroke: none;">Gigab... (4.9%)</text></g><g id="ezcGraphTextBox_31" style=" cursor: pointer;" onclick="top.location = 'https://linux-hardware.org/?view=computers&amp;type=notebook&amp;f=net_ethernet_model&amp;v=Realtek+Semiconductor+RTL810xE+PCI+Express+Fast+Ethernet+controller&amp;c=Philippines'"><path d=" M 24.5538,262.5500 L 24.5538,232.9500 L 115.0938,232.9500 L 115.0938,262.5500 L 24.5538,262.5500 z " style="fill: #ffffff; fill-opacity: 0.00; stroke: none;" id="ezcGraphPolygon_44"/><text id="ezcGraphTextBox_31_text" x="25.0538" text-length="89.0400px" y="245.3500" style="font-size: 14px; font-family: 'Arial'; fill: #2e3436; fill-opacity: 1.00; stroke: none;">RTL810xE PCI</text><text id="ezcGraphTextBox_31_text" x="32.4738" text-length="81.6200px" y="260.7500" style="font-size: 14px; font-family: 'Arial'; fill: #2e3436; fill-opacity: 1.00; stroke: none;">... (11.5%)</text></g><g id="ezcGraphTextBox_35"><path d=" M 317.0068,127.0000 L 317.0068,111.5000 L 422.3868,111.5000 L 422.3868,127.0000 L 317.0068,127.0000 z " style="fill: #ffffff; fill-opacity: 0.00; stroke: none;" id="ezcGraphPolygon_45"/><text id="ezcGraphTextBox_35_text" x="317.5068" text-length="103.8800px" y="123.9000" style="font-size: 14px; font-family: 'Arial'; fill: #2e3436; fill-opacity: 1.00; stroke: none;">Others (35.2%)</text></g><g id="ezcGraphTextBox_39" style=" cursor: pointer;" onclick="top.location = 'https://linux-hardware.org/?view=computers&amp;type=notebook&amp;f=net_ethernet_model&amp;v=Realtek+Semiconductor+RTL8111%2F8168%2F8211%2F8411+PCI+Express+Gigabit+Ethernet+Controller&amp;c=Philippines'"><path d=" M 272.3434,374.0000 L 272.3434,358.5000 L 451.9234,358.5000 L 451.9234,374.0000 L 272.3434,374.0000 z " style="fill: #ffffff; fill-opacity: 0.00; stroke: none;" id="ezcGraphPolygon_46"/><text id="ezcGraphTextBox_39_text" x="272.8434" text-length="178.0800px" y="370.9000" style="font-size: 14px; font-family: 'Arial'; fill: #2e3436; fill-opacity: 1.00; stroke: none;">RTL8111/8168/... (44.4%)</text></g></g></svg>
