<?xml version="1.0"?>
<svg xmlns="http://www.w3.org/2000/svg" width="500" height="420" version="1.0" id="ezcGraph"><defs/><g id="ezcGraphChart" color-rendering="optimizeQuality" shape-rendering="geometricPrecision" text-rendering="optimizeLegibility"><path d=" M 0.0000,420.0000 L 0.0000,0.0000 L 500.0000,0.0000 L 500.0000,420.0000 L 0.0000,420.0000 z " style="fill: #eeeeec; fill-opacity: 1.00; stroke: none;" id="ezcGraphPolygon_1"/><path d=" M 0.0000,42.0000 L 0.0000,0.0000 L 500.0000,0.0000 L 500.0000,42.0000 L 0.0000,42.0000 z " style="fill: #000000; fill-opacity: 0.00; stroke: none;" id="ezcGraphPolygon_2"/><path d="M 247.78,243.30 L 360.28,243.30 A 112.50,112.50 0 1,1 142.36,204.04 z" style="fill: #3465a4; fill-opacity: 1.00; stroke: none; cursor: pointer;" id="ezcGraphCircleSector_4" onclick="top.location = 'https://linux-hardware.org/?view=computers&amp;f=drive_bus&amp;v=ide&amp;r=ubuntu-mate-22.04'"/><path d="M 247.69,243.80 L 359.78,243.80 A 112.00,112.00 0 1,1 142.65,204.68 z" style="fill: none; stroke: #1a3352; stroke-width: 1; stroke-opacity: 1.00; stroke-linecap: round; stroke-linejoin: round;" id="ezcGraphCircleSector_5"/><path d="M 250.00,231.00 L 144.58,191.73 A 112.50,112.50 0 0,1 320.98,143.72 z" style="fill: #4e9a06; fill-opacity: 1.00; stroke: none; cursor: pointer;" id="ezcGraphCircleSector_6" onclick="top.location = 'https://linux-hardware.org/?view=computers&amp;f=drive_bus&amp;v=nvme&amp;r=ubuntu-mate-22.04'"/><path d="M 249.84,230.41 L 145.22,191.44 A 112.00,112.00 0 0,1 320.28,143.79 z" style="fill: none; stroke: #274d03; stroke-width: 1; stroke-opacity: 1.00; stroke-linecap: round; stroke-linejoin: round;" id="ezcGraphCircleSector_7"/><path d="M 250.00,231.00 L 320.98,143.72 A 112.50,112.50 0 0,1 351.59,182.68 z" style="fill: #cc0000; fill-opacity: 1.00; stroke: none; cursor: pointer;" id="ezcGraphCircleSector_8" onclick="top.location = 'https://linux-hardware.org/?view=computers&amp;f=drive_bus&amp;v=scsi&amp;r=ubuntu-mate-22.04'"/><path d="M 251.79,229.60 L 321.06,144.43 A 112.00,112.00 0 0,1 350.93,182.44 z" style="fill: none; stroke: #660000; stroke-width: 1; stroke-opacity: 1.00; stroke-linecap: round; stroke-linejoin: round;" id="ezcGraphCircleSector_9"/><path d="M 250.00,231.00 L 351.59,182.68 A 112.50,112.50 0 0,1 362.50,231.00 z" style="fill: #edd400; fill-opacity: 1.00; stroke: none; cursor: pointer;" id="ezcGraphCircleSector_10" onclick="top.location = 'https://linux-hardware.org/?view=computers&amp;f=drive_bus&amp;v=mmc&amp;r=ubuntu-mate-22.04'"/><path d="M 252.22,230.50 L 351.36,183.34 A 112.00,112.00 0 0,1 362.00,230.50 z" style="fill: none; stroke: #776a00; stroke-width: 1; stroke-opacity: 1.00; stroke-linecap: round; stroke-linejoin: round;" id="ezcGraphCircleSector_11"/><path d=" M 228.1160,150.5914 L 212.6312,110.0000" style="fill: none; stroke: #000000; stroke-width: 1; stroke-opacity: 1.00; stroke-linecap: round; stroke-linejoin: round;" id="ezcGraphLine_12"/><ellipse cx="228.1160" cy="150.5914" rx="3.0000" ry="3.0000" style="fill: #000000; fill-opacity: 1.00; stroke: none;" id="ezcGraphCircle_13"/><ellipse cx="212.6312" cy="110.0000" rx="3.0000" ry="3.0000" style="fill: #000000; fill-opacity: 1.00; stroke: none;" id="ezcGraphCircle_14"/><path d=" M 233.0061,325.3146 L 233.0061,366.0000" style="fill: none; stroke: #000000; stroke-width: 1; stroke-opacity: 1.00; stroke-linecap: round; stroke-linejoin: round;" id="ezcGraphLine_16"/><ellipse cx="233.0061" cy="325.3146" rx="3.0000" ry="3.0000" style="fill: #000000; fill-opacity: 1.00; stroke: none;" id="ezcGraphCircle_17"/><ellipse cx="233.0061" cy="366.0000" rx="3.0000" ry="3.0000" style="fill: #000000; fill-opacity: 1.00; stroke: none;" id="ezcGraphCircle_18"/><path d=" M 315.5254,179.5135 L 353.6780,153.0000" style="fill: none; stroke: #000000; stroke-width: 1; stroke-opacity: 1.00; stroke-linecap: round; stroke-linejoin: round;" id="ezcGraphLine_20"/><ellipse cx="315.5254" cy="179.5135" rx="3.0000" ry="3.0000" style="fill: #000000; fill-opacity: 1.00; stroke: none;" id="ezcGraphCircle_21"/><ellipse cx="353.6780" cy="153.0000" rx="3.0000" ry="3.0000" style="fill: #000000; fill-opacity: 1.00; stroke: none;" id="ezcGraphCircle_22"/><path d=" M 331.2883,212.6518 L 377.8236,203.0000" style="fill: none; stroke: #000000; stroke-width: 1; stroke-opacity: 1.00; stroke-linecap: round; stroke-linejoin: round;" id="ezcGraphLine_24"/><ellipse cx="331.2883" cy="212.6518" rx="3.0000" ry="3.0000" style="fill: #000000; fill-opacity: 1.00; stroke: none;" id="ezcGraphCircle_25"/><ellipse cx="377.8236" cy="203.0000" rx="3.0000" ry="3.0000" style="fill: #000000; fill-opacity: 1.00; stroke: none;" id="ezcGraphCircle_26"/><g id="ezcGraphTextBox_3"><path d=" M 90.5000,42.0000 L 90.5000,0.5000 L 410.0000,0.5000 L 410.0000,42.0000 L 90.5000,42.0000 z " style="fill: #ffffff; fill-opacity: 0.00; stroke: none;" id="ezcGraphPolygon_28"/><text id="ezcGraphTextBox_3_text" x="91.0000" text-length="318.0000px" y="35.0000" style="font-size: 40px; font-family: 'Arial'; fill: #2e3436; fill-opacity: 1.00; stroke: none;">Drive Connector</text></g><g id="ezcGraphTextBox_15" style=" cursor: pointer;" onclick="top.location = 'https://linux-hardware.org/?view=computers&amp;f=drive_bus&amp;v=nvme&amp;r=ubuntu-mate-22.04'"><path d=" M 67.4832,121.9000 L 67.4832,98.6000 L 207.6312,98.6000 L 207.6312,121.9000 L 67.4832,121.9000 z " style="fill: #ffffff; fill-opacity: 0.00; stroke: none;" id="ezcGraphPolygon_29"/><text id="ezcGraphTextBox_15_text" x="67.9832" text-length="138.6480px" y="117.6300" style="font-size: 21px; font-family: 'Arial'; fill: #2e3436; fill-opacity: 1.00; stroke: none;">NVMe (30.2%)</text></g><g id="ezcGraphTextBox_19" style=" cursor: pointer;" onclick="top.location = 'https://linux-hardware.org/?view=computers&amp;f=drive_bus&amp;v=ide&amp;r=ubuntu-mate-22.04'"><path d=" M 87.8581,377.9000 L 87.8581,354.6000 L 228.0061,354.6000 L 228.0061,377.9000 L 87.8581,377.9000 z " style="fill: #ffffff; fill-opacity: 0.00; stroke: none;" id="ezcGraphPolygon_30"/><text id="ezcGraphTextBox_19_text" x="88.3581" text-length="138.6480px" y="373.6300" style="font-size: 21px; font-family: 'Arial'; fill: #2e3436; fill-opacity: 1.00; stroke: none;">SATA (55.7%)</text></g><g id="ezcGraphTextBox_23" style=" cursor: pointer;" onclick="top.location = 'https://linux-hardware.org/?view=computers&amp;f=drive_bus&amp;v=scsi&amp;r=ubuntu-mate-22.04'"><path d=" M 359.1780,164.9000 L 359.1780,141.6000 L 476.2180,141.6000 L 476.2180,164.9000 L 359.1780,164.9000 z " style="fill: #ffffff; fill-opacity: 0.00; stroke: none;" id="ezcGraphPolygon_31"/><text id="ezcGraphTextBox_23_text" x="359.6780" text-length="115.5400px" y="160.6300" style="font-size: 21px; font-family: 'Arial'; fill: #2e3436; fill-opacity: 1.00; stroke: none;">SAS (7.1%)</text></g><g id="ezcGraphTextBox_27" style=" cursor: pointer;" onclick="top.location = 'https://linux-hardware.org/?view=computers&amp;f=drive_bus&amp;v=mmc&amp;r=ubuntu-mate-22.04'"><path d=" M 383.3236,214.9000 L 383.3236,191.6000 L 500.3636,191.6000 L 500.3636,214.9000 L 383.3236,214.9000 z " style="fill: #ffffff; fill-opacity: 0.00; stroke: none;" id="ezcGraphPolygon_32"/><text id="ezcGraphTextBox_27_text" x="383.8236" text-length="115.5400px" y="210.6300" style="font-size: 21px; font-family: 'Arial'; fill: #2e3436; fill-opacity: 1.00; stroke: none;">MMC (7.1%)</text></g></g></svg>
