<?xml version="1.0"?>
<svg xmlns="http://www.w3.org/2000/svg" width="500" height="420" version="1.0" id="ezcGraph"><defs/><g id="ezcGraphChart" color-rendering="optimizeQuality" shape-rendering="geometricPrecision" text-rendering="optimizeLegibility"><path d=" M 0.0000,420.0000 L 0.0000,0.0000 L 500.0000,0.0000 L 500.0000,420.0000 L 0.0000,420.0000 z " style="fill: #eeeeec; fill-opacity: 1.00; stroke: none;" id="ezcGraphPolygon_1"/><path d=" M 0.0000,42.0000 L 0.0000,0.0000 L 500.0000,0.0000 L 500.0000,42.0000 L 0.0000,42.0000 z " style="fill: #000000; fill-opacity: 0.00; stroke: none;" id="ezcGraphPolygon_2"/><path d="M 259.59,239.02 L 372.09,239.02 A 112.50,112.50 0 0,1 279.39,349.77 z" style="fill: #3465a4; fill-opacity: 1.00; stroke: none; cursor: pointer;" id="ezcGraphCircleSector_4" onclick="top.location = 'http://linux-hardware.org/?view=computers&amp;f=cpu_family&amp;v=Intel+Core+i5&amp;p=0&amp;r=ubuntu-21.04'"/><path d="M 260.18,239.52 L 371.59,239.52 A 112.00,112.00 0 0,1 279.80,349.19 z" style="fill: none; stroke: #1a3352; stroke-width: 1; stroke-opacity: 1.00; stroke-linecap: round; stroke-linejoin: round;" id="ezcGraphCircleSector_5"/><path d="M 250.00,231.00 L 269.81,341.74 A 112.50,112.50 0 0,1 154.54,290.52 z" style="fill: #4e9a06; fill-opacity: 1.00; stroke: none; cursor: pointer;" id="ezcGraphCircleSector_6" onclick="top.location = 'http://linux-hardware.org/?view=computers&amp;f=cpu_family&amp;v=Intel+Core+i7&amp;p=0&amp;r=ubuntu-21.04'"/><path d="M 249.64,231.82 L 269.23,341.34 A 112.00,112.00 0 0,1 155.22,290.68 z" style="fill: none; stroke: #274d03; stroke-width: 1; stroke-opacity: 1.00; stroke-linecap: round; stroke-linejoin: round;" id="ezcGraphCircleSector_7"/><path d="M 250.00,231.00 L 154.54,290.52 A 112.50,112.50 0 0,1 139.09,212.17 z" style="fill: #cc0000; fill-opacity: 1.00; stroke: none; cursor: pointer;" id="ezcGraphCircleSector_8" onclick="top.location = 'http://linux-hardware.org/?view=computers&amp;f=cpu_family&amp;v=Other&amp;p=0&amp;r=ubuntu-21.04'"/><path d="M 248.62,231.27 L 154.70,289.83 A 112.00,112.00 0 0,1 139.50,212.75 z" style="fill: none; stroke: #660000; stroke-width: 1; stroke-opacity: 1.00; stroke-linecap: round; stroke-linejoin: round;" id="ezcGraphCircleSector_9"/><path d="M 250.00,231.00 L 139.09,212.17 A 112.50,112.50 0 0,1 157.83,166.50 z" style="fill: #edd400; fill-opacity: 1.00; stroke: none; cursor: pointer;" id="ezcGraphCircleSector_10" onclick="top.location = 'http://linux-hardware.org/?view=computers&amp;f=cpu_family&amp;v=Intel+Core+i3&amp;p=0&amp;r=ubuntu-21.04'"/><path d="M 247.89,230.14 L 139.66,211.76 A 112.00,112.00 0 0,1 157.95,167.19 z" style="fill: none; stroke: #776a00; stroke-width: 1; stroke-opacity: 1.00; stroke-linecap: round; stroke-linejoin: round;" id="ezcGraphCircleSector_11"/><path d="M 250.00,231.00 L 157.83,166.50 A 112.50,112.50 0 0,1 185.09,139.12 z" style="fill: #75505b; fill-opacity: 1.00; stroke: none; cursor: pointer;" id="ezcGraphCircleSector_12" onclick="top.location = 'http://linux-hardware.org/?view=computers&amp;f=cpu_family&amp;v=AMD+Ryzen+5&amp;p=0&amp;r=ubuntu-21.04'"/><path d="M 247.94,228.95 L 158.53,166.37 A 112.00,112.00 0 0,1 184.97,139.81 z" style="fill: none; stroke: #3b282e; stroke-width: 1; stroke-opacity: 1.00; stroke-linecap: round; stroke-linejoin: round;" id="ezcGraphCircleSector_13"/><path d="M 250.00,231.00 L 185.09,139.12 A 112.50,112.50 0 0,1 362.50,231.00 z" style="fill: #f57900; fill-opacity: 1.00; stroke: none;" id="ezcGraphCircleSector_14"/><path d="M 250.26,230.50 L 185.78,139.24 A 112.00,112.00 0 0,1 362.00,230.50 z" style="fill: none; stroke: #7b3d00; stroke-width: 1; stroke-opacity: 1.00; stroke-linecap: round; stroke-linejoin: round;" id="ezcGraphCircleSector_15"/><path d=" M 190.9442,172.2049 L 156.2276,142.0000" style="fill: none; stroke: #000000; stroke-width: 1; stroke-opacity: 1.00; stroke-linecap: round; stroke-linejoin: round;" id="ezcGraphLine_16"/><ellipse cx="190.9442" cy="172.2049" rx="3.0000" ry="3.0000" style="fill: #000000; fill-opacity: 1.00; stroke: none;" id="ezcGraphCircle_17"/><ellipse cx="156.2276" cy="142.0000" rx="3.0000" ry="3.0000" style="fill: #000000; fill-opacity: 1.00; stroke: none;" id="ezcGraphCircle_18"/><path d=" M 172.9046,199.3654 L 128.5834,183.0000" style="fill: none; stroke: #000000; stroke-width: 1; stroke-opacity: 1.00; stroke-linecap: round; stroke-linejoin: round;" id="ezcGraphLine_20"/><ellipse cx="172.9046" cy="199.3654" rx="3.0000" ry="3.0000" style="fill: #000000; fill-opacity: 1.00; stroke: none;" id="ezcGraphCircle_21"/><ellipse cx="128.5834" cy="183.0000" rx="3.0000" ry="3.0000" style="fill: #000000; fill-opacity: 1.00; stroke: none;" id="ezcGraphCircle_22"/><path d=" M 168.2410,247.1219 L 121.3256,255.0000" style="fill: none; stroke: #000000; stroke-width: 1; stroke-opacity: 1.00; stroke-linecap: round; stroke-linejoin: round;" id="ezcGraphLine_24"/><ellipse cx="168.2410" cy="247.1219" rx="3.0000" ry="3.0000" style="fill: #000000; fill-opacity: 1.00; stroke: none;" id="ezcGraphCircle_25"/><ellipse cx="121.3256" cy="255.0000" rx="3.0000" ry="3.0000" style="fill: #000000; fill-opacity: 1.00; stroke: none;" id="ezcGraphCircle_26"/><path d=" M 216.1614,307.1538 L 192.7262,345.0000" style="fill: none; stroke: #000000; stroke-width: 1; stroke-opacity: 1.00; stroke-linecap: round; stroke-linejoin: round;" id="ezcGraphLine_28"/><ellipse cx="216.1614" cy="307.1538" rx="3.0000" ry="3.0000" style="fill: #000000; fill-opacity: 1.00; stroke: none;" id="ezcGraphCircle_29"/><ellipse cx="192.7262" cy="345.0000" rx="3.0000" ry="3.0000" style="fill: #000000; fill-opacity: 1.00; stroke: none;" id="ezcGraphCircle_30"/><path d=" M 288.3245,157.0022 L 313.4804,120.0000" style="fill: none; stroke: #000000; stroke-width: 1; stroke-opacity: 1.00; stroke-linecap: round; stroke-linejoin: round;" id="ezcGraphLine_32"/><ellipse cx="288.3245" cy="157.0022" rx="3.0000" ry="3.0000" style="fill: #000000; fill-opacity: 1.00; stroke: none;" id="ezcGraphCircle_33"/><ellipse cx="313.4804" cy="120.0000" rx="3.0000" ry="3.0000" style="fill: #000000; fill-opacity: 1.00; stroke: none;" id="ezcGraphCircle_34"/><path d=" M 323.4883,292.5102 L 344.7750,319.0000" style="fill: none; stroke: #000000; stroke-width: 1; stroke-opacity: 1.00; stroke-linecap: round; stroke-linejoin: round;" id="ezcGraphLine_36"/><ellipse cx="323.4883" cy="292.5102" rx="3.0000" ry="3.0000" style="fill: #000000; fill-opacity: 1.00; stroke: none;" id="ezcGraphCircle_37"/><ellipse cx="344.7750" cy="319.0000" rx="3.0000" ry="3.0000" style="fill: #000000; fill-opacity: 1.00; stroke: none;" id="ezcGraphCircle_38"/><g id="ezcGraphTextBox_3"><path d=" M 79.9000,42.0000 L 79.9000,0.5000 L 420.6000,0.5000 L 420.6000,42.0000 L 79.9000,42.0000 z " style="fill: #ffffff; fill-opacity: 0.00; stroke: none;" id="ezcGraphPolygon_40"/><text id="ezcGraphTextBox_3_text" x="80.4000" text-length="339.2000px" y="35.0000" style="font-size: 40px; font-family: 'Arial'; fill: #2e3436; fill-opacity: 1.00; stroke: none;">CPU Model Family</text></g><g id="ezcGraphTextBox_19" style=" cursor: pointer;" onclick="top.location = 'http://linux-hardware.org/?view=computers&amp;f=cpu_family&amp;v=AMD+Ryzen+5&amp;p=0&amp;r=ubuntu-21.04'"><path d=" M 19.8776,151.7500 L 19.8776,132.7500 L 151.2276,132.7500 L 151.2276,151.7500 L 19.8776,151.7500 z " style="fill: #ffffff; fill-opacity: 0.00; stroke: none;" id="ezcGraphPolygon_41"/><text id="ezcGraphTextBox_19_text" x="20.3776" text-length="129.8500px" y="148.1250" style="font-size: 17px; font-family: 'Arial'; fill: #2e3436; fill-opacity: 1.00; stroke: none;">Ryzen 5 (5.5%)</text></g><g id="ezcGraphTextBox_23" style=" cursor: pointer;" onclick="top.location = 'http://linux-hardware.org/?view=computers&amp;f=cpu_family&amp;v=Intel+Core+i3&amp;p=0&amp;r=ubuntu-21.04'"><path d=" M 57.1584,201.5500 L 57.1584,164.9500 L 123.5834,164.9500 L 123.5834,201.5500 L 57.1584,201.5500 z " style="fill: #ffffff; fill-opacity: 0.00; stroke: none;" id="ezcGraphPolygon_42"/><text id="ezcGraphTextBox_23_text" x="57.6584" text-length="64.9250px" y="180.3250" style="font-size: 17px; font-family: 'Arial'; fill: #2e3436; fill-opacity: 1.00; stroke: none;">Core i3</text><text id="ezcGraphTextBox_23_text" x="66.9334" text-length="55.6500px" y="199.5750" style="font-size: 17px; font-family: 'Arial'; fill: #2e3436; fill-opacity: 1.00; stroke: none;">(7.0%)</text></g><g id="ezcGraphTextBox_27" style=" cursor: pointer;" onclick="top.location = 'http://linux-hardware.org/?view=computers&amp;f=cpu_family&amp;v=Other&amp;p=0&amp;r=ubuntu-21.04'"><path d=" M 49.9006,273.5500 L 49.9006,236.9500 L 116.3256,236.9500 L 116.3256,273.5500 L 49.9006,273.5500 z " style="fill: #ffffff; fill-opacity: 0.00; stroke: none;" id="ezcGraphPolygon_43"/><text id="ezcGraphTextBox_27_text" x="68.9506" text-length="46.3750px" y="252.3250" style="font-size: 17px; font-family: 'Arial'; fill: #2e3436; fill-opacity: 1.00; stroke: none;">Other</text><text id="ezcGraphTextBox_27_text" x="50.4006" text-length="64.9250px" y="271.5750" style="font-size: 17px; font-family: 'Arial'; fill: #2e3436; fill-opacity: 1.00; stroke: none;">(11.5%)</text></g><g id="ezcGraphTextBox_31" style=" cursor: pointer;" onclick="top.location = 'http://linux-hardware.org/?view=computers&amp;f=cpu_family&amp;v=Intel+Core+i7&amp;p=0&amp;r=ubuntu-21.04'"><path d=" M 47.1012,354.7500 L 47.1012,335.7500 L 187.7262,335.7500 L 187.7262,354.7500 L 47.1012,354.7500 z " style="fill: #ffffff; fill-opacity: 0.00; stroke: none;" id="ezcGraphPolygon_44"/><text id="ezcGraphTextBox_31_text" x="47.6012" text-length="139.1250px" y="351.1250" style="font-size: 17px; font-family: 'Arial'; fill: #2e3436; fill-opacity: 1.00; stroke: none;">Core i7 (18.9%)</text></g><g id="ezcGraphTextBox_35"><path d=" M 318.9804,129.7500 L 318.9804,110.7500 L 450.3304,110.7500 L 450.3304,129.7500 L 318.9804,129.7500 z " style="fill: #ffffff; fill-opacity: 0.00; stroke: none;" id="ezcGraphPolygon_45"/><text id="ezcGraphTextBox_35_text" x="319.4804" text-length="129.8500px" y="126.1250" style="font-size: 17px; font-family: 'Arial'; fill: #2e3436; fill-opacity: 1.00; stroke: none;">Others (34.8%)</text></g><g id="ezcGraphTextBox_39" style=" cursor: pointer;" onclick="top.location = 'http://linux-hardware.org/?view=computers&amp;f=cpu_family&amp;v=Intel+Core+i5&amp;p=0&amp;r=ubuntu-21.04'"><path d=" M 350.2750,328.7500 L 350.2750,309.7500 L 490.9000,309.7500 L 490.9000,328.7500 L 350.2750,328.7500 z " style="fill: #ffffff; fill-opacity: 0.00; stroke: none;" id="ezcGraphPolygon_46"/><text id="ezcGraphTextBox_39_text" x="350.7750" text-length="139.1250px" y="325.1250" style="font-size: 17px; font-family: 'Arial'; fill: #2e3436; fill-opacity: 1.00; stroke: none;">Core i5 (22.2%)</text></g></g></svg>
