<?xml version="1.0"?>
<svg xmlns="http://www.w3.org/2000/svg" width="500" height="420" version="1.0" id="ezcGraph"><defs/><g id="ezcGraphChart" color-rendering="optimizeQuality" shape-rendering="geometricPrecision" text-rendering="optimizeLegibility"><path d=" M 0.0000,420.0000 L 0.0000,0.0000 L 500.0000,0.0000 L 500.0000,420.0000 L 0.0000,420.0000 z " style="fill: #eeeeec; fill-opacity: 1.00; stroke: none;" id="ezcGraphPolygon_1"/><path d=" M 0.0000,42.0000 L 0.0000,0.0000 L 500.0000,0.0000 L 500.0000,42.0000 L 0.0000,42.0000 z " style="fill: #000000; fill-opacity: 0.00; stroke: none;" id="ezcGraphPolygon_2"/><path d="M 262.48,231.66 L 374.98,231.66 A 112.50,112.50 0 0,1 374.35,243.56 z" style="fill: #3465a4; fill-opacity: 1.00; stroke: none; cursor: pointer;" id="ezcGraphCircleSector_4" onclick="top.location = 'https://linux-hardware.org/?view=computers&amp;f=mon_model&amp;v=LG+Display+LCD+Monitor+LGD039F+1366x768+345x194mm+15.6-inch&amp;c=Japan'"/><path d="M 271.91,232.16 L 374.48,232.16 A 112.00,112.00 0 0,1 373.91,243.01 z" style="fill: none; stroke: #1a3352; stroke-width: 1; stroke-opacity: 1.00; stroke-linecap: round; stroke-linejoin: round;" id="ezcGraphCircleSector_5"/><path d="M 250.00,231.00 L 361.87,242.90 A 112.50,112.50 0 0,1 361.38,246.84 z" style="fill: #4e9a06; fill-opacity: 1.00; stroke: none; cursor: pointer;" id="ezcGraphCircleSector_6" onclick="top.location = 'https://linux-hardware.org/?view=computers&amp;f=mon_model&amp;v=LG+Display+LCD+Monitor+LGD02DC+1366x768+344x194mm+15.5-inch&amp;c=Japan'"/><path d="M 278.10,234.49 L 361.32,243.34 A 112.00,112.00 0 0,1 360.95,246.28 z" style="fill: none; stroke: #274d03; stroke-width: 1; stroke-opacity: 1.00; stroke-linecap: round; stroke-linejoin: round;" id="ezcGraphCircleSector_7"/><path d="M 250.00,231.00 L 361.38,246.84 A 112.50,112.50 0 0,1 360.84,250.28 z" style="fill: #cc0000; fill-opacity: 1.00; stroke: none; cursor: pointer;" id="ezcGraphCircleSector_8" onclick="top.location = 'https://linux-hardware.org/?view=computers&amp;f=mon_model&amp;v=Apple+Color+LCD+APPA041+2560x1600+286x179mm+13.3-inch&amp;c=Japan'"/><path d="M 281.96,236.05 L 360.81,247.27 A 112.00,112.00 0 0,1 360.43,249.70 z" style="fill: none; stroke: #660000; stroke-width: 1; stroke-opacity: 1.00; stroke-linecap: round; stroke-linejoin: round;" id="ezcGraphCircleSector_9"/><path d="M 250.00,231.00 L 360.84,250.28 A 112.50,112.50 0 0,1 360.19,253.69 z" style="fill: #edd400; fill-opacity: 1.00; stroke: none; cursor: pointer;" id="ezcGraphCircleSector_10" onclick="top.location = 'https://linux-hardware.org/?view=computers&amp;f=mon_model&amp;v=AU+Optronics+LCD+Monitor+AUO106C+1366x768+276x155mm+12.5-inch&amp;c=Japan'"/><path d="M 281.79,237.04 L 360.26,250.68 A 112.00,112.00 0 0,1 359.80,253.10 z" style="fill: none; stroke: #776a00; stroke-width: 1; stroke-opacity: 1.00; stroke-linecap: round; stroke-linejoin: round;" id="ezcGraphCircleSector_11"/><path d="M 250.00,231.00 L 360.19,253.69 A 112.50,112.50 0 0,1 359.43,257.09 z" style="fill: #75505b; fill-opacity: 1.00; stroke: none; cursor: pointer;" id="ezcGraphCircleSector_12" onclick="top.location = 'https://linux-hardware.org/?view=computers&amp;f=mon_model&amp;v=&amp;c=Japan'"/><path d="M 281.59,238.02 L 359.60,254.08 A 112.00,112.00 0 0,1 359.06,256.49 z" style="fill: none; stroke: #3b282e; stroke-width: 1; stroke-opacity: 1.00; stroke-linecap: round; stroke-linejoin: round;" id="ezcGraphCircleSector_13"/><path d="M 250.00,231.00 L 359.43,257.09 A 112.50,112.50 0 1,1 362.50,231.00 z" style="fill: #f57900; fill-opacity: 1.00; stroke: none;" id="ezcGraphCircleSector_14"/><path d="M 245.75,230.50 L 358.83,257.46 A 112.00,112.00 0 1,1 362.00,230.50 z" style="fill: none; stroke: #7b3d00; stroke-width: 1; stroke-opacity: 1.00; stroke-linecap: round; stroke-linejoin: round;" id="ezcGraphCircleSector_15"/><path d=" M 167.2365,221.2714 L 119.9033,216.0000" style="fill: none; stroke: #000000; stroke-width: 1; stroke-opacity: 1.00; stroke-linecap: round; stroke-linejoin: round;" id="ezcGraphLine_16"/><ellipse cx="167.2365" cy="221.2714" rx="3.0000" ry="3.0000" style="fill: #000000; fill-opacity: 1.00; stroke: none;" id="ezcGraphCircle_17"/><ellipse cx="119.9033" cy="216.0000" rx="3.0000" ry="3.0000" style="fill: #000000; fill-opacity: 1.00; stroke: none;" id="ezcGraphCircle_18"/><path d=" M 345.6988,236.0754 L 380.8038,238.0000" style="fill: none; stroke: #000000; stroke-width: 1; stroke-opacity: 1.00; stroke-linecap: round; stroke-linejoin: round;" id="ezcGraphLine_20"/><ellipse cx="345.6988" cy="236.0754" rx="3.0000" ry="3.0000" style="fill: #000000; fill-opacity: 1.00; stroke: none;" id="ezcGraphCircle_21"/><ellipse cx="380.8038" cy="238.0000" rx="3.0000" ry="3.0000" style="fill: #000000; fill-opacity: 1.00; stroke: none;" id="ezcGraphCircle_22"/><path d=" M 332.6973,241.2765 L 373.7327,273.0000" style="fill: none; stroke: #000000; stroke-width: 1; stroke-opacity: 1.00; stroke-linecap: round; stroke-linejoin: round;" id="ezcGraphLine_24"/><ellipse cx="332.6973" cy="241.2765" rx="3.0000" ry="3.0000" style="fill: #000000; fill-opacity: 1.00; stroke: none;" id="ezcGraphCircle_25"/><ellipse cx="373.7327" cy="273.0000" rx="3.0000" ry="3.0000" style="fill: #000000; fill-opacity: 1.00; stroke: none;" id="ezcGraphCircle_26"/><path d=" M 332.3117,244.0089 L 354.4683,308.0000" style="fill: none; stroke: #000000; stroke-width: 1; stroke-opacity: 1.00; stroke-linecap: round; stroke-linejoin: round;" id="ezcGraphLine_28"/><ellipse cx="332.3117" cy="244.0089" rx="3.0000" ry="3.0000" style="fill: #000000; fill-opacity: 1.00; stroke: none;" id="ezcGraphCircle_29"/><ellipse cx="354.4683" cy="308.0000" rx="3.0000" ry="3.0000" style="fill: #000000; fill-opacity: 1.00; stroke: none;" id="ezcGraphCircle_30"/><path d=" M 331.8703,246.5464 L 311.5068,343.0000" style="fill: none; stroke: #000000; stroke-width: 1; stroke-opacity: 1.00; stroke-linecap: round; stroke-linejoin: round;" id="ezcGraphLine_32"/><ellipse cx="331.8703" cy="246.5464" rx="3.0000" ry="3.0000" style="fill: #000000; fill-opacity: 1.00; stroke: none;" id="ezcGraphCircle_33"/><ellipse cx="311.5068" cy="343.0000" rx="3.0000" ry="3.0000" style="fill: #000000; fill-opacity: 1.00; stroke: none;" id="ezcGraphCircle_34"/><path d=" M 331.3508,249.0691 L 331.3508,378.0000" style="fill: none; stroke: #000000; stroke-width: 1; stroke-opacity: 1.00; stroke-linecap: round; stroke-linejoin: round;" id="ezcGraphLine_36"/><ellipse cx="331.3508" cy="249.0691" rx="3.0000" ry="3.0000" style="fill: #000000; fill-opacity: 1.00; stroke: none;" id="ezcGraphCircle_37"/><ellipse cx="331.3508" cy="378.0000" rx="3.0000" ry="3.0000" style="fill: #000000; fill-opacity: 1.00; stroke: none;" id="ezcGraphCircle_38"/><g id="ezcGraphTextBox_3"><path d=" M 111.7000,42.0000 L 111.7000,0.5000 L 388.8000,0.5000 L 388.8000,42.0000 L 111.7000,42.0000 z " style="fill: #ffffff; fill-opacity: 0.00; stroke: none;" id="ezcGraphPolygon_40"/><text id="ezcGraphTextBox_3_text" x="112.2000" text-length="275.6000px" y="35.0000" style="font-size: 40px; font-family: 'Arial'; fill: #2e3436; fill-opacity: 1.00; stroke: none;">Monitor Model</text></g><g id="ezcGraphTextBox_19"><path d=" M 54.0433,233.0500 L 54.0433,199.4500 L 114.9033,199.4500 L 114.9033,233.0500 L 54.0433,233.0500 z " style="fill: #ffffff; fill-opacity: 0.00; stroke: none;" id="ezcGraphPolygon_41"/><text id="ezcGraphTextBox_19_text" x="63.0233" text-length="50.8800px" y="213.5500" style="font-size: 16px; font-family: 'Arial'; fill: #2e3436; fill-opacity: 1.00; stroke: none;">Others</text><text id="ezcGraphTextBox_19_text" x="54.5433" text-length="59.3600px" y="231.1500" style="font-size: 16px; font-family: 'Arial'; fill: #2e3436; fill-opacity: 1.00; stroke: none;">(96.3%)</text></g><g id="ezcGraphTextBox_23" style=" cursor: pointer;" onclick="top.location = 'https://linux-hardware.org/?view=computers&amp;f=mon_model&amp;v=LG+Display+LCD+Monitor+LGD039F+1366x768+345x194mm+15.6-inch&amp;c=Japan'"><path d=" M 386.3038,255.0500 L 386.3038,221.4500 L 481.0838,221.4500 L 481.0838,255.0500 L 386.3038,255.0500 z " style="fill: #ffffff; fill-opacity: 0.00; stroke: none;" id="ezcGraphPolygon_42"/><text id="ezcGraphTextBox_23_text" x="386.8038" text-length="93.2800px" y="235.5500" style="font-size: 16px; font-family: 'Arial'; fill: #2e3436; fill-opacity: 1.00; stroke: none;">LGD039F ...</text><text id="ezcGraphTextBox_23_text" x="386.8038" text-length="50.8800px" y="253.1500" style="font-size: 16px; font-family: 'Arial'; fill: #2e3436; fill-opacity: 1.00; stroke: none;">(1.7%)</text></g><g id="ezcGraphTextBox_27" style=" cursor: pointer;" onclick="top.location = 'https://linux-hardware.org/?view=computers&amp;f=mon_model&amp;v=LG+Display+LCD+Monitor+LGD02DC+1366x768+344x194mm+15.5-inch&amp;c=Japan'"><path d=" M 379.2327,290.0500 L 379.2327,256.4500 L 474.0127,256.4500 L 474.0127,290.0500 L 379.2327,290.0500 z " style="fill: #ffffff; fill-opacity: 0.00; stroke: none;" id="ezcGraphPolygon_43"/><text id="ezcGraphTextBox_27_text" x="379.7327" text-length="93.2800px" y="270.5500" style="font-size: 16px; font-family: 'Arial'; fill: #2e3436; fill-opacity: 1.00; stroke: none;">LGD02DC ...</text><text id="ezcGraphTextBox_27_text" x="379.7327" text-length="50.8800px" y="288.1500" style="font-size: 16px; font-family: 'Arial'; fill: #2e3436; fill-opacity: 1.00; stroke: none;">(0.6%)</text></g><g id="ezcGraphTextBox_31" style=" cursor: pointer;" onclick="top.location = 'https://linux-hardware.org/?view=computers&amp;f=mon_model&amp;v=Apple+Color+LCD+APPA041+2560x1600+286x179mm+13.3-inch&amp;c=Japan'"><path d=" M 359.9683,325.0500 L 359.9683,291.4500 L 454.7483,291.4500 L 454.7483,325.0500 L 359.9683,325.0500 z " style="fill: #ffffff; fill-opacity: 0.00; stroke: none;" id="ezcGraphPolygon_44"/><text id="ezcGraphTextBox_31_text" x="360.4683" text-length="93.2800px" y="305.5500" style="font-size: 16px; font-family: 'Arial'; fill: #2e3436; fill-opacity: 1.00; stroke: none;">Color LC...</text><text id="ezcGraphTextBox_31_text" x="360.4683" text-length="50.8800px" y="323.1500" style="font-size: 16px; font-family: 'Arial'; fill: #2e3436; fill-opacity: 1.00; stroke: none;">(0.5%)</text></g><g id="ezcGraphTextBox_35" style=" cursor: pointer;" onclick="top.location = 'https://linux-hardware.org/?view=computers&amp;f=mon_model&amp;v=AU+Optronics+LCD+Monitor+AUO106C+1366x768+276x155mm+12.5-inch&amp;c=Japan'"><path d=" M 317.0068,352.0000 L 317.0068,334.5000 L 471.1468,334.5000 L 471.1468,352.0000 L 317.0068,352.0000 z " style="fill: #ffffff; fill-opacity: 0.00; stroke: none;" id="ezcGraphPolygon_45"/><text id="ezcGraphTextBox_35_text" x="317.5068" text-length="152.6400px" y="348.6000" style="font-size: 16px; font-family: 'Arial'; fill: #2e3436; fill-opacity: 1.00; stroke: none;">AUO106C ... (0.5%)</text></g><g id="ezcGraphTextBox_39" style=" cursor: pointer;" onclick="top.location = 'https://linux-hardware.org/?view=computers&amp;f=mon_model&amp;v=&amp;c=Japan'"><path d=" M 336.8508,387.0000 L 336.8508,369.5000 L 490.9908,369.5000 L 490.9908,387.0000 L 336.8508,387.0000 z " style="fill: #ffffff; fill-opacity: 0.00; stroke: none;" id="ezcGraphPolygon_46"/><text id="ezcGraphTextBox_39_text" x="337.3508" text-length="152.6400px" y="383.6000" style="font-size: 16px; font-family: 'Arial'; fill: #2e3436; fill-opacity: 1.00; stroke: none;">Asustek ... (0.5%)</text></g></g></svg>
