<?xml version="1.0"?>
<svg xmlns="http://www.w3.org/2000/svg" width="500" height="420" version="1.0" id="ezcGraph"><defs/><g id="ezcGraphChart" color-rendering="optimizeQuality" shape-rendering="geometricPrecision" text-rendering="optimizeLegibility"><path d=" M 0.0000,420.0000 L 0.0000,0.0000 L 500.0000,0.0000 L 500.0000,420.0000 L 0.0000,420.0000 z " style="fill: #eeeeec; fill-opacity: 1.00; stroke: none;" id="ezcGraphPolygon_1"/><path d=" M 0.0000,42.0000 L 0.0000,0.0000 L 500.0000,0.0000 L 500.0000,42.0000 L 0.0000,42.0000 z " style="fill: #000000; fill-opacity: 0.00; stroke: none;" id="ezcGraphPolygon_2"/><path d="M 261.02,236.89 L 373.52,236.89 A 112.50,112.50 0 0,1 323.53,330.43 z" style="fill: #3465a4; fill-opacity: 1.00; stroke: none; cursor: pointer;" id="ezcGraphCircleSector_4" onclick="top.location = 'https://linux-hardware.org/?view=computers&amp;f=os_kernel_family&amp;v=5.4.0&amp;c=Dominican+Republic'"/><path d="M 261.96,237.39 L 373.02,237.39 A 112.00,112.00 0 0,1 323.66,329.74 z" style="fill: none; stroke: #1a3352; stroke-width: 1; stroke-opacity: 1.00; stroke-linecap: round; stroke-linejoin: round;" id="ezcGraphCircleSector_5"/><path d="M 250.00,231.00 L 312.50,324.54 A 112.50,112.50 0 0,1 254.42,343.41 z" style="fill: #4e9a06; fill-opacity: 1.00; stroke: none; cursor: pointer;" id="ezcGraphCircleSector_6" onclick="top.location = 'https://linux-hardware.org/?view=computers&amp;f=os_kernel_family&amp;v=5.15.0&amp;c=Dominican+Republic'"/><path d="M 250.57,232.75 L 311.81,324.40 A 112.00,112.00 0 0,1 254.90,342.89 z" style="fill: none; stroke: #274d03; stroke-width: 1; stroke-opacity: 1.00; stroke-linecap: round; stroke-linejoin: round;" id="ezcGraphCircleSector_7"/><path d="M 250.00,231.00 L 254.42,343.41 A 112.50,112.50 0 0,1 211.06,336.55 z" style="fill: #cc0000; fill-opacity: 1.00; stroke: none; cursor: pointer;" id="ezcGraphCircleSector_8" onclick="top.location = 'https://linux-hardware.org/?view=computers&amp;f=os_kernel_family&amp;v=5.13.0&amp;c=Dominican+Republic'"/><path d="M 249.60,233.53 L 253.90,342.93 A 112.00,112.00 0 0,1 211.70,336.25 z" style="fill: none; stroke: #660000; stroke-width: 1; stroke-opacity: 1.00; stroke-linecap: round; stroke-linejoin: round;" id="ezcGraphCircleSector_9"/><path d="M 250.00,231.00 L 211.06,336.55 A 112.50,112.50 0 0,1 176.94,316.55 z" style="fill: #edd400; fill-opacity: 1.00; stroke: none; cursor: pointer;" id="ezcGraphCircleSector_10" onclick="top.location = 'https://linux-hardware.org/?view=computers&amp;f=os_kernel_family&amp;v=5.3.0&amp;c=Dominican+Republic'"/><path d="M 248.56,233.45 L 210.77,335.90 A 112.00,112.00 0 0,1 177.64,316.49 z" style="fill: none; stroke: #776a00; stroke-width: 1; stroke-opacity: 1.00; stroke-linecap: round; stroke-linejoin: round;" id="ezcGraphCircleSector_11"/><path d="M 250.00,231.00 L 176.94,316.55 A 112.50,112.50 0 0,1 154.08,289.78 z" style="fill: #75505b; fill-opacity: 1.00; stroke: none; cursor: pointer;" id="ezcGraphCircleSector_12" onclick="top.location = 'https://linux-hardware.org/?view=computers&amp;f=os_kernel_family&amp;v=5.11.0&amp;c=Dominican+Republic'"/><path d="M 247.57,233.08 L 176.88,315.84 A 112.00,112.00 0 0,1 154.77,289.95 z" style="fill: none; stroke: #3b282e; stroke-width: 1; stroke-opacity: 1.00; stroke-linecap: round; stroke-linejoin: round;" id="ezcGraphCircleSector_13"/><path d="M 250.00,231.00 L 154.08,289.78 A 112.50,112.50 0 1,1 362.50,231.00 z" style="fill: #f57900; fill-opacity: 1.00; stroke: none;" id="ezcGraphCircleSector_14"/><path d="M 249.86,230.50 L 154.24,289.09 A 112.00,112.00 0 1,1 362.00,230.50 z" style="fill: none; stroke: #7b3d00; stroke-width: 1; stroke-opacity: 1.00; stroke-linecap: round; stroke-linejoin: round;" id="ezcGraphCircleSector_15"/><path d=" M 227.3800,150.7954 L 212.6312,110.0000" style="fill: none; stroke: #000000; stroke-width: 1; stroke-opacity: 1.00; stroke-linecap: round; stroke-linejoin: round;" id="ezcGraphLine_16"/><ellipse cx="227.3800" cy="150.7954" rx="3.0000" ry="3.0000" style="fill: #000000; fill-opacity: 1.00; stroke: none;" id="ezcGraphCircle_17"/><ellipse cx="212.6312" cy="110.0000" rx="3.0000" ry="3.0000" style="fill: #000000; fill-opacity: 1.00; stroke: none;" id="ezcGraphCircle_18"/><path d=" M 186.6328,285.1207 L 148.7950,312.0000" style="fill: none; stroke: #000000; stroke-width: 1; stroke-opacity: 1.00; stroke-linecap: round; stroke-linejoin: round;" id="ezcGraphLine_20"/><ellipse cx="186.6328" cy="285.1207" rx="3.0000" ry="3.0000" style="fill: #000000; fill-opacity: 1.00; stroke: none;" id="ezcGraphCircle_21"/><ellipse cx="148.7950" cy="312.0000" rx="3.0000" ry="3.0000" style="fill: #000000; fill-opacity: 1.00; stroke: none;" id="ezcGraphCircle_22"/><path d=" M 207.8619,302.8945 L 204.2162,349.5000" style="fill: none; stroke: #000000; stroke-width: 1; stroke-opacity: 1.00; stroke-linecap: round; stroke-linejoin: round;" id="ezcGraphLine_24"/><ellipse cx="207.8619" cy="302.8945" rx="3.0000" ry="3.0000" style="fill: #000000; fill-opacity: 1.00; stroke: none;" id="ezcGraphCircle_25"/><ellipse cx="204.2162" cy="349.5000" rx="3.0000" ry="3.0000" style="fill: #000000; fill-opacity: 1.00; stroke: none;" id="ezcGraphCircle_26"/><path d=" M 236.9638,313.3074 L 236.9638,387.0000" style="fill: none; stroke: #000000; stroke-width: 1; stroke-opacity: 1.00; stroke-linecap: round; stroke-linejoin: round;" id="ezcGraphLine_28"/><ellipse cx="236.9638" cy="313.3074" rx="3.0000" ry="3.0000" style="fill: #000000; fill-opacity: 1.00; stroke: none;" id="ezcGraphCircle_29"/><ellipse cx="236.9638" cy="387.0000" rx="3.0000" ry="3.0000" style="fill: #000000; fill-opacity: 1.00; stroke: none;" id="ezcGraphCircle_30"/><path d=" M 334.5175,276.1755 L 363.3732,295.0000" style="fill: none; stroke: #000000; stroke-width: 1; stroke-opacity: 1.00; stroke-linecap: round; stroke-linejoin: round;" id="ezcGraphLine_32"/><ellipse cx="334.5175" cy="276.1755" rx="3.0000" ry="3.0000" style="fill: #000000; fill-opacity: 1.00; stroke: none;" id="ezcGraphCircle_33"/><ellipse cx="363.3732" cy="295.0000" rx="3.0000" ry="3.0000" style="fill: #000000; fill-opacity: 1.00; stroke: none;" id="ezcGraphCircle_34"/><path d=" M 275.7514,310.2547 L 297.2432,349.0000" style="fill: none; stroke: #000000; stroke-width: 1; stroke-opacity: 1.00; stroke-linecap: round; stroke-linejoin: round;" id="ezcGraphLine_36"/><ellipse cx="275.7514" cy="310.2547" rx="3.0000" ry="3.0000" style="fill: #000000; fill-opacity: 1.00; stroke: none;" id="ezcGraphCircle_37"/><ellipse cx="297.2432" cy="349.0000" rx="3.0000" ry="3.0000" style="fill: #000000; fill-opacity: 1.00; stroke: none;" id="ezcGraphCircle_38"/><g id="ezcGraphTextBox_3"><path d=" M 111.7000,42.0000 L 111.7000,0.5000 L 388.8000,0.5000 L 388.8000,42.0000 L 111.7000,42.0000 z " style="fill: #ffffff; fill-opacity: 0.00; stroke: none;" id="ezcGraphPolygon_40"/><text id="ezcGraphTextBox_3_text" x="112.2000" text-length="275.6000px" y="35.0000" style="font-size: 40px; font-family: 'Arial'; fill: #2e3436; fill-opacity: 1.00; stroke: none;">Kernel Family</text></g><g id="ezcGraphTextBox_19"><path d=" M 68.8612,120.2500 L 68.8612,100.2500 L 207.6312,100.2500 L 207.6312,120.2500 L 68.8612,120.2500 z " style="fill: #ffffff; fill-opacity: 0.00; stroke: none;" id="ezcGraphPolygon_41"/><text id="ezcGraphTextBox_19_text" x="69.3612" text-length="137.2700px" y="116.4750" style="font-size: 18px; font-family: 'Arial'; fill: #2e3436; fill-opacity: 1.00; stroke: none;">Others (58.8%)</text></g><g id="ezcGraphTextBox_23" style=" cursor: pointer;" onclick="top.location = 'https://linux-hardware.org/?view=computers&amp;f=os_kernel_family&amp;v=5.11.0&amp;c=Dominican+Republic'"><path d=" M 14.8300,322.2500 L 14.8300,302.2500 L 143.7950,302.2500 L 143.7950,322.2500 L 14.8300,322.2500 z " style="fill: #ffffff; fill-opacity: 0.00; stroke: none;" id="ezcGraphPolygon_42"/><text id="ezcGraphTextBox_23_text" x="15.3300" text-length="127.4650px" y="318.4750" style="font-size: 18px; font-family: 'Arial'; fill: #2e3436; fill-opacity: 1.00; stroke: none;">5.11.0 (5.0%)</text></g><g id="ezcGraphTextBox_27" style=" cursor: pointer;" onclick="top.location = 'https://linux-hardware.org/?view=computers&amp;f=os_kernel_family&amp;v=5.3.0&amp;c=Dominican+Republic'"><path d=" M 80.0562,359.7500 L 80.0562,339.7500 L 199.2162,339.7500 L 199.2162,359.7500 L 80.0562,359.7500 z " style="fill: #ffffff; fill-opacity: 0.00; stroke: none;" id="ezcGraphPolygon_43"/><text id="ezcGraphTextBox_27_text" x="80.5562" text-length="117.6600px" y="355.9750" style="font-size: 18px; font-family: 'Arial'; fill: #2e3436; fill-opacity: 1.00; stroke: none;">5.3.0 (5.6%)</text></g><g id="ezcGraphTextBox_31" style=" cursor: pointer;" onclick="top.location = 'https://linux-hardware.org/?view=computers&amp;f=os_kernel_family&amp;v=5.13.0&amp;c=Dominican+Republic'"><path d=" M 102.9988,397.2500 L 102.9988,377.2500 L 231.9638,377.2500 L 231.9638,397.2500 L 102.9988,397.2500 z " style="fill: #ffffff; fill-opacity: 0.00; stroke: none;" id="ezcGraphPolygon_44"/><text id="ezcGraphTextBox_31_text" x="103.4988" text-length="127.4650px" y="393.4750" style="font-size: 18px; font-family: 'Arial'; fill: #2e3436; fill-opacity: 1.00; stroke: none;">5.13.0 (6.2%)</text></g><g id="ezcGraphTextBox_35" style=" cursor: pointer;" onclick="top.location = 'https://linux-hardware.org/?view=computers&amp;f=os_kernel_family&amp;v=5.4.0&amp;c=Dominican+Republic'"><path d=" M 368.8732,305.2500 L 368.8732,285.2500 L 497.8382,285.2500 L 497.8382,305.2500 L 368.8732,305.2500 z " style="fill: #ffffff; fill-opacity: 0.00; stroke: none;" id="ezcGraphPolygon_45"/><text id="ezcGraphTextBox_35_text" x="369.3732" text-length="127.4650px" y="301.4750" style="font-size: 18px; font-family: 'Arial'; fill: #2e3436; fill-opacity: 1.00; stroke: none;">5.4.0 (15.6%)</text></g><g id="ezcGraphTextBox_39" style=" cursor: pointer;" onclick="top.location = 'https://linux-hardware.org/?view=computers&amp;f=os_kernel_family&amp;v=5.15.0&amp;c=Dominican+Republic'"><path d=" M 302.7432,359.2500 L 302.7432,339.2500 L 431.7082,339.2500 L 431.7082,359.2500 L 302.7432,359.2500 z " style="fill: #ffffff; fill-opacity: 0.00; stroke: none;" id="ezcGraphPolygon_46"/><text id="ezcGraphTextBox_39_text" x="303.2432" text-length="127.4650px" y="355.4750" style="font-size: 18px; font-family: 'Arial'; fill: #2e3436; fill-opacity: 1.00; stroke: none;">5.15.0 (8.8%)</text></g></g></svg>
