<?xml version="1.0"?>
<svg xmlns="http://www.w3.org/2000/svg" width="500" height="420" version="1.0" id="ezcGraph"><defs/><g id="ezcGraphChart" color-rendering="optimizeQuality" shape-rendering="geometricPrecision" text-rendering="optimizeLegibility"><path d=" M 0.0000,420.0000 L 0.0000,0.0000 L 500.0000,0.0000 L 500.0000,420.0000 L 0.0000,420.0000 z " style="fill: #eeeeec; fill-opacity: 1.00; stroke: none;" id="ezcGraphPolygon_1"/><path d=" M 0.0000,42.0000 L 0.0000,0.0000 L 500.0000,0.0000 L 500.0000,42.0000 L 0.0000,42.0000 z " style="fill: #000000; fill-opacity: 0.00; stroke: none;" id="ezcGraphPolygon_2"/><path d="M 262.49,231.57 L 374.99,231.57 A 112.50,112.50 0 0,1 374.52,241.86 z" style="fill: #3465a4; fill-opacity: 1.00; stroke: none;" id="ezcGraphCircleSector_4"/><path d="M 273.39,232.07 L 374.49,232.07 A 112.00,112.00 0 0,1 374.06,241.32 z" style="fill: none; stroke: #1a3352; stroke-width: 1; stroke-opacity: 1.00; stroke-linecap: round; stroke-linejoin: round;" id="ezcGraphCircleSector_5"/><path d="M 250.00,231.00 L 362.03,241.29 A 112.50,112.50 0 0,1 361.02,249.21 z" style="fill: #4e9a06; fill-opacity: 1.00; stroke: none;" id="ezcGraphCircleSector_6"/><path d="M 263.99,232.79 L 361.48,241.74 A 112.00,112.00 0 0,1 360.60,248.63 z" style="fill: none; stroke: #274d03; stroke-width: 1; stroke-opacity: 1.00; stroke-linecap: round; stroke-linejoin: round;" id="ezcGraphCircleSector_7"/><path d="M 250.00,231.00 L 361.02,249.21 A 112.50,112.50 0 0,1 359.82,255.41 z" style="fill: #cc0000; fill-opacity: 1.00; stroke: none;" id="ezcGraphCircleSector_8"/><path d="M 267.49,234.37 L 360.44,249.62 A 112.00,112.00 0 0,1 359.44,254.81 z" style="fill: none; stroke: #660000; stroke-width: 1; stroke-opacity: 1.00; stroke-linecap: round; stroke-linejoin: round;" id="ezcGraphCircleSector_9"/><path d="M 250.00,231.00 L 359.82,255.41 A 112.50,112.50 0 0,1 358.28,261.53 z" style="fill: #edd400; fill-opacity: 1.00; stroke: none;" id="ezcGraphCircleSector_10"/><path d="M 267.27,235.35 L 359.22,255.79 A 112.00,112.00 0 0,1 357.93,260.92 z" style="fill: none; stroke: #776a00; stroke-width: 1; stroke-opacity: 1.00; stroke-linecap: round; stroke-linejoin: round;" id="ezcGraphCircleSector_11"/><path d="M 250.00,231.00 L 358.28,261.53 A 112.50,112.50 0 0,1 356.50,267.25 z" style="fill: #75505b; fill-opacity: 1.00; stroke: none;" id="ezcGraphCircleSector_12"/><path d="M 267.95,236.58 L 357.66,261.88 A 112.00,112.00 0 0,1 356.19,266.61 z" style="fill: none; stroke: #3b282e; stroke-width: 1; stroke-opacity: 1.00; stroke-linecap: round; stroke-linejoin: round;" id="ezcGraphCircleSector_13"/><path d="M 250.00,231.00 L 356.50,267.25 A 112.50,112.50 0 1,1 362.50,231.00 z" style="fill: #f57900; fill-opacity: 1.00; stroke: none;" id="ezcGraphCircleSector_14"/><path d="M 246.98,230.50 L 355.87,267.56 A 112.00,112.00 0 1,1 362.00,230.50 z" style="fill: none; stroke: #7b3d00; stroke-width: 1; stroke-opacity: 1.00; stroke-linecap: round; stroke-linejoin: round;" id="ezcGraphCircleSector_15"/><path d=" M 167.7852,217.3925 L 120.7766,210.0000" style="fill: none; stroke: #000000; stroke-width: 1; stroke-opacity: 1.00; stroke-linecap: round; stroke-linejoin: round;" id="ezcGraphLine_16"/><ellipse cx="167.7852" cy="217.3925" rx="3.0000" ry="3.0000" style="fill: #000000; fill-opacity: 1.00; stroke: none;" id="ezcGraphCircle_17"/><ellipse cx="120.7766" cy="210.0000" rx="3.0000" ry="3.0000" style="fill: #000000; fill-opacity: 1.00; stroke: none;" id="ezcGraphCircle_18"/><path d=" M 345.7328,235.3885 L 380.8559,237.0000" style="fill: none; stroke: #000000; stroke-width: 1; stroke-opacity: 1.00; stroke-linecap: round; stroke-linejoin: round;" id="ezcGraphLine_20"/><ellipse cx="345.7328" cy="235.3885" rx="3.0000" ry="3.0000" style="fill: #000000; fill-opacity: 1.00; stroke: none;" id="ezcGraphCircle_21"/><ellipse cx="380.8559" cy="237.0000" rx="3.0000" ry="3.0000" style="fill: #000000; fill-opacity: 1.00; stroke: none;" id="ezcGraphCircle_22"/><path d=" M 332.6613,241.5617 L 374.0847,272.0000" style="fill: none; stroke: #000000; stroke-width: 1; stroke-opacity: 1.00; stroke-linecap: round; stroke-linejoin: round;" id="ezcGraphLine_24"/><ellipse cx="332.6613" cy="241.5617" rx="3.0000" ry="3.0000" style="fill: #000000; fill-opacity: 1.00; stroke: none;" id="ezcGraphCircle_25"/><ellipse cx="374.0847" cy="272.0000" rx="3.0000" ry="3.0000" style="fill: #000000; fill-opacity: 1.00; stroke: none;" id="ezcGraphCircle_26"/><path d=" M 331.8239,246.7893 L 355.2421,307.0000" style="fill: none; stroke: #000000; stroke-width: 1; stroke-opacity: 1.00; stroke-linecap: round; stroke-linejoin: round;" id="ezcGraphLine_28"/><ellipse cx="331.8239" cy="246.7893" rx="3.0000" ry="3.0000" style="fill: #000000; fill-opacity: 1.00; stroke: none;" id="ezcGraphCircle_29"/><ellipse cx="355.2421" cy="307.0000" rx="3.0000" ry="3.0000" style="fill: #000000; fill-opacity: 1.00; stroke: none;" id="ezcGraphCircle_30"/><path d=" M 330.8087,251.3566 L 313.4804,342.0000" style="fill: none; stroke: #000000; stroke-width: 1; stroke-opacity: 1.00; stroke-linecap: round; stroke-linejoin: round;" id="ezcGraphLine_32"/><ellipse cx="330.8087" cy="251.3566" rx="3.0000" ry="3.0000" style="fill: #000000; fill-opacity: 1.00; stroke: none;" id="ezcGraphCircle_33"/><ellipse cx="313.4804" cy="342.0000" rx="3.0000" ry="3.0000" style="fill: #000000; fill-opacity: 1.00; stroke: none;" id="ezcGraphCircle_34"/><path d=" M 329.5756,255.7422 L 329.5756,377.0000" style="fill: none; stroke: #000000; stroke-width: 1; stroke-opacity: 1.00; stroke-linecap: round; stroke-linejoin: round;" id="ezcGraphLine_36"/><ellipse cx="329.5756" cy="255.7422" rx="3.0000" ry="3.0000" style="fill: #000000; fill-opacity: 1.00; stroke: none;" id="ezcGraphCircle_37"/><ellipse cx="329.5756" cy="377.0000" rx="3.0000" ry="3.0000" style="fill: #000000; fill-opacity: 1.00; stroke: none;" id="ezcGraphCircle_38"/><g id="ezcGraphTextBox_3"><path d=" M 207.1000,42.0000 L 207.1000,0.5000 L 293.4000,0.5000 L 293.4000,42.0000 L 207.1000,42.0000 z " style="fill: #ffffff; fill-opacity: 0.00; stroke: none;" id="ezcGraphPolygon_40"/><text id="ezcGraphTextBox_3_text" x="207.6000" text-length="84.8000px" y="35.0000" style="font-size: 40px; font-family: 'Arial'; fill: #2e3436; fill-opacity: 1.00; stroke: none;">City</text></g><g id="ezcGraphTextBox_19"><path d=" M 54.9166,227.0500 L 54.9166,193.4500 L 115.7766,193.4500 L 115.7766,227.0500 L 54.9166,227.0500 z " style="fill: #ffffff; fill-opacity: 0.00; stroke: none;" id="ezcGraphPolygon_41"/><text id="ezcGraphTextBox_19_text" x="63.8966" text-length="50.8800px" y="207.5500" style="font-size: 16px; font-family: 'Arial'; fill: #2e3436; fill-opacity: 1.00; stroke: none;">Others</text><text id="ezcGraphTextBox_19_text" x="55.4166" text-length="59.3600px" y="225.1500" style="font-size: 16px; font-family: 'Arial'; fill: #2e3436; fill-opacity: 1.00; stroke: none;">(94.8%)</text></g><g id="ezcGraphTextBox_23"><path d=" M 386.3559,246.0000 L 386.3559,228.5000 L 498.0959,228.5000 L 498.0959,246.0000 L 386.3559,246.0000 z " style="fill: #ffffff; fill-opacity: 0.00; stroke: none;" id="ezcGraphPolygon_42"/><text id="ezcGraphTextBox_23_text" x="386.8559" text-length="110.2400px" y="242.6000" style="font-size: 16px; font-family: 'Arial'; fill: #2e3436; fill-opacity: 1.00; stroke: none;">Berlin (1.5%)</text></g><g id="ezcGraphTextBox_27"><path d=" M 379.5847,281.0000 L 379.5847,263.5000 L 491.3247,263.5000 L 491.3247,281.0000 L 379.5847,281.0000 z " style="fill: #ffffff; fill-opacity: 0.00; stroke: none;" id="ezcGraphPolygon_43"/><text id="ezcGraphTextBox_27_text" x="380.0847" text-length="110.2400px" y="277.6000" style="font-size: 16px; font-family: 'Arial'; fill: #2e3436; fill-opacity: 1.00; stroke: none;">Moscow (1.1%)</text></g><g id="ezcGraphTextBox_31"><path d=" M 360.7421,316.0000 L 360.7421,298.5000 L 472.4821,298.5000 L 472.4821,316.0000 L 360.7421,316.0000 z " style="fill: #ffffff; fill-opacity: 0.00; stroke: none;" id="ezcGraphPolygon_44"/><text id="ezcGraphTextBox_31_text" x="361.2421" text-length="110.2400px" y="312.6000" style="font-size: 16px; font-family: 'Arial'; fill: #2e3436; fill-opacity: 1.00; stroke: none;">Prague (0.9%)</text></g><g id="ezcGraphTextBox_35"><path d=" M 318.9804,351.0000 L 318.9804,333.5000 L 422.2404,333.5000 L 422.2404,351.0000 L 318.9804,351.0000 z " style="fill: #ffffff; fill-opacity: 0.00; stroke: none;" id="ezcGraphPolygon_45"/><text id="ezcGraphTextBox_35_text" x="319.4804" text-length="101.7600px" y="347.6000" style="font-size: 16px; font-family: 'Arial'; fill: #2e3436; fill-opacity: 1.00; stroke: none;">Paris (0.9%)</text></g><g id="ezcGraphTextBox_39"><path d=" M 335.0756,394.0500 L 335.0756,360.4500 L 472.2556,360.4500 L 472.2556,394.0500 L 335.0756,394.0500 z " style="fill: #ffffff; fill-opacity: 0.00; stroke: none;" id="ezcGraphPolygon_46"/><text id="ezcGraphTextBox_39_text" x="335.5756" text-length="135.6800px" y="374.5500" style="font-size: 16px; font-family: 'Arial'; fill: #2e3436; fill-opacity: 1.00; stroke: none;">Frankfurt am ...</text><text id="ezcGraphTextBox_39_text" x="335.5756" text-length="50.8800px" y="392.1500" style="font-size: 16px; font-family: 'Arial'; fill: #2e3436; fill-opacity: 1.00; stroke: none;">(0.8%)</text></g></g></svg>
