<?xml version="1.0"?>
<svg xmlns="http://www.w3.org/2000/svg" width="500" height="420" version="1.0" id="ezcGraph"><defs/><g id="ezcGraphChart" color-rendering="optimizeQuality" shape-rendering="geometricPrecision" text-rendering="optimizeLegibility"><path d=" M 0.0000,420.0000 L 0.0000,0.0000 L 500.0000,0.0000 L 500.0000,420.0000 L 0.0000,420.0000 z " style="fill: #eeeeec; fill-opacity: 1.00; stroke: none;" id="ezcGraphPolygon_1"/><path d=" M 0.0000,42.0000 L 0.0000,0.0000 L 500.0000,0.0000 L 500.0000,42.0000 L 0.0000,42.0000 z " style="fill: #000000; fill-opacity: 0.00; stroke: none;" id="ezcGraphPolygon_2"/><path d="M 251.57,243.40 L 364.07,243.40 A 112.50,112.50 0 0,1 142.65,271.52 z" style="fill: #3465a4; fill-opacity: 1.00; stroke: none; cursor: pointer;" id="ezcGraphCircleSector_4" onclick="top.location = 'https://linux-hardware.org/?view=computers&amp;f=net_wireless_vendor&amp;v=Intel&amp;c=Australia'"/><path d="M 251.64,243.90 L 363.57,243.90 A 112.00,112.00 0 0,1 143.25,271.88 z" style="fill: none; stroke: #1a3352; stroke-width: 1; stroke-opacity: 1.00; stroke-linecap: round; stroke-linejoin: round;" id="ezcGraphCircleSector_5"/><path d="M 250.00,231.00 L 141.07,259.12 A 112.50,112.50 0 0,1 160.40,162.98 z" style="fill: #4e9a06; fill-opacity: 1.00; stroke: none; cursor: pointer;" id="ezcGraphCircleSector_6" onclick="top.location = 'https://linux-hardware.org/?view=computers&amp;f=net_wireless_vendor&amp;v=Realtek+Semiconductor&amp;c=Australia'"/><path d="M 248.88,230.77 L 141.43,258.51 A 112.00,112.00 0 0,1 160.49,163.68 z" style="fill: none; stroke: #274d03; stroke-width: 1; stroke-opacity: 1.00; stroke-linecap: round; stroke-linejoin: round;" id="ezcGraphCircleSector_7"/><path d="M 250.00,231.00 L 160.40,162.98 A 112.50,112.50 0 0,1 237.91,119.15 z" style="fill: #cc0000; fill-opacity: 1.00; stroke: none; cursor: pointer;" id="ezcGraphCircleSector_8" onclick="top.location = 'https://linux-hardware.org/?view=computers&amp;f=net_wireless_vendor&amp;v=Qualcomm+Atheros&amp;c=Australia'"/><path d="M 249.38,229.90 L 161.10,162.88 A 112.00,112.00 0 0,1 237.47,119.70 z" style="fill: none; stroke: #660000; stroke-width: 1; stroke-opacity: 1.00; stroke-linecap: round; stroke-linejoin: round;" id="ezcGraphCircleSector_9"/><path d="M 250.00,231.00 L 237.91,119.15 A 112.50,112.50 0 0,1 296.88,128.73 z" style="fill: #edd400; fill-opacity: 1.00; stroke: none; cursor: pointer;" id="ezcGraphCircleSector_10" onclick="top.location = 'https://linux-hardware.org/?view=computers&amp;f=net_wireless_vendor&amp;v=Broadcom&amp;c=Australia'"/><path d="M 250.30,229.14 L 238.46,119.59 A 112.00,112.00 0 0,1 296.21,128.98 z" style="fill: none; stroke: #776a00; stroke-width: 1; stroke-opacity: 1.00; stroke-linecap: round; stroke-linejoin: round;" id="ezcGraphCircleSector_11"/><path d="M 250.00,231.00 L 296.88,128.73 A 112.50,112.50 0 0,1 316.88,140.54 z" style="fill: #75505b; fill-opacity: 1.00; stroke: none; cursor: pointer;" id="ezcGraphCircleSector_12" onclick="top.location = 'https://linux-hardware.org/?view=computers&amp;f=net_wireless_vendor&amp;v=MediaTek&amp;c=Australia'"/><path d="M 252.46,226.83 L 297.12,129.39 A 112.00,112.00 0 0,1 316.18,140.64 z" style="fill: none; stroke: #3b282e; stroke-width: 1; stroke-opacity: 1.00; stroke-linecap: round; stroke-linejoin: round;" id="ezcGraphCircleSector_13"/><path d="M 250.00,231.00 L 316.88,140.54 A 112.50,112.50 0 0,1 362.50,231.00 z" style="fill: #f57900; fill-opacity: 1.00; stroke: none;" id="ezcGraphCircleSector_14"/><path d="M 250.99,230.50 L 316.98,141.24 A 112.00,112.00 0 0,1 362.00,230.50 z" style="fill: none; stroke: #7b3d00; stroke-width: 1; stroke-opacity: 1.00; stroke-linecap: round; stroke-linejoin: round;" id="ezcGraphCircleSector_15"/><path d=" M 208.9876,158.4574 L 182.8118,122.0000" style="fill: none; stroke: #000000; stroke-width: 1; stroke-opacity: 1.00; stroke-linecap: round; stroke-linejoin: round;" id="ezcGraphLine_16"/><ellipse cx="208.9876" cy="158.4574" rx="3.0000" ry="3.0000" style="fill: #000000; fill-opacity: 1.00; stroke: none;" id="ezcGraphCircle_17"/><ellipse cx="182.8118" cy="122.0000" rx="3.0000" ry="3.0000" style="fill: #000000; fill-opacity: 1.00; stroke: none;" id="ezcGraphCircle_18"/><path d=" M 168.3008,214.5780 L 121.5255,206.0000" style="fill: none; stroke: #000000; stroke-width: 1; stroke-opacity: 1.00; stroke-linecap: round; stroke-linejoin: round;" id="ezcGraphLine_20"/><ellipse cx="168.3008" cy="214.5780" rx="3.0000" ry="3.0000" style="fill: #000000; fill-opacity: 1.00; stroke: none;" id="ezcGraphCircle_21"/><ellipse cx="121.5255" cy="206.0000" rx="3.0000" ry="3.0000" style="fill: #000000; fill-opacity: 1.00; stroke: none;" id="ezcGraphCircle_22"/><path d=" M 263.3640,148.7452 L 271.7797,107.0000" style="fill: none; stroke: #000000; stroke-width: 1; stroke-opacity: 1.00; stroke-linecap: round; stroke-linejoin: round;" id="ezcGraphLine_24"/><ellipse cx="263.3640" cy="148.7452" rx="3.0000" ry="3.0000" style="fill: #000000; fill-opacity: 1.00; stroke: none;" id="ezcGraphCircle_25"/><ellipse cx="271.7797" cy="107.0000" rx="3.0000" ry="3.0000" style="fill: #000000; fill-opacity: 1.00; stroke: none;" id="ezcGraphCircle_26"/><path d=" M 292.3581,159.2348 L 346.2372,144.5000" style="fill: none; stroke: #000000; stroke-width: 1; stroke-opacity: 1.00; stroke-linecap: round; stroke-linejoin: round;" id="ezcGraphLine_28"/><ellipse cx="292.3581" cy="159.2348" rx="3.0000" ry="3.0000" style="fill: #000000; fill-opacity: 1.00; stroke: none;" id="ezcGraphCircle_29"/><ellipse cx="346.2372" cy="144.5000" rx="3.0000" ry="3.0000" style="fill: #000000; fill-opacity: 1.00; stroke: none;" id="ezcGraphCircle_30"/><path d=" M 324.4070,193.4762 L 370.9957,182.0000" style="fill: none; stroke: #000000; stroke-width: 1; stroke-opacity: 1.00; stroke-linecap: round; stroke-linejoin: round;" id="ezcGraphLine_32"/><ellipse cx="324.4070" cy="193.4762" rx="3.0000" ry="3.0000" style="fill: #000000; fill-opacity: 1.00; stroke: none;" id="ezcGraphCircle_33"/><ellipse cx="370.9957" cy="182.0000" rx="3.0000" ry="3.0000" style="fill: #000000; fill-opacity: 1.00; stroke: none;" id="ezcGraphCircle_34"/><path d=" M 262.0724,326.0699 L 262.0724,367.0000" style="fill: none; stroke: #000000; stroke-width: 1; stroke-opacity: 1.00; stroke-linecap: round; stroke-linejoin: round;" id="ezcGraphLine_36"/><ellipse cx="262.0724" cy="326.0699" rx="3.0000" ry="3.0000" style="fill: #000000; fill-opacity: 1.00; stroke: none;" id="ezcGraphCircle_37"/><ellipse cx="262.0724" cy="367.0000" rx="3.0000" ry="3.0000" style="fill: #000000; fill-opacity: 1.00; stroke: none;" id="ezcGraphCircle_38"/><g id="ezcGraphTextBox_3"><path d=" M 90.5000,42.0000 L 90.5000,0.5000 L 410.0000,0.5000 L 410.0000,42.0000 L 90.5000,42.0000 z " style="fill: #ffffff; fill-opacity: 0.00; stroke: none;" id="ezcGraphPolygon_40"/><text id="ezcGraphTextBox_3_text" x="91.0000" text-length="318.0000px" y="35.0000" style="font-size: 40px; font-family: 'Arial'; fill: #2e3436; fill-opacity: 1.00; stroke: none;">Wireless Vendor</text></g><g id="ezcGraphTextBox_19" style=" cursor: pointer;" onclick="top.location = 'https://linux-hardware.org/?view=computers&amp;f=net_wireless_vendor&amp;v=Qualcomm+Atheros&amp;c=Australia'"><path d=" M 66.0718,136.0500 L 66.0718,108.4500 L 177.8118,108.4500 L 177.8118,136.0500 L 66.0718,136.0500 z " style="fill: #ffffff; fill-opacity: 0.00; stroke: none;" id="ezcGraphPolygon_41"/><text id="ezcGraphTextBox_19_text" x="66.5718" text-length="110.2400px" y="120.0000" style="font-size: 13px; font-family: 'Arial'; fill: #2e3436; fill-opacity: 1.00; stroke: none;">Qualcomm Atheros</text><text id="ezcGraphTextBox_19_text" x="128.5818" text-length="48.2300px" y="134.3000" style="font-size: 13px; font-family: 'Arial'; fill: #2e3436; fill-opacity: 1.00; stroke: none;">(13.0%)</text></g><g id="ezcGraphTextBox_23" style=" cursor: pointer;" onclick="top.location = 'https://linux-hardware.org/?view=computers&amp;f=net_wireless_vendor&amp;v=Realtek+Semiconductor&amp;c=Australia'"><path d=" M 4.7855,220.0500 L 4.7855,192.4500 L 116.5255,192.4500 L 116.5255,220.0500 L 4.7855,220.0500 z " style="fill: #ffffff; fill-opacity: 0.00; stroke: none;" id="ezcGraphPolygon_42"/><text id="ezcGraphTextBox_23_text" x="5.2855" text-length="110.2400px" y="204.0000" style="font-size: 13px; font-family: 'Arial'; fill: #2e3436; fill-opacity: 1.00; stroke: none;">Realtek Semic...</text><text id="ezcGraphTextBox_23_text" x="67.2955" text-length="48.2300px" y="218.3000" style="font-size: 13px; font-family: 'Arial'; fill: #2e3436; fill-opacity: 1.00; stroke: none;">(14.4%)</text></g><g id="ezcGraphTextBox_27" style=" cursor: pointer;" onclick="top.location = 'https://linux-hardware.org/?view=computers&amp;f=net_wireless_vendor&amp;v=Broadcom&amp;c=Australia'"><path d=" M 277.2797,114.5000 L 277.2797,100.0000 L 382.1297,100.0000 L 382.1297,114.5000 L 277.2797,114.5000 z " style="fill: #ffffff; fill-opacity: 0.00; stroke: none;" id="ezcGraphPolygon_43"/><text id="ezcGraphTextBox_27_text" x="277.7797" text-length="103.3500px" y="111.5500" style="font-size: 13px; font-family: 'Arial'; fill: #2e3436; fill-opacity: 1.00; stroke: none;">Broadcom (8.6%)</text></g><g id="ezcGraphTextBox_31" style=" cursor: pointer;" onclick="top.location = 'https://linux-hardware.org/?view=computers&amp;f=net_wireless_vendor&amp;v=MediaTek&amp;c=Australia'"><path d=" M 351.7372,152.0000 L 351.7372,137.5000 L 456.5872,137.5000 L 456.5872,152.0000 L 351.7372,152.0000 z " style="fill: #ffffff; fill-opacity: 0.00; stroke: none;" id="ezcGraphPolygon_44"/><text id="ezcGraphTextBox_31_text" x="352.2372" text-length="103.3500px" y="149.0500" style="font-size: 13px; font-family: 'Arial'; fill: #2e3436; fill-opacity: 1.00; stroke: none;">MediaTek (3.3%)</text></g><g id="ezcGraphTextBox_35"><path d=" M 376.4957,196.0500 L 376.4957,168.4500 L 426.2257,168.4500 L 426.2257,196.0500 L 376.4957,196.0500 z " style="fill: #ffffff; fill-opacity: 0.00; stroke: none;" id="ezcGraphPolygon_45"/><text id="ezcGraphTextBox_35_text" x="376.9957" text-length="41.3400px" y="180.0000" style="font-size: 13px; font-family: 'Arial'; fill: #2e3436; fill-opacity: 1.00; stroke: none;">Others</text><text id="ezcGraphTextBox_35_text" x="376.9957" text-length="48.2300px" y="194.3000" style="font-size: 13px; font-family: 'Arial'; fill: #2e3436; fill-opacity: 1.00; stroke: none;">(14.9%)</text></g><g id="ezcGraphTextBox_39" style=" cursor: pointer;" onclick="top.location = 'https://linux-hardware.org/?view=computers&amp;f=net_wireless_vendor&amp;v=Intel&amp;c=Australia'"><path d=" M 267.5724,374.5000 L 267.5724,360.0000 L 358.6424,360.0000 L 358.6424,374.5000 L 267.5724,374.5000 z " style="fill: #ffffff; fill-opacity: 0.00; stroke: none;" id="ezcGraphPolygon_46"/><text id="ezcGraphTextBox_39_text" x="268.0724" text-length="89.5700px" y="371.5500" style="font-size: 13px; font-family: 'Arial'; fill: #2e3436; fill-opacity: 1.00; stroke: none;">Intel (46.0%)</text></g></g></svg>
