<?xml version="1.0"?>
<svg xmlns="http://www.w3.org/2000/svg" width="500" height="420" version="1.0" id="ezcGraph"><defs/><g id="ezcGraphChart" color-rendering="optimizeQuality" shape-rendering="geometricPrecision" text-rendering="optimizeLegibility"><path d=" M 0.0000,420.0000 L 0.0000,0.0000 L 500.0000,0.0000 L 500.0000,420.0000 L 0.0000,420.0000 z " style="fill: #eeeeec; fill-opacity: 1.00; stroke: none;" id="ezcGraphPolygon_1"/><path d=" M 0.0000,42.0000 L 0.0000,0.0000 L 500.0000,0.0000 L 500.0000,42.0000 L 0.0000,42.0000 z " style="fill: #000000; fill-opacity: 0.00; stroke: none;" id="ezcGraphPolygon_2"/><path d="M 257.43,241.05 L 369.93,241.05 A 112.50,112.50 0 0,1 224.49,348.62 z" style="fill: #3465a4; fill-opacity: 1.00; stroke: none; cursor: pointer;" id="ezcGraphCircleSector_4" onclick="top.location = 'https://linux-hardware.org/?view=computers&amp;type=desktop&amp;f=memory_speed&amp;v=2667'"/><path d="M 257.80,241.55 L 369.43,241.55 A 112.00,112.00 0 0,1 225.11,348.29 z" style="fill: none; stroke: #1a3352; stroke-width: 1; stroke-opacity: 1.00; stroke-linecap: round; stroke-linejoin: round;" id="ezcGraphCircleSector_5"/><path d="M 250.00,231.00 L 217.06,338.57 A 112.50,112.50 0 0,1 141.13,259.35 z" style="fill: #4e9a06; fill-opacity: 1.00; stroke: none; cursor: pointer;" id="ezcGraphCircleSector_6" onclick="top.location = 'https://linux-hardware.org/?view=computers&amp;type=desktop&amp;f=memory_speed&amp;v=3200'"/><path d="M 249.26,231.71 L 216.73,337.94 A 112.00,112.00 0 0,1 141.74,259.71 z" style="fill: none; stroke: #274d03; stroke-width: 1; stroke-opacity: 1.00; stroke-linecap: round; stroke-linejoin: round;" id="ezcGraphCircleSector_7"/><path d="M 250.00,231.00 L 141.13,259.35 A 112.50,112.50 0 0,1 143.93,193.52 z" style="fill: #cc0000; fill-opacity: 1.00; stroke: none; cursor: pointer;" id="ezcGraphCircleSector_8" onclick="top.location = 'https://linux-hardware.org/?view=computers&amp;type=desktop&amp;f=memory_speed&amp;v=1333'"/><path d="M 248.29,230.93 L 141.49,258.74 A 112.00,112.00 0 0,1 144.23,194.16 z" style="fill: none; stroke: #660000; stroke-width: 1; stroke-opacity: 1.00; stroke-linecap: round; stroke-linejoin: round;" id="ezcGraphCircleSector_9"/><path d="M 250.00,231.00 L 143.93,193.52 A 112.50,112.50 0 0,1 168.78,153.16 z" style="fill: #edd400; fill-opacity: 1.00; stroke: none; cursor: pointer;" id="ezcGraphCircleSector_10" onclick="top.location = 'https://linux-hardware.org/?view=computers&amp;type=desktop&amp;f=memory_speed&amp;v=2400'"/><path d="M 247.98,229.76 L 144.56,193.22 A 112.00,112.00 0 0,1 168.79,153.86 z" style="fill: none; stroke: #776a00; stroke-width: 1; stroke-opacity: 1.00; stroke-linecap: round; stroke-linejoin: round;" id="ezcGraphCircleSector_11"/><path d="M 250.00,231.00 L 168.78,153.16 A 112.50,112.50 0 0,1 199.35,130.55 z" style="fill: #75505b; fill-opacity: 1.00; stroke: none; cursor: pointer;" id="ezcGraphCircleSector_12" onclick="top.location = 'https://linux-hardware.org/?view=computers&amp;type=desktop&amp;f=memory_speed&amp;v=2133'"/><path d="M 248.24,228.62 L 169.49,153.14 A 112.00,112.00 0 0,1 199.13,131.22 z" style="fill: none; stroke: #3b282e; stroke-width: 1; stroke-opacity: 1.00; stroke-linecap: round; stroke-linejoin: round;" id="ezcGraphCircleSector_13"/><path d="M 250.00,231.00 L 199.35,130.55 A 112.50,112.50 0 0,1 362.50,231.00 z" style="fill: #f57900; fill-opacity: 1.00; stroke: none;" id="ezcGraphCircleSector_14"/><path d="M 250.31,230.50 L 200.02,130.77 A 112.00,112.00 0 0,1 362.00,230.50 z" style="fill: none; stroke: #7b3d00; stroke-width: 1; stroke-opacity: 1.00; stroke-linecap: round; stroke-linejoin: round;" id="ezcGraphCircleSector_15"/><path d=" M 200.4472,164.0002 L 170.3522,130.0000" style="fill: none; stroke: #000000; stroke-width: 1; stroke-opacity: 1.00; stroke-linecap: round; stroke-linejoin: round;" id="ezcGraphLine_16"/><ellipse cx="200.4472" cy="164.0002" rx="3.0000" ry="3.0000" style="fill: #000000; fill-opacity: 1.00; stroke: none;" id="ezcGraphCircle_17"/><ellipse cx="170.3522" cy="130.0000" rx="3.0000" ry="3.0000" style="fill: #000000; fill-opacity: 1.00; stroke: none;" id="ezcGraphCircle_18"/><path d=" M 179.0392,187.3077 L 136.3304,167.5000" style="fill: none; stroke: #000000; stroke-width: 1; stroke-opacity: 1.00; stroke-linecap: round; stroke-linejoin: round;" id="ezcGraphLine_20"/><ellipse cx="179.0392" cy="187.3077" rx="3.0000" ry="3.0000" style="fill: #000000; fill-opacity: 1.00; stroke: none;" id="ezcGraphCircle_21"/><ellipse cx="136.3304" cy="167.5000" rx="3.0000" ry="3.0000" style="fill: #000000; fill-opacity: 1.00; stroke: none;" id="ezcGraphCircle_22"/><path d=" M 166.7418,227.4632 L 119.1441,225.0000" style="fill: none; stroke: #000000; stroke-width: 1; stroke-opacity: 1.00; stroke-linecap: round; stroke-linejoin: round;" id="ezcGraphLine_24"/><ellipse cx="166.7418" cy="227.4632" rx="3.0000" ry="3.0000" style="fill: #000000; fill-opacity: 1.00; stroke: none;" id="ezcGraphCircle_25"/><ellipse cx="119.1441" cy="225.0000" rx="3.0000" ry="3.0000" style="fill: #000000; fill-opacity: 1.00; stroke: none;" id="ezcGraphCircle_26"/><path d=" M 189.8370,288.6616 L 153.2862,317.0000" style="fill: none; stroke: #000000; stroke-width: 1; stroke-opacity: 1.00; stroke-linecap: round; stroke-linejoin: round;" id="ezcGraphLine_28"/><ellipse cx="189.8370" cy="288.6616" rx="3.0000" ry="3.0000" style="fill: #000000; fill-opacity: 1.00; stroke: none;" id="ezcGraphCircle_29"/><ellipse cx="153.2862" cy="317.0000" rx="3.0000" ry="3.0000" style="fill: #000000; fill-opacity: 1.00; stroke: none;" id="ezcGraphCircle_30"/><path d=" M 293.6923,160.0392 L 320.6220,124.0000" style="fill: none; stroke: #000000; stroke-width: 1; stroke-opacity: 1.00; stroke-linecap: round; stroke-linejoin: round;" id="ezcGraphLine_32"/><ellipse cx="293.6923" cy="160.0392" rx="3.0000" ry="3.0000" style="fill: #000000; fill-opacity: 1.00; stroke: none;" id="ezcGraphCircle_33"/><ellipse cx="320.6220" cy="124.0000" rx="3.0000" ry="3.0000" style="fill: #000000; fill-opacity: 1.00; stroke: none;" id="ezcGraphCircle_34"/><path d=" M 306.9857,308.0497 L 315.3717,341.0000" style="fill: none; stroke: #000000; stroke-width: 1; stroke-opacity: 1.00; stroke-linecap: round; stroke-linejoin: round;" id="ezcGraphLine_36"/><ellipse cx="306.9857" cy="308.0497" rx="3.0000" ry="3.0000" style="fill: #000000; fill-opacity: 1.00; stroke: none;" id="ezcGraphCircle_37"/><ellipse cx="315.3717" cy="341.0000" rx="3.0000" ry="3.0000" style="fill: #000000; fill-opacity: 1.00; stroke: none;" id="ezcGraphCircle_38"/><g id="ezcGraphTextBox_3"><path d=" M 122.3000,42.0000 L 122.3000,0.5000 L 378.2000,0.5000 L 378.2000,42.0000 L 122.3000,42.0000 z " style="fill: #ffffff; fill-opacity: 0.00; stroke: none;" id="ezcGraphPolygon_40"/><text id="ezcGraphTextBox_3_text" x="122.8000" text-length="254.4000px" y="35.0000" style="font-size: 40px; font-family: 'Arial'; fill: #2e3436; fill-opacity: 1.00; stroke: none;">Memory Speed</text></g><g id="ezcGraphTextBox_19" style=" cursor: pointer;" onclick="top.location = 'https://linux-hardware.org/?view=computers&amp;type=desktop&amp;f=memory_speed&amp;v=2133'"><path d=" M 55.9972,140.2500 L 55.9972,120.2500 L 165.3522,120.2500 L 165.3522,140.2500 L 55.9972,140.2500 z " style="fill: #ffffff; fill-opacity: 0.00; stroke: none;" id="ezcGraphPolygon_41"/><text id="ezcGraphTextBox_19_text" x="56.4972" text-length="107.8550px" y="136.4750" style="font-size: 18px; font-family: 'Arial'; fill: #2e3436; fill-opacity: 1.00; stroke: none;">2133 (5.4%)</text></g><g id="ezcGraphTextBox_23" style=" cursor: pointer;" onclick="top.location = 'https://linux-hardware.org/?view=computers&amp;type=desktop&amp;f=memory_speed&amp;v=2400'"><path d=" M 21.9754,177.7500 L 21.9754,157.7500 L 131.3304,157.7500 L 131.3304,177.7500 L 21.9754,177.7500 z " style="fill: #ffffff; fill-opacity: 0.00; stroke: none;" id="ezcGraphPolygon_42"/><text id="ezcGraphTextBox_23_text" x="22.4754" text-length="107.8550px" y="173.9750" style="font-size: 18px; font-family: 'Arial'; fill: #2e3436; fill-opacity: 1.00; stroke: none;">2400 (6.8%)</text></g><g id="ezcGraphTextBox_27" style=" cursor: pointer;" onclick="top.location = 'https://linux-hardware.org/?view=computers&amp;type=desktop&amp;f=memory_speed&amp;v=1333'"><path d=" M 4.7891,235.2500 L 4.7891,215.2500 L 114.1441,215.2500 L 114.1441,235.2500 L 4.7891,235.2500 z " style="fill: #ffffff; fill-opacity: 0.00; stroke: none;" id="ezcGraphPolygon_43"/><text id="ezcGraphTextBox_27_text" x="5.2891" text-length="107.8550px" y="231.4750" style="font-size: 18px; font-family: 'Arial'; fill: #2e3436; fill-opacity: 1.00; stroke: none;">1333 (9.5%)</text></g><g id="ezcGraphTextBox_31" style=" cursor: pointer;" onclick="top.location = 'https://linux-hardware.org/?view=computers&amp;type=desktop&amp;f=memory_speed&amp;v=3200'"><path d=" M 29.1262,327.2500 L 29.1262,307.2500 L 148.2862,307.2500 L 148.2862,327.2500 L 29.1262,327.2500 z " style="fill: #ffffff; fill-opacity: 0.00; stroke: none;" id="ezcGraphPolygon_44"/><text id="ezcGraphTextBox_31_text" x="29.6262" text-length="117.6600px" y="323.4750" style="font-size: 18px; font-family: 'Arial'; fill: #2e3436; fill-opacity: 1.00; stroke: none;">3200 (16.2%)</text></g><g id="ezcGraphTextBox_35"><path d=" M 326.1220,134.2500 L 326.1220,114.2500 L 464.8920,114.2500 L 464.8920,134.2500 L 326.1220,134.2500 z " style="fill: #ffffff; fill-opacity: 0.00; stroke: none;" id="ezcGraphPolygon_45"/><text id="ezcGraphTextBox_35_text" x="326.6220" text-length="137.2700px" y="130.4750" style="font-size: 18px; font-family: 'Arial'; fill: #2e3436; fill-opacity: 1.00; stroke: none;">Others (32.4%)</text></g><g id="ezcGraphTextBox_39" style=" cursor: pointer;" onclick="top.location = 'https://linux-hardware.org/?view=computers&amp;type=desktop&amp;f=memory_speed&amp;v=2667'"><path d=" M 320.8717,351.2500 L 320.8717,331.2500 L 440.0317,331.2500 L 440.0317,351.2500 L 320.8717,351.2500 z " style="fill: #ffffff; fill-opacity: 0.00; stroke: none;" id="ezcGraphPolygon_46"/><text id="ezcGraphTextBox_39_text" x="321.3717" text-length="117.6600px" y="347.4750" style="font-size: 18px; font-family: 'Arial'; fill: #2e3436; fill-opacity: 1.00; stroke: none;">2667 (29.7%)</text></g></g></svg>
