<?xml version="1.0"?>
<svg xmlns="http://www.w3.org/2000/svg" width="500" height="420" version="1.0" id="ezcGraph"><defs/><g id="ezcGraphChart" color-rendering="optimizeQuality" shape-rendering="geometricPrecision" text-rendering="optimizeLegibility"><path d=" M 0.0000,420.0000 L 0.0000,0.0000 L 500.0000,0.0000 L 500.0000,420.0000 L 0.0000,420.0000 z " style="fill: #eeeeec; fill-opacity: 1.00; stroke: none;" id="ezcGraphPolygon_1"/><path d=" M 0.0000,42.0000 L 0.0000,0.0000 L 500.0000,0.0000 L 500.0000,42.0000 L 0.0000,42.0000 z " style="fill: #000000; fill-opacity: 0.00; stroke: none;" id="ezcGraphPolygon_2"/><path d="M 262.41,232.49 L 374.91,232.49 A 112.50,112.50 0 0,1 371.70,259.20 z" style="fill: #3465a4; fill-opacity: 1.00; stroke: none;" id="ezcGraphCircleSector_4"/><path d="M 266.56,232.99 L 374.41,232.99 A 112.00,112.00 0 0,1 371.33,258.59 z" style="fill: none; stroke: #1a3352; stroke-width: 1; stroke-opacity: 1.00; stroke-linecap: round; stroke-linejoin: round;" id="ezcGraphCircleSector_5"/><path d="M 250.00,231.00 L 359.28,257.70 A 112.50,112.50 0 0,1 352.39,277.61 z" style="fill: #4e9a06; fill-opacity: 1.00; stroke: none;" id="ezcGraphCircleSector_6"/><path d="M 255.05,232.75 L 358.68,258.07 A 112.00,112.00 0 0,1 352.14,276.95 z" style="fill: none; stroke: #274d03; stroke-width: 1; stroke-opacity: 1.00; stroke-linecap: round; stroke-linejoin: round;" id="ezcGraphCircleSector_7"/><path d="M 250.00,231.00 L 352.39,277.61 A 112.50,112.50 0 0,1 342.57,294.93 z" style="fill: #cc0000; fill-opacity: 1.00; stroke: none;" id="ezcGraphCircleSector_8"/><path d="M 254.92,233.79 L 351.73,277.86 A 112.00,112.00 0 0,1 342.45,294.23 z" style="fill: none; stroke: #660000; stroke-width: 1; stroke-opacity: 1.00; stroke-linecap: round; stroke-linejoin: round;" id="ezcGraphCircleSector_9"/><path d="M 250.00,231.00 L 342.57,294.93 A 112.50,112.50 0 0,1 336.18,303.31 z" style="fill: #edd400; fill-opacity: 1.00; stroke: none;" id="ezcGraphCircleSector_10"/><path d="M 258.48,237.47 L 341.88,295.05 A 112.00,112.00 0 0,1 336.12,302.61 z" style="fill: none; stroke: #776a00; stroke-width: 1; stroke-opacity: 1.00; stroke-linecap: round; stroke-linejoin: round;" id="ezcGraphCircleSector_11"/><path d="M 250.00,231.00 L 336.18,303.31 A 112.50,112.50 0 0,1 330.68,309.40 z" style="fill: #75505b; fill-opacity: 1.00; stroke: none;" id="ezcGraphCircleSector_12"/><path d="M 260.18,240.19 L 335.48,303.38 A 112.00,112.00 0 0,1 330.67,308.69 z" style="fill: none; stroke: #3b282e; stroke-width: 1; stroke-opacity: 1.00; stroke-linecap: round; stroke-linejoin: round;" id="ezcGraphCircleSector_13"/><path d="M 250.00,231.00 L 330.68,309.40 A 112.50,112.50 0 1,1 362.50,231.00 z" style="fill: #f57900; fill-opacity: 1.00; stroke: none;" id="ezcGraphCircleSector_14"/><path d="M 248.77,230.50 L 329.97,309.41 A 112.00,112.00 0 1,1 362.00,230.50 z" style="fill: none; stroke: #7b3d00; stroke-width: 1; stroke-opacity: 1.00; stroke-linecap: round; stroke-linejoin: round;" id="ezcGraphCircleSector_15"/><path d=" M 172.7836,199.6621 L 128.5834,183.0000" style="fill: none; stroke: #000000; stroke-width: 1; stroke-opacity: 1.00; stroke-linecap: round; stroke-linejoin: round;" id="ezcGraphLine_16"/><ellipse cx="172.7836" cy="199.6621" rx="3.0000" ry="3.0000" style="fill: #000000; fill-opacity: 1.00; stroke: none;" id="ezcGraphCircle_17"/><ellipse cx="128.5834" cy="183.0000" rx="3.0000" ry="3.0000" style="fill: #000000; fill-opacity: 1.00; stroke: none;" id="ezcGraphCircle_18"/><path d=" M 345.1461,242.4561 L 379.9718,247.0000" style="fill: none; stroke: #000000; stroke-width: 1; stroke-opacity: 1.00; stroke-linecap: round; stroke-linejoin: round;" id="ezcGraphLine_20"/><ellipse cx="345.1461" cy="242.4561" rx="3.0000" ry="3.0000" style="fill: #000000; fill-opacity: 1.00; stroke: none;" id="ezcGraphCircle_21"/><ellipse cx="379.9718" cy="247.0000" rx="3.0000" ry="3.0000" style="fill: #000000; fill-opacity: 1.00; stroke: none;" id="ezcGraphCircle_22"/><path d=" M 328.7436,258.2743 L 370.1227,282.0000" style="fill: none; stroke: #000000; stroke-width: 1; stroke-opacity: 1.00; stroke-linecap: round; stroke-linejoin: round;" id="ezcGraphLine_24"/><ellipse cx="328.7436" cy="258.2743" rx="3.0000" ry="3.0000" style="fill: #000000; fill-opacity: 1.00; stroke: none;" id="ezcGraphCircle_25"/><ellipse cx="370.1227" cy="282.0000" rx="3.0000" ry="3.0000" style="fill: #000000; fill-opacity: 1.00; stroke: none;" id="ezcGraphCircle_26"/><path d=" M 322.4922,272.1014 L 346.7138,317.0000" style="fill: none; stroke: #000000; stroke-width: 1; stroke-opacity: 1.00; stroke-linecap: round; stroke-linejoin: round;" id="ezcGraphLine_28"/><ellipse cx="322.4922" cy="272.1014" rx="3.0000" ry="3.0000" style="fill: #000000; fill-opacity: 1.00; stroke: none;" id="ezcGraphCircle_29"/><ellipse cx="346.7138" cy="317.0000" rx="3.0000" ry="3.0000" style="fill: #000000; fill-opacity: 1.00; stroke: none;" id="ezcGraphCircle_30"/><path d=" M 316.2776,281.5146 L 287.3688,352.0000" style="fill: none; stroke: #000000; stroke-width: 1; stroke-opacity: 1.00; stroke-linecap: round; stroke-linejoin: round;" id="ezcGraphLine_32"/><ellipse cx="316.2776" cy="281.5146" rx="3.0000" ry="3.0000" style="fill: #000000; fill-opacity: 1.00; stroke: none;" id="ezcGraphCircle_33"/><ellipse cx="287.3688" cy="352.0000" rx="3.0000" ry="3.0000" style="fill: #000000; fill-opacity: 1.00; stroke: none;" id="ezcGraphCircle_34"/><path d=" M 311.8415,286.8576 L 311.8415,387.0000" style="fill: none; stroke: #000000; stroke-width: 1; stroke-opacity: 1.00; stroke-linecap: round; stroke-linejoin: round;" id="ezcGraphLine_36"/><ellipse cx="311.8415" cy="286.8576" rx="3.0000" ry="3.0000" style="fill: #000000; fill-opacity: 1.00; stroke: none;" id="ezcGraphCircle_37"/><ellipse cx="311.8415" cy="387.0000" rx="3.0000" ry="3.0000" style="fill: #000000; fill-opacity: 1.00; stroke: none;" id="ezcGraphCircle_38"/><g id="ezcGraphTextBox_3"><path d=" M 207.1000,42.0000 L 207.1000,0.5000 L 293.4000,0.5000 L 293.4000,42.0000 L 207.1000,42.0000 z " style="fill: #ffffff; fill-opacity: 0.00; stroke: none;" id="ezcGraphPolygon_40"/><text id="ezcGraphTextBox_3_text" x="207.6000" text-length="84.8000px" y="35.0000" style="font-size: 40px; font-family: 'Arial'; fill: #2e3436; fill-opacity: 1.00; stroke: none;">City</text></g><g id="ezcGraphTextBox_19"><path d=" M 3.3634,192.0000 L 3.3634,174.5000 L 123.5834,174.5000 L 123.5834,192.0000 L 3.3634,192.0000 z " style="fill: #ffffff; fill-opacity: 0.00; stroke: none;" id="ezcGraphPolygon_41"/><text id="ezcGraphTextBox_19_text" x="3.8634" text-length="118.7200px" y="188.6000" style="font-size: 16px; font-family: 'Arial'; fill: #2e3436; fill-opacity: 1.00; stroke: none;">Others (87.7%)</text></g><g id="ezcGraphTextBox_23"><path d=" M 385.4718,256.0000 L 385.4718,238.5000 L 497.2118,238.5000 L 497.2118,256.0000 L 385.4718,256.0000 z " style="fill: #ffffff; fill-opacity: 0.00; stroke: none;" id="ezcGraphPolygon_42"/><text id="ezcGraphTextBox_23_text" x="385.9718" text-length="110.2400px" y="252.6000" style="font-size: 16px; font-family: 'Arial'; fill: #2e3436; fill-opacity: 1.00; stroke: none;">Moscow (3.8%)</text></g><g id="ezcGraphTextBox_27"><path d=" M 375.6227,299.0500 L 375.6227,265.4500 L 453.4427,265.4500 L 453.4427,299.0500 L 375.6227,299.0500 z " style="fill: #ffffff; fill-opacity: 0.00; stroke: none;" id="ezcGraphPolygon_43"/><text id="ezcGraphTextBox_27_text" x="376.1227" text-length="76.3200px" y="279.5500" style="font-size: 16px; font-family: 'Arial'; fill: #2e3436; fill-opacity: 1.00; stroke: none;">Rochester</text><text id="ezcGraphTextBox_27_text" x="376.1227" text-length="50.8800px" y="297.1500" style="font-size: 16px; font-family: 'Arial'; fill: #2e3436; fill-opacity: 1.00; stroke: none;">(3.0%)</text></g><g id="ezcGraphTextBox_31"><path d=" M 352.2138,326.0000 L 352.2138,308.5000 L 472.4338,308.5000 L 472.4338,326.0000 L 352.2138,326.0000 z " style="fill: #ffffff; fill-opacity: 0.00; stroke: none;" id="ezcGraphPolygon_44"/><text id="ezcGraphTextBox_31_text" x="352.7138" text-length="118.7200px" y="322.6000" style="font-size: 16px; font-family: 'Arial'; fill: #2e3436; fill-opacity: 1.00; stroke: none;">Madison (2.8%)</text></g><g id="ezcGraphTextBox_35"><path d=" M 292.8688,361.0000 L 292.8688,343.5000 L 438.5288,343.5000 L 438.5288,361.0000 L 292.8688,361.0000 z " style="fill: #ffffff; fill-opacity: 0.00; stroke: none;" id="ezcGraphPolygon_45"/><text id="ezcGraphTextBox_35_text" x="293.3688" text-length="144.1600px" y="357.6000" style="font-size: 16px; font-family: 'Arial'; fill: #2e3436; fill-opacity: 1.00; stroke: none;">Alexandria (1.5%)</text></g><g id="ezcGraphTextBox_39"><path d=" M 317.3415,396.0000 L 317.3415,378.5000 L 429.0815,378.5000 L 429.0815,396.0000 L 317.3415,396.0000 z " style="fill: #ffffff; fill-opacity: 0.00; stroke: none;" id="ezcGraphPolygon_46"/><text id="ezcGraphTextBox_39_text" x="317.8415" text-length="110.2400px" y="392.6000" style="font-size: 16px; font-family: 'Arial'; fill: #2e3436; fill-opacity: 1.00; stroke: none;">Berlin (1.2%)</text></g></g></svg>
