<?xml version="1.0"?>
<svg xmlns="http://www.w3.org/2000/svg" width="500" height="420" version="1.0" id="ezcGraph"><defs/><g id="ezcGraphChart" color-rendering="optimizeQuality" shape-rendering="geometricPrecision" text-rendering="optimizeLegibility"><path d=" M 0.0000,420.0000 L 0.0000,0.0000 L 500.0000,0.0000 L 500.0000,420.0000 L 0.0000,420.0000 z " style="fill: #eeeeec; fill-opacity: 1.00; stroke: none;" id="ezcGraphPolygon_1"/><path d=" M 0.0000,42.0000 L 0.0000,0.0000 L 500.0000,0.0000 L 500.0000,42.0000 L 0.0000,42.0000 z " style="fill: #000000; fill-opacity: 0.00; stroke: none;" id="ezcGraphPolygon_2"/><path d="M 257.86,240.72 L 370.36,240.72 A 112.50,112.50 0 0,1 234.22,350.71 z" style="fill: #3465a4; fill-opacity: 1.00; stroke: none; cursor: pointer;" id="ezcGraphCircleSector_4" onclick="top.location = 'https://linux-hardware.org/?view=computers&amp;f=net_ethernet_model&amp;v=Realtek+Semiconductor+RTL8111%2F8168%2F8411+PCI+Express+Gigabit+Ethernet+Controller'"/><path d="M 258.26,241.22 L 369.86,241.22 A 112.00,112.00 0 0,1 234.81,350.33 z" style="fill: none; stroke: #1a3352; stroke-width: 1; stroke-opacity: 1.00; stroke-linecap: round; stroke-linejoin: round;" id="ezcGraphCircleSector_5"/><path d="M 250.00,231.00 L 226.36,340.99 A 112.50,112.50 0 0,1 181.27,320.06 z" style="fill: #4e9a06; fill-opacity: 1.00; stroke: none; cursor: pointer;" id="ezcGraphCircleSector_6" onclick="top.location = 'https://linux-hardware.org/?view=computers&amp;f=net_ethernet_model&amp;v=Realtek+Semiconductor+RTL810xE+PCI+Express+Fast+Ethernet+controller'"/><path d="M 249.05,233.05 L 225.98,340.40 A 112.00,112.00 0 0,1 181.97,319.97 z" style="fill: none; stroke: #274d03; stroke-width: 1; stroke-opacity: 1.00; stroke-linecap: round; stroke-linejoin: round;" id="ezcGraphCircleSector_7"/><path d="M 250.00,231.00 L 181.27,320.06 A 112.50,112.50 0 0,1 157.25,294.67 z" style="fill: #cc0000; fill-opacity: 1.00; stroke: none; cursor: pointer;" id="ezcGraphCircleSector_8" onclick="top.location = 'https://linux-hardware.org/?view=computers&amp;f=net_ethernet_model&amp;v=Realtek+Semiconductor+RTL8153+Gigabit+Ethernet+Adapter'"/><path d="M 247.66,233.21 L 181.18,319.36 A 112.00,112.00 0 0,1 157.95,294.80 z" style="fill: none; stroke: #660000; stroke-width: 1; stroke-opacity: 1.00; stroke-linecap: round; stroke-linejoin: round;" id="ezcGraphCircleSector_9"/><path d="M 250.00,231.00 L 157.25,294.67 A 112.50,112.50 0 0,1 145.47,272.60 z" style="fill: #edd400; fill-opacity: 1.00; stroke: none; cursor: pointer;" id="ezcGraphCircleSector_10" onclick="top.location = 'https://linux-hardware.org/?view=computers&amp;f=net_ethernet_model&amp;v=Intel+Ethernet+Controller+I225-V'"/><path d="M 246.03,233.12 L 157.38,293.97 A 112.00,112.00 0 0,1 146.12,272.88 z" style="fill: none; stroke: #776a00; stroke-width: 1; stroke-opacity: 1.00; stroke-linecap: round; stroke-linejoin: round;" id="ezcGraphCircleSector_11"/><path d="M 250.00,231.00 L 145.47,272.60 A 112.50,112.50 0 0,1 139.75,253.41 z" style="fill: #75505b; fill-opacity: 1.00; stroke: none; cursor: pointer;" id="ezcGraphCircleSector_12" onclick="top.location = 'https://linux-hardware.org/?view=computers&amp;f=net_ethernet_model&amp;v=Realtek+Semiconductor+RTL-8100%2F8101L%2F8139+PCI+Fast+Ethernet+Adapter'"/><path d="M 244.62,232.60 L 145.75,271.95 A 112.00,112.00 0 0,1 140.34,253.80 z" style="fill: none; stroke: #3b282e; stroke-width: 1; stroke-opacity: 1.00; stroke-linecap: round; stroke-linejoin: round;" id="ezcGraphCircleSector_13"/><path d="M 250.00,231.00 L 139.75,253.41 A 112.50,112.50 0 1,1 362.50,231.00 z" style="fill: #f57900; fill-opacity: 1.00; stroke: none;" id="ezcGraphCircleSector_14"/><path d="M 249.95,230.50 L 140.14,252.82 A 112.00,112.00 0 1,1 362.00,230.50 z" style="fill: none; stroke: #7b3d00; stroke-width: 1; stroke-opacity: 1.00; stroke-linecap: round; stroke-linejoin: round;" id="ezcGraphCircleSector_15"/><path d=" M 241.6587,148.0852 L 244.0000,106.0000" style="fill: none; stroke: #000000; stroke-width: 1; stroke-opacity: 1.00; stroke-linecap: round; stroke-linejoin: round;" id="ezcGraphLine_16"/><ellipse cx="241.6587" cy="148.0852" rx="3.0000" ry="3.0000" style="fill: #000000; fill-opacity: 1.00; stroke: none;" id="ezcGraphCircle_17"/><ellipse cx="244.0000" cy="106.0000" rx="3.0000" ry="3.0000" style="fill: #000000; fill-opacity: 1.00; stroke: none;" id="ezcGraphCircle_18"/><path d=" M 170.1380,254.8014 L 124.0000,266.0000" style="fill: none; stroke: #000000; stroke-width: 1; stroke-opacity: 1.00; stroke-linecap: round; stroke-linejoin: round;" id="ezcGraphLine_20"/><ellipse cx="170.1380" cy="254.8014" rx="3.0000" ry="3.0000" style="fill: #000000; fill-opacity: 1.00; stroke: none;" id="ezcGraphCircle_21"/><ellipse cx="124.0000" cy="266.0000" rx="3.0000" ry="3.0000" style="fill: #000000; fill-opacity: 1.00; stroke: none;" id="ezcGraphCircle_22"/><path d=" M 176.4792,270.2319 L 140.4384,301.0000" style="fill: none; stroke: #000000; stroke-width: 1; stroke-opacity: 1.00; stroke-linecap: round; stroke-linejoin: round;" id="ezcGraphLine_24"/><ellipse cx="176.4792" cy="270.2319" rx="3.0000" ry="3.0000" style="fill: #000000; fill-opacity: 1.00; stroke: none;" id="ezcGraphCircle_25"/><ellipse cx="140.4384" cy="301.0000" rx="3.0000" ry="3.0000" style="fill: #000000; fill-opacity: 1.00; stroke: none;" id="ezcGraphCircle_26"/><path d=" M 189.4564,288.2618 L 176.1767,336.0000" style="fill: none; stroke: #000000; stroke-width: 1; stroke-opacity: 1.00; stroke-linecap: round; stroke-linejoin: round;" id="ezcGraphLine_28"/><ellipse cx="189.4564" cy="288.2618" rx="3.0000" ry="3.0000" style="fill: #000000; fill-opacity: 1.00; stroke: none;" id="ezcGraphCircle_29"/><ellipse cx="176.1767" cy="336.0000" rx="3.0000" ry="3.0000" style="fill: #000000; fill-opacity: 1.00; stroke: none;" id="ezcGraphCircle_30"/><path d=" M 214.9221,306.5909 L 214.9221,371.0000" style="fill: none; stroke: #000000; stroke-width: 1; stroke-opacity: 1.00; stroke-linecap: round; stroke-linejoin: round;" id="ezcGraphLine_32"/><ellipse cx="214.9221" cy="306.5909" rx="3.0000" ry="3.0000" style="fill: #000000; fill-opacity: 1.00; stroke: none;" id="ezcGraphCircle_33"/><ellipse cx="214.9221" cy="371.0000" rx="3.0000" ry="3.0000" style="fill: #000000; fill-opacity: 1.00; stroke: none;" id="ezcGraphCircle_34"/><path d=" M 310.2269,305.5436 L 322.2495,337.0000" style="fill: none; stroke: #000000; stroke-width: 1; stroke-opacity: 1.00; stroke-linecap: round; stroke-linejoin: round;" id="ezcGraphLine_36"/><ellipse cx="310.2269" cy="305.5436" rx="3.0000" ry="3.0000" style="fill: #000000; fill-opacity: 1.00; stroke: none;" id="ezcGraphCircle_37"/><ellipse cx="322.2495" cy="337.0000" rx="3.0000" ry="3.0000" style="fill: #000000; fill-opacity: 1.00; stroke: none;" id="ezcGraphCircle_38"/><g id="ezcGraphTextBox_3"><path d=" M 101.1000,42.0000 L 101.1000,0.5000 L 399.4000,0.5000 L 399.4000,42.0000 L 101.1000,42.0000 z " style="fill: #ffffff; fill-opacity: 0.00; stroke: none;" id="ezcGraphPolygon_40"/><text id="ezcGraphTextBox_3_text" x="101.6000" text-length="296.8000px" y="35.0000" style="font-size: 40px; font-family: 'Arial'; fill: #2e3436; fill-opacity: 1.00; stroke: none;">Ethernet Model</text></g><g id="ezcGraphTextBox_19"><path d=" M 141.0400,113.5000 L 141.0400,99.0000 L 239.0000,99.0000 L 239.0000,113.5000 L 141.0400,113.5000 z " style="fill: #ffffff; fill-opacity: 0.00; stroke: none;" id="ezcGraphPolygon_41"/><text id="ezcGraphTextBox_19_text" x="141.5400" text-length="96.4600px" y="110.5500" style="font-size: 13px; font-family: 'Arial'; fill: #2e3436; fill-opacity: 1.00; stroke: none;">Others (53.2%)</text></g><g id="ezcGraphTextBox_23" style=" cursor: pointer;" onclick="top.location = 'https://linux-hardware.org/?view=computers&amp;f=net_ethernet_model&amp;v=Realtek+Semiconductor+RTL-8100%2F8101L%2F8139+PCI+Fast+Ethernet+Adapter'"><path d=" M 7.2600,280.0500 L 7.2600,252.4500 L 119.0000,252.4500 L 119.0000,280.0500 L 7.2600,280.0500 z " style="fill: #ffffff; fill-opacity: 0.00; stroke: none;" id="ezcGraphPolygon_42"/><text id="ezcGraphTextBox_23_text" x="7.7600" text-length="110.2400px" y="264.0000" style="font-size: 13px; font-family: 'Arial'; fill: #2e3436; fill-opacity: 1.00; stroke: none;">RTL-8100/8101...</text><text id="ezcGraphTextBox_23_text" x="76.6600" text-length="41.3400px" y="278.3000" style="font-size: 13px; font-family: 'Arial'; fill: #2e3436; fill-opacity: 1.00; stroke: none;">(2.8%)</text></g><g id="ezcGraphTextBox_27" style=" cursor: pointer;" onclick="top.location = 'https://linux-hardware.org/?view=computers&amp;f=net_ethernet_model&amp;v=Intel+Ethernet+Controller+I225-V'"><path d=" M 37.4784,315.0500 L 37.4784,287.4500 L 135.4384,287.4500 L 135.4384,315.0500 L 37.4784,315.0500 z " style="fill: #ffffff; fill-opacity: 0.00; stroke: none;" id="ezcGraphPolygon_43"/><text id="ezcGraphTextBox_27_text" x="79.3184" text-length="55.1200px" y="299.0000" style="font-size: 13px; font-family: 'Arial'; fill: #2e3436; fill-opacity: 1.00; stroke: none;">Ethernet</text><text id="ezcGraphTextBox_27_text" x="37.9784" text-length="96.4600px" y="313.3000" style="font-size: 13px; font-family: 'Arial'; fill: #2e3436; fill-opacity: 1.00; stroke: none;">Cont... (3.5%)</text></g><g id="ezcGraphTextBox_31" style=" cursor: pointer;" onclick="top.location = 'https://linux-hardware.org/?view=computers&amp;f=net_ethernet_model&amp;v=Realtek+Semiconductor+RTL8153+Gigabit+Ethernet+Adapter'"><path d=" M 59.4367,350.0500 L 59.4367,322.4500 L 171.1767,322.4500 L 171.1767,350.0500 L 59.4367,350.0500 z " style="fill: #ffffff; fill-opacity: 0.00; stroke: none;" id="ezcGraphPolygon_44"/><text id="ezcGraphTextBox_31_text" x="59.9367" text-length="110.2400px" y="334.0000" style="font-size: 13px; font-family: 'Arial'; fill: #2e3436; fill-opacity: 1.00; stroke: none;">RTL8153 Gigab...</text><text id="ezcGraphTextBox_31_text" x="128.8367" text-length="41.3400px" y="348.3000" style="font-size: 13px; font-family: 'Arial'; fill: #2e3436; fill-opacity: 1.00; stroke: none;">(5.0%)</text></g><g id="ezcGraphTextBox_35" style=" cursor: pointer;" onclick="top.location = 'https://linux-hardware.org/?view=computers&amp;f=net_ethernet_model&amp;v=Realtek+Semiconductor+RTL810xE+PCI+Express+Fast+Ethernet+controller'"><path d=" M 49.9521,378.5000 L 49.9521,364.0000 L 209.9221,364.0000 L 209.9221,378.5000 L 49.9521,378.5000 z " style="fill: #ffffff; fill-opacity: 0.00; stroke: none;" id="ezcGraphPolygon_45"/><text id="ezcGraphTextBox_35_text" x="50.4521" text-length="158.4700px" y="375.5500" style="font-size: 13px; font-family: 'Arial'; fill: #2e3436; fill-opacity: 1.00; stroke: none;">RTL810xE PCI ... (7.1%)</text></g><g id="ezcGraphTextBox_39" style=" cursor: pointer;" onclick="top.location = 'https://linux-hardware.org/?view=computers&amp;f=net_ethernet_model&amp;v=Realtek+Semiconductor+RTL8111%2F8168%2F8411+PCI+Express+Gigabit+Ethernet+Controller'"><path d=" M 327.7495,351.0500 L 327.7495,323.4500 L 439.4895,323.4500 L 439.4895,351.0500 L 327.7495,351.0500 z " style="fill: #ffffff; fill-opacity: 0.00; stroke: none;" id="ezcGraphPolygon_46"/><text id="ezcGraphTextBox_39_text" x="328.2495" text-length="110.2400px" y="335.0000" style="font-size: 13px; font-family: 'Arial'; fill: #2e3436; fill-opacity: 1.00; stroke: none;">RTL8111/8168/...</text><text id="ezcGraphTextBox_39_text" x="328.2495" text-length="48.2300px" y="349.3000" style="font-size: 13px; font-family: 'Arial'; fill: #2e3436; fill-opacity: 1.00; stroke: none;">(28.4%)</text></g></g></svg>
