<?xml version="1.0"?>
<svg xmlns="http://www.w3.org/2000/svg" width="500" height="420" version="1.0" id="ezcGraph"><defs/><g id="ezcGraphChart" color-rendering="optimizeQuality" shape-rendering="geometricPrecision" text-rendering="optimizeLegibility"><path d=" M 0.0000,420.0000 L 0.0000,0.0000 L 500.0000,0.0000 L 500.0000,420.0000 L 0.0000,420.0000 z " style="fill: #eeeeec; fill-opacity: 1.00; stroke: none;" id="ezcGraphPolygon_1"/><path d=" M 0.0000,42.0000 L 0.0000,0.0000 L 500.0000,0.0000 L 500.0000,42.0000 L 0.0000,42.0000 z " style="fill: #000000; fill-opacity: 0.00; stroke: none;" id="ezcGraphPolygon_2"/><path d="M 258.39,240.27 L 370.89,240.27 A 112.50,112.50 0 0,1 247.20,352.21 z" style="fill: #3465a4; fill-opacity: 1.00; stroke: none; cursor: pointer;" id="ezcGraphCircleSector_4" onclick="top.location = 'https://linux-hardware.org/?view=computers&amp;type=notebook&amp;f=node_ram_total&amp;v=8.0&amp;c=Ukraine'"/><path d="M 258.84,240.77 L 370.39,240.77 A 112.00,112.00 0 0,1 247.75,351.76 z" style="fill: none; stroke: #1a3352; stroke-width: 1; stroke-opacity: 1.00; stroke-linecap: round; stroke-linejoin: round;" id="ezcGraphCircleSector_5"/><path d="M 250.00,231.00 L 238.81,342.94 A 112.50,112.50 0 0,1 137.60,226.17 z" style="fill: #4e9a06; fill-opacity: 1.00; stroke: none; cursor: pointer;" id="ezcGraphCircleSector_6" onclick="top.location = 'https://linux-hardware.org/?view=computers&amp;type=notebook&amp;f=node_ram_total&amp;v=4.0&amp;c=Ukraine'"/><path d="M 249.45,231.48 L 238.36,342.40 A 112.00,112.00 0 0,1 138.08,226.70 z" style="fill: none; stroke: #274d03; stroke-width: 1; stroke-opacity: 1.00; stroke-linecap: round; stroke-linejoin: round;" id="ezcGraphCircleSector_7"/><path d="M 250.00,231.00 L 137.60,226.17 A 112.50,112.50 0 0,1 192.07,134.56 z" style="fill: #cc0000; fill-opacity: 1.00; stroke: none; cursor: pointer;" id="ezcGraphCircleSector_8" onclick="top.location = 'https://linux-hardware.org/?view=computers&amp;type=notebook&amp;f=node_ram_total&amp;v=16.0&amp;c=Ukraine'"/><path d="M 249.09,230.46 L 138.12,225.70 A 112.00,112.00 0 0,1 191.90,135.25 z" style="fill: none; stroke: #660000; stroke-width: 1; stroke-opacity: 1.00; stroke-linecap: round; stroke-linejoin: round;" id="ezcGraphCircleSector_9"/><path d="M 250.00,231.00 L 192.07,134.56 A 112.50,112.50 0 0,1 286.40,124.55 z" style="fill: #edd400; fill-opacity: 1.00; stroke: none; cursor: pointer;" id="ezcGraphCircleSector_10" onclick="top.location = 'https://linux-hardware.org/?view=computers&amp;type=notebook&amp;f=node_ram_total&amp;v=24.0&amp;c=Ukraine'"/><path d="M 249.87,229.82 L 192.75,134.73 A 112.00,112.00 0 0,1 285.77,124.86 z" style="fill: none; stroke: #776a00; stroke-width: 1; stroke-opacity: 1.00; stroke-linecap: round; stroke-linejoin: round;" id="ezcGraphCircleSector_11"/><path d="M 250.00,231.00 L 286.40,124.55 A 112.50,112.50 0 0,1 335.46,157.84 z" style="fill: #75505b; fill-opacity: 1.00; stroke: none; cursor: pointer;" id="ezcGraphCircleSector_12" onclick="top.location = 'https://linux-hardware.org/?view=computers&amp;type=notebook&amp;f=node_ram_total&amp;v=2.0&amp;c=Ukraine'"/><path d="M 251.07,229.43 L 286.71,125.19 A 112.00,112.00 0 0,1 334.76,157.78 z" style="fill: none; stroke: #3b282e; stroke-width: 1; stroke-opacity: 1.00; stroke-linecap: round; stroke-linejoin: round;" id="ezcGraphCircleSector_13"/><path d="M 250.00,231.00 L 335.46,157.84 A 112.50,112.50 0 0,1 362.50,231.00 z" style="fill: #f57900; fill-opacity: 1.00; stroke: none;" id="ezcGraphCircleSector_14"/><path d="M 251.35,230.50 L 335.41,158.54 A 112.00,112.00 0 0,1 362.00,230.50 z" style="fill: none; stroke: #7b3d00; stroke-width: 1; stroke-opacity: 1.00; stroke-linecap: round; stroke-linejoin: round;" id="ezcGraphCircleSector_15"/><path d=" M 241.2046,148.1321 L 244.0000,106.0000" style="fill: none; stroke: #000000; stroke-width: 1; stroke-opacity: 1.00; stroke-linecap: round; stroke-linejoin: round;" id="ezcGraphLine_16"/><ellipse cx="241.2046" cy="148.1321" rx="3.0000" ry="3.0000" style="fill: #000000; fill-opacity: 1.00; stroke: none;" id="ezcGraphCircle_17"/><ellipse cx="244.0000" cy="106.0000" rx="3.0000" ry="3.0000" style="fill: #000000; fill-opacity: 1.00; stroke: none;" id="ezcGraphCircle_18"/><path d=" M 178.3692,188.4151 L 136.6268,167.0000" style="fill: none; stroke: #000000; stroke-width: 1; stroke-opacity: 1.00; stroke-linecap: round; stroke-linejoin: round;" id="ezcGraphLine_20"/><ellipse cx="178.3692" cy="188.4151" rx="3.0000" ry="3.0000" style="fill: #000000; fill-opacity: 1.00; stroke: none;" id="ezcGraphCircle_21"/><ellipse cx="136.6268" cy="167.0000" rx="3.0000" ry="3.0000" style="fill: #000000; fill-opacity: 1.00; stroke: none;" id="ezcGraphCircle_22"/><path d=" M 187.0285,285.5805 L 148.7950,312.0000" style="fill: none; stroke: #000000; stroke-width: 1; stroke-opacity: 1.00; stroke-linecap: round; stroke-linejoin: round;" id="ezcGraphLine_24"/><ellipse cx="187.0285" cy="285.5805" rx="3.0000" ry="3.0000" style="fill: #000000; fill-opacity: 1.00; stroke: none;" id="ezcGraphCircle_25"/><ellipse cx="148.7950" cy="312.0000" rx="3.0000" ry="3.0000" style="fill: #000000; fill-opacity: 1.00; stroke: none;" id="ezcGraphCircle_26"/><path d=" M 296.7875,162.0407 L 325.3470,127.0000" style="fill: none; stroke: #000000; stroke-width: 1; stroke-opacity: 1.00; stroke-linecap: round; stroke-linejoin: round;" id="ezcGraphLine_28"/><ellipse cx="296.7875" cy="162.0407" rx="3.0000" ry="3.0000" style="fill: #000000; fill-opacity: 1.00; stroke: none;" id="ezcGraphCircle_29"/><ellipse cx="325.3470" cy="127.0000" rx="3.0000" ry="3.0000" style="fill: #000000; fill-opacity: 1.00; stroke: none;" id="ezcGraphCircle_30"/><path d=" M 328.1660,202.1120 L 373.0000,187.0000" style="fill: none; stroke: #000000; stroke-width: 1; stroke-opacity: 1.00; stroke-linecap: round; stroke-linejoin: round;" id="ezcGraphLine_32"/><ellipse cx="328.1660" cy="202.1120" rx="3.0000" ry="3.0000" style="fill: #000000; fill-opacity: 1.00; stroke: none;" id="ezcGraphCircle_33"/><ellipse cx="373.0000" cy="187.0000" rx="3.0000" ry="3.0000" style="fill: #000000; fill-opacity: 1.00; stroke: none;" id="ezcGraphCircle_34"/><path d=" M 314.3067,302.0540 L 329.6478,332.0000" style="fill: none; stroke: #000000; stroke-width: 1; stroke-opacity: 1.00; stroke-linecap: round; stroke-linejoin: round;" id="ezcGraphLine_36"/><ellipse cx="314.3067" cy="302.0540" rx="3.0000" ry="3.0000" style="fill: #000000; fill-opacity: 1.00; stroke: none;" id="ezcGraphCircle_37"/><ellipse cx="329.6478" cy="332.0000" rx="3.0000" ry="3.0000" style="fill: #000000; fill-opacity: 1.00; stroke: none;" id="ezcGraphCircle_38"/><g id="ezcGraphTextBox_3"><path d=" M 164.7000,42.0000 L 164.7000,0.5000 L 335.8000,0.5000 L 335.8000,42.0000 L 164.7000,42.0000 z " style="fill: #ffffff; fill-opacity: 0.00; stroke: none;" id="ezcGraphPolygon_40"/><text id="ezcGraphTextBox_3_text" x="165.2000" text-length="169.6000px" y="35.0000" style="font-size: 40px; font-family: 'Arial'; fill: #2e3436; fill-opacity: 1.00; stroke: none;">RAM Size</text></g><g id="ezcGraphTextBox_19" style=" cursor: pointer;" onclick="top.location = 'https://linux-hardware.org/?view=computers&amp;type=notebook&amp;f=node_ram_total&amp;v=24.0&amp;c=Ukraine'"><path d=" M 39.3860,115.9000 L 39.3860,96.6000 L 239.0000,96.6000 L 239.0000,115.9000 L 39.3860,115.9000 z " style="fill: #ffffff; fill-opacity: 0.00; stroke: none;" id="ezcGraphPolygon_41"/><text id="ezcGraphTextBox_19_text" x="39.8860" text-length="198.1140px" y="112.2300" style="font-size: 17px; font-family: 'Arial'; fill: #2e3436; fill-opacity: 1.00; stroke: none;">16.01-24.0 GB (13.9%)</text></g><g id="ezcGraphTextBox_23" style=" cursor: pointer;" onclick="top.location = 'https://linux-hardware.org/?view=computers&amp;type=notebook&amp;f=node_ram_total&amp;v=16.0&amp;c=Ukraine'"><path d=" M 16.9188,185.8500 L 16.9188,148.6500 L 131.6268,148.6500 L 131.6268,185.8500 L 16.9188,185.8500 z " style="fill: #ffffff; fill-opacity: 0.00; stroke: none;" id="ezcGraphPolygon_42"/><text id="ezcGraphTextBox_23_text" x="17.4188" text-length="113.2080px" y="164.2800" style="font-size: 17px; font-family: 'Arial'; fill: #2e3436; fill-opacity: 1.00; stroke: none;">8.01-16.0 GB</text><text id="ezcGraphTextBox_23_text" x="64.5888" text-length="66.0380px" y="183.8600" style="font-size: 17px; font-family: 'Arial'; fill: #2e3436; fill-opacity: 1.00; stroke: none;">(15.7%)</text></g><g id="ezcGraphTextBox_27" style=" cursor: pointer;" onclick="top.location = 'https://linux-hardware.org/?view=computers&amp;type=notebook&amp;f=node_ram_total&amp;v=4.0&amp;c=Ukraine'"><path d=" M 38.5210,330.8500 L 38.5210,293.6500 L 143.7950,293.6500 L 143.7950,330.8500 L 38.5210,330.8500 z " style="fill: #ffffff; fill-opacity: 0.00; stroke: none;" id="ezcGraphPolygon_43"/><text id="ezcGraphTextBox_27_text" x="39.0210" text-length="103.7740px" y="309.2800" style="font-size: 17px; font-family: 'Arial'; fill: #2e3436; fill-opacity: 1.00; stroke: none;">3.01-4.0 GB</text><text id="ezcGraphTextBox_27_text" x="76.7570" text-length="66.0380px" y="328.8600" style="font-size: 17px; font-family: 'Arial'; fill: #2e3436; fill-opacity: 1.00; stroke: none;">(24.1%)</text></g><g id="ezcGraphTextBox_31" style=" cursor: pointer;" onclick="top.location = 'https://linux-hardware.org/?view=computers&amp;type=notebook&amp;f=node_ram_total&amp;v=2.0&amp;c=Ukraine'"><path d=" M 330.8470,145.8500 L 330.8470,108.6500 L 436.1210,108.6500 L 436.1210,145.8500 L 330.8470,145.8500 z " style="fill: #ffffff; fill-opacity: 0.00; stroke: none;" id="ezcGraphPolygon_44"/><text id="ezcGraphTextBox_31_text" x="331.3470" text-length="103.7740px" y="124.2800" style="font-size: 17px; font-family: 'Arial'; fill: #2e3436; fill-opacity: 1.00; stroke: none;">1.01-2.0 GB</text><text id="ezcGraphTextBox_31_text" x="331.3470" text-length="56.6040px" y="143.8600" style="font-size: 17px; font-family: 'Arial'; fill: #2e3436; fill-opacity: 1.00; stroke: none;">(8.5%)</text></g><g id="ezcGraphTextBox_35"><path d=" M 378.5000,205.8500 L 378.5000,168.6500 L 446.0380,168.6500 L 446.0380,205.8500 L 378.5000,205.8500 z " style="fill: #ffffff; fill-opacity: 0.00; stroke: none;" id="ezcGraphPolygon_45"/><text id="ezcGraphTextBox_35_text" x="379.0000" text-length="56.6040px" y="184.2800" style="font-size: 17px; font-family: 'Arial'; fill: #2e3436; fill-opacity: 1.00; stroke: none;">Others</text><text id="ezcGraphTextBox_35_text" x="379.0000" text-length="66.0380px" y="203.8600" style="font-size: 17px; font-family: 'Arial'; fill: #2e3436; fill-opacity: 1.00; stroke: none;">(11.3%)</text></g><g id="ezcGraphTextBox_39" style=" cursor: pointer;" onclick="top.location = 'https://linux-hardware.org/?view=computers&amp;type=notebook&amp;f=node_ram_total&amp;v=8.0&amp;c=Ukraine'"><path d=" M 335.1478,350.8500 L 335.1478,313.6500 L 440.4218,313.6500 L 440.4218,350.8500 L 335.1478,350.8500 z " style="fill: #ffffff; fill-opacity: 0.00; stroke: none;" id="ezcGraphPolygon_46"/><text id="ezcGraphTextBox_39_text" x="335.6478" text-length="103.7740px" y="329.2800" style="font-size: 17px; font-family: 'Arial'; fill: #2e3436; fill-opacity: 1.00; stroke: none;">4.01-8.0 GB</text><text id="ezcGraphTextBox_39_text" x="335.6478" text-length="66.0380px" y="348.8600" style="font-size: 17px; font-family: 'Arial'; fill: #2e3436; fill-opacity: 1.00; stroke: none;">(26.6%)</text></g></g></svg>
