<?xml version="1.0"?>
<svg xmlns="http://www.w3.org/2000/svg" width="500" height="420" version="1.0" id="ezcGraph"><defs/><g id="ezcGraphChart" color-rendering="optimizeQuality" shape-rendering="geometricPrecision" text-rendering="optimizeLegibility"><path d=" M 0.0000,420.0000 L 0.0000,0.0000 L 500.0000,0.0000 L 500.0000,420.0000 L 0.0000,420.0000 z " style="fill: #eeeeec; fill-opacity: 1.00; stroke: none;" id="ezcGraphPolygon_1"/><path d=" M 0.0000,42.0000 L 0.0000,0.0000 L 500.0000,0.0000 L 500.0000,42.0000 L 0.0000,42.0000 z " style="fill: #000000; fill-opacity: 0.00; stroke: none;" id="ezcGraphPolygon_2"/><path d="M 253.61,242.97 L 366.11,242.97 A 112.50,112.50 0 0,1 159.83,305.12 z" style="fill: #3465a4; fill-opacity: 1.00; stroke: none; cursor: pointer;" id="ezcGraphCircleSector_4" onclick="top.location = 'https://linux-hardware.org/?view=computers&amp;f=drive_kind&amp;v=NVMe&amp;r=rhel-8'"/><path d="M 253.76,243.47 L 365.61,243.47 A 112.00,112.00 0 0,1 160.53,305.26 z" style="fill: none; stroke: #1a3352; stroke-width: 1; stroke-opacity: 1.00; stroke-linecap: round; stroke-linejoin: round;" id="ezcGraphCircleSector_5"/><path d="M 250.00,231.00 L 156.23,293.15 A 112.50,112.50 0 0,1 220.13,122.54 z" style="fill: #4e9a06; fill-opacity: 1.00; stroke: none; cursor: pointer;" id="ezcGraphCircleSector_6" onclick="top.location = 'https://linux-hardware.org/?view=computers&amp;f=drive_kind&amp;v=SSD&amp;r=rhel-8'"/><path d="M 249.42,230.78 L 156.37,292.46 A 112.00,112.00 0 0,1 219.78,123.15 z" style="fill: none; stroke: #274d03; stroke-width: 1; stroke-opacity: 1.00; stroke-linecap: round; stroke-linejoin: round;" id="ezcGraphCircleSector_7"/><path d="M 250.00,231.00 L 220.13,122.54 A 112.50,112.50 0 0,1 359.91,207.00 z" style="fill: #cc0000; fill-opacity: 1.00; stroke: none; cursor: pointer;" id="ezcGraphCircleSector_8" onclick="top.location = 'https://linux-hardware.org/?view=computers&amp;f=drive_kind&amp;v=HDD&amp;r=rhel-8'"/><path d="M 250.36,230.41 L 220.74,122.89 A 112.00,112.00 0 0,1 359.31,206.62 z" style="fill: none; stroke: #660000; stroke-width: 1; stroke-opacity: 1.00; stroke-linecap: round; stroke-linejoin: round;" id="ezcGraphCircleSector_9"/><path d="M 250.00,231.00 L 359.91,207.00 A 112.50,112.50 0 0,1 361.99,220.27 z" style="fill: #edd400; fill-opacity: 1.00; stroke: none; cursor: pointer;" id="ezcGraphCircleSector_10" onclick="top.location = 'https://linux-hardware.org/?view=computers&amp;f=drive_kind&amp;v=MMC&amp;r=rhel-8'"/><path d="M 258.28,229.70 L 359.53,207.59 A 112.00,112.00 0 0,1 361.44,219.82 z" style="fill: none; stroke: #776a00; stroke-width: 1; stroke-opacity: 1.00; stroke-linecap: round; stroke-linejoin: round;" id="ezcGraphCircleSector_11"/><path d="M 250.00,231.00 L 361.99,220.27 A 112.50,112.50 0 0,1 362.50,231.00 z" style="fill: #75505b; fill-opacity: 1.00; stroke: none; cursor: pointer;" id="ezcGraphCircleSector_12" onclick="top.location = 'https://linux-hardware.org/?view=computers&amp;f=drive_kind&amp;v=&amp;r=rhel-8'"/><path d="M 260.46,230.50 L 361.54,220.81 A 112.00,112.00 0 0,1 362.00,230.50 z" style="fill: none; stroke: #3b282e; stroke-width: 1; stroke-opacity: 1.00; stroke-linecap: round; stroke-linejoin: round;" id="ezcGraphCircleSector_13"/><path d=" M 171.9605,201.7720 L 127.0000,187.0000" style="fill: none; stroke: #000000; stroke-width: 1; stroke-opacity: 1.00; stroke-linecap: round; stroke-linejoin: round;" id="ezcGraphLine_14"/><ellipse cx="171.9605" cy="201.7720" rx="3.0000" ry="3.0000" style="fill: #000000; fill-opacity: 1.00; stroke: none;" id="ezcGraphCircle_15"/><ellipse cx="127.0000" cy="187.0000" rx="3.0000" ry="3.0000" style="fill: #000000; fill-opacity: 1.00; stroke: none;" id="ezcGraphCircle_16"/><path d=" M 293.0951,159.6750 L 320.6220,124.0000" style="fill: none; stroke: #000000; stroke-width: 1; stroke-opacity: 1.00; stroke-linecap: round; stroke-linejoin: round;" id="ezcGraphLine_18"/><ellipse cx="293.0951" cy="159.6750" rx="3.0000" ry="3.0000" style="fill: #000000; fill-opacity: 1.00; stroke: none;" id="ezcGraphCircle_19"/><ellipse cx="320.6220" cy="124.0000" rx="3.0000" ry="3.0000" style="fill: #000000; fill-opacity: 1.00; stroke: none;" id="ezcGraphCircle_20"/><path d=" M 332.3306,218.1113 L 379.3896,211.0000" style="fill: none; stroke: #000000; stroke-width: 1; stroke-opacity: 1.00; stroke-linecap: round; stroke-linejoin: round;" id="ezcGraphLine_22"/><ellipse cx="332.3306" cy="218.1113" rx="3.0000" ry="3.0000" style="fill: #000000; fill-opacity: 1.00; stroke: none;" id="ezcGraphCircle_23"/><ellipse cx="379.3896" cy="211.0000" rx="3.0000" ry="3.0000" style="fill: #000000; fill-opacity: 1.00; stroke: none;" id="ezcGraphCircle_24"/><path d=" M 333.2382,227.0198 L 379.7689,248.5000" style="fill: none; stroke: #000000; stroke-width: 1; stroke-opacity: 1.00; stroke-linecap: round; stroke-linejoin: round;" id="ezcGraphLine_26"/><ellipse cx="333.2382" cy="227.0198" rx="3.0000" ry="3.0000" style="fill: #000000; fill-opacity: 1.00; stroke: none;" id="ezcGraphCircle_27"/><ellipse cx="379.7689" cy="248.5000" rx="3.0000" ry="3.0000" style="fill: #000000; fill-opacity: 1.00; stroke: none;" id="ezcGraphCircle_28"/><path d=" M 277.6477,322.7585 L 277.6477,362.0000" style="fill: none; stroke: #000000; stroke-width: 1; stroke-opacity: 1.00; stroke-linecap: round; stroke-linejoin: round;" id="ezcGraphLine_30"/><ellipse cx="277.6477" cy="322.7585" rx="3.0000" ry="3.0000" style="fill: #000000; fill-opacity: 1.00; stroke: none;" id="ezcGraphCircle_31"/><ellipse cx="277.6477" cy="362.0000" rx="3.0000" ry="3.0000" style="fill: #000000; fill-opacity: 1.00; stroke: none;" id="ezcGraphCircle_32"/><g id="ezcGraphTextBox_3"><path d=" M 143.5000,42.0000 L 143.5000,0.5000 L 357.0000,0.5000 L 357.0000,42.0000 L 143.5000,42.0000 z " style="fill: #ffffff; fill-opacity: 0.00; stroke: none;" id="ezcGraphPolygon_34"/><text id="ezcGraphTextBox_3_text" x="144.0000" text-length="212.0000px" y="35.0000" style="font-size: 40px; font-family: 'Arial'; fill: #2e3436; fill-opacity: 1.00; stroke: none;">Drive Kind</text></g><g id="ezcGraphTextBox_17" style=" cursor: pointer;" onclick="top.location = 'https://linux-hardware.org/?view=computers&amp;f=drive_kind&amp;v=SSD&amp;r=rhel-8'"><path d=" M 21.3900,196.5000 L 21.3900,178.0000 L 122.0000,178.0000 L 122.0000,196.5000 L 21.3900,196.5000 z " style="fill: #ffffff; fill-opacity: 0.00; stroke: none;" id="ezcGraphPolygon_35"/><text id="ezcGraphTextBox_17_text" x="21.8900" text-length="99.1100px" y="192.9500" style="font-size: 17px; font-family: 'Arial'; fill: #2e3436; fill-opacity: 1.00; stroke: none;">SSD (30.0%)</text></g><g id="ezcGraphTextBox_21" style=" cursor: pointer;" onclick="top.location = 'https://linux-hardware.org/?view=computers&amp;f=drive_kind&amp;v=HDD&amp;r=rhel-8'"><path d=" M 326.1220,133.5000 L 326.1220,115.0000 L 426.7320,115.0000 L 426.7320,133.5000 L 326.1220,133.5000 z " style="fill: #ffffff; fill-opacity: 0.00; stroke: none;" id="ezcGraphPolygon_36"/><text id="ezcGraphTextBox_21_text" x="326.6220" text-length="99.1100px" y="129.9500" style="font-size: 17px; font-family: 'Arial'; fill: #2e3436; fill-opacity: 1.00; stroke: none;">HDD (25.9%)</text></g><g id="ezcGraphTextBox_25" style=" cursor: pointer;" onclick="top.location = 'https://linux-hardware.org/?view=computers&amp;f=drive_kind&amp;v=MMC&amp;r=rhel-8'"><path d=" M 384.8896,220.5000 L 384.8896,202.0000 L 476.4896,202.0000 L 476.4896,220.5000 L 384.8896,220.5000 z " style="fill: #ffffff; fill-opacity: 0.00; stroke: none;" id="ezcGraphPolygon_37"/><text id="ezcGraphTextBox_25_text" x="385.3896" text-length="90.1000px" y="216.9500" style="font-size: 17px; font-family: 'Arial'; fill: #2e3436; fill-opacity: 1.00; stroke: none;">MMC (1.9%)</text></g><g id="ezcGraphTextBox_29" style=" cursor: pointer;" onclick="top.location = 'https://linux-hardware.org/?view=computers&amp;f=drive_kind&amp;v=&amp;r=rhel-8'"><path d=" M 385.2689,266.5500 L 385.2689,230.9500 L 449.8389,230.9500 L 449.8389,266.5500 L 385.2689,266.5500 z " style="fill: #ffffff; fill-opacity: 0.00; stroke: none;" id="ezcGraphPolygon_38"/><text id="ezcGraphTextBox_29_text" x="385.7689" text-length="63.0700px" y="245.9000" style="font-size: 17px; font-family: 'Arial'; fill: #2e3436; fill-opacity: 1.00; stroke: none;">Unknown</text><text id="ezcGraphTextBox_29_text" x="385.7689" text-length="54.0600px" y="264.6000" style="font-size: 17px; font-family: 'Arial'; fill: #2e3436; fill-opacity: 1.00; stroke: none;">(1.5%)</text></g><g id="ezcGraphTextBox_33" style=" cursor: pointer;" onclick="top.location = 'https://linux-hardware.org/?view=computers&amp;f=drive_kind&amp;v=NVMe&amp;r=rhel-8'"><path d=" M 283.1477,371.5000 L 283.1477,353.0000 L 392.7677,353.0000 L 392.7677,371.5000 L 283.1477,371.5000 z " style="fill: #ffffff; fill-opacity: 0.00; stroke: none;" id="ezcGraphPolygon_39"/><text id="ezcGraphTextBox_33_text" x="283.6477" text-length="108.1200px" y="367.9500" style="font-size: 17px; font-family: 'Arial'; fill: #2e3436; fill-opacity: 1.00; stroke: none;">NVMe (40.7%)</text></g></g></svg>
