<?xml version="1.0"?>
<svg xmlns="http://www.w3.org/2000/svg" width="500" height="420" version="1.0" id="ezcGraph"><defs/><g id="ezcGraphChart" color-rendering="optimizeQuality" shape-rendering="geometricPrecision" text-rendering="optimizeLegibility"><path d=" M 0.0000,420.0000 L 0.0000,0.0000 L 500.0000,0.0000 L 500.0000,420.0000 L 0.0000,420.0000 z " style="fill: #eeeeec; fill-opacity: 1.00; stroke: none;" id="ezcGraphPolygon_1"/><path d=" M 0.0000,42.0000 L 0.0000,0.0000 L 500.0000,0.0000 L 500.0000,42.0000 L 0.0000,42.0000 z " style="fill: #000000; fill-opacity: 0.00; stroke: none;" id="ezcGraphPolygon_2"/><path d="M 238.00,234.49 L 350.50,234.49 A 112.50,112.50 0 1,1 332.97,174.18 z" style="fill: #3465a4; fill-opacity: 1.00; stroke: none; cursor: pointer;" id="ezcGraphCircleSector_4" onclick="top.location = 'https://linux-hardware.org/?view=computers&amp;type=notebook&amp;f=os_display_server&amp;v=Wayland&amp;r=fedora-41'"/><path d="M 236.28,234.99 L 350.00,234.99 A 112.00,112.00 0 1,1 332.28,174.03 z" style="fill: none; stroke: #1a3352; stroke-width: 1; stroke-opacity: 1.00; stroke-linecap: round; stroke-linejoin: round;" id="ezcGraphCircleSector_5"/><path d="M 250.00,231.00 L 344.97,170.70 A 112.50,112.50 0 0,1 360.14,208.09 z" style="fill: #4e9a06; fill-opacity: 1.00; stroke: none; cursor: pointer;" id="ezcGraphCircleSector_6" onclick="top.location = 'https://linux-hardware.org/?view=computers&amp;type=notebook&amp;f=os_display_server&amp;v=X11&amp;r=fedora-41'"/><path d="M 252.58,229.95 L 344.82,171.39 A 112.00,112.00 0 0,1 359.55,207.70 z" style="fill: none; stroke: #274d03; stroke-width: 1; stroke-opacity: 1.00; stroke-linecap: round; stroke-linejoin: round;" id="ezcGraphCircleSector_7"/><path d="M 250.00,231.00 L 360.14,208.09 A 112.50,112.50 0 0,1 362.45,227.82 z" style="fill: #cc0000; fill-opacity: 1.00; stroke: none; cursor: pointer;" id="ezcGraphCircleSector_8" onclick="top.location = 'https://linux-hardware.org/?view=computers&amp;type=notebook&amp;f=os_display_server&amp;v=Tty&amp;r=fedora-41'"/><path d="M 255.63,230.34 L 359.75,208.68 A 112.00,112.00 0 0,1 361.94,227.33 z" style="fill: none; stroke: #660000; stroke-width: 1; stroke-opacity: 1.00; stroke-linecap: round; stroke-linejoin: round;" id="ezcGraphCircleSector_9"/><path d="M 250.00,231.00 L 362.45,227.82 A 112.50,112.50 0 0,1 362.50,230.60 z" style="fill: #edd400; fill-opacity: 1.00; stroke: none; cursor: pointer;" id="ezcGraphCircleSector_10" onclick="top.location = 'https://linux-hardware.org/?view=computers&amp;type=notebook&amp;f=os_display_server&amp;v=&amp;r=fedora-41'"/><path d="M 290.40,230.36 L 361.97,228.33 A 112.00,112.00 0 0,1 362.00,230.10 z" style="fill: none; stroke: #776a00; stroke-width: 1; stroke-opacity: 1.00; stroke-linecap: round; stroke-linejoin: round;" id="ezcGraphCircleSector_11"/><path d="M 250.00,231.00 L 362.50,230.60 A 112.50,112.50 0 0,1 362.50,231.00 z" style="fill: #75505b; fill-opacity: 1.00; stroke: none; cursor: pointer;" id="ezcGraphCircleSector_12" onclick="top.location = 'https://linux-hardware.org/?view=computers&amp;type=notebook&amp;f=os_display_server&amp;v=Web&amp;r=fedora-41'"/><path d=" M 157.9752,257.7480 L 124.9160,269.0000" style="fill: none; stroke: #000000; stroke-width: 1; stroke-opacity: 1.00; stroke-linecap: round; stroke-linejoin: round;" id="ezcGraphLine_13"/><ellipse cx="157.9752" cy="257.7480" rx="3.0000" ry="3.0000" style="fill: #000000; fill-opacity: 1.00; stroke: none;" id="ezcGraphCircle_14"/><ellipse cx="124.9160" cy="269.0000" rx="3.0000" ry="3.0000" style="fill: #000000; fill-opacity: 1.00; stroke: none;" id="ezcGraphCircle_15"/><path d=" M 327.2205,199.6720 L 371.8275,184.0000" style="fill: none; stroke: #000000; stroke-width: 1; stroke-opacity: 1.00; stroke-linecap: round; stroke-linejoin: round;" id="ezcGraphLine_17"/><ellipse cx="327.2205" cy="199.6720" rx="3.0000" ry="3.0000" style="fill: #000000; fill-opacity: 1.00; stroke: none;" id="ezcGraphCircle_18"/><ellipse cx="371.8275" cy="184.0000" rx="3.0000" ry="3.0000" style="fill: #000000; fill-opacity: 1.00; stroke: none;" id="ezcGraphCircle_19"/><path d=" M 332.7667,221.2985 L 380.6385,221.5000" style="fill: none; stroke: #000000; stroke-width: 1; stroke-opacity: 1.00; stroke-linecap: round; stroke-linejoin: round;" id="ezcGraphLine_21"/><ellipse cx="332.7667" cy="221.2985" rx="3.0000" ry="3.0000" style="fill: #000000; fill-opacity: 1.00; stroke: none;" id="ezcGraphCircle_22"/><ellipse cx="380.6385" cy="221.5000" rx="3.0000" ry="3.0000" style="fill: #000000; fill-opacity: 1.00; stroke: none;" id="ezcGraphCircle_23"/><path d=" M 333.3228,229.6741 L 377.8236,259.0000" style="fill: none; stroke: #000000; stroke-width: 1; stroke-opacity: 1.00; stroke-linecap: round; stroke-linejoin: round;" id="ezcGraphLine_25"/><ellipse cx="333.3228" cy="229.6741" rx="3.0000" ry="3.0000" style="fill: #000000; fill-opacity: 1.00; stroke: none;" id="ezcGraphCircle_26"/><ellipse cx="377.8236" cy="259.0000" rx="3.0000" ry="3.0000" style="fill: #000000; fill-opacity: 1.00; stroke: none;" id="ezcGraphCircle_27"/><path d=" M 333.3332,230.8527 L 362.4648,296.5000" style="fill: none; stroke: #000000; stroke-width: 1; stroke-opacity: 1.00; stroke-linecap: round; stroke-linejoin: round;" id="ezcGraphLine_29"/><ellipse cx="333.3332" cy="230.8527" rx="3.0000" ry="3.0000" style="fill: #000000; fill-opacity: 1.00; stroke: none;" id="ezcGraphCircle_30"/><ellipse cx="362.4648" cy="296.5000" rx="3.0000" ry="3.0000" style="fill: #000000; fill-opacity: 1.00; stroke: none;" id="ezcGraphCircle_31"/><g id="ezcGraphTextBox_3"><path d=" M 101.1000,42.0000 L 101.1000,0.5000 L 399.4000,0.5000 L 399.4000,42.0000 L 101.1000,42.0000 z " style="fill: #ffffff; fill-opacity: 0.00; stroke: none;" id="ezcGraphPolygon_33"/><text id="ezcGraphTextBox_3_text" x="101.6000" text-length="296.8000px" y="35.0000" style="font-size: 40px; font-family: 'Arial'; fill: #2e3436; fill-opacity: 1.00; stroke: none;">Display Server</text></g><g id="ezcGraphTextBox_16" style=" cursor: pointer;" onclick="top.location = 'https://linux-hardware.org/?view=computers&amp;type=notebook&amp;f=os_display_server&amp;v=Wayland&amp;r=fedora-41'"><path d=" M 55.3460,287.0500 L 55.3460,251.4500 L 119.9160,251.4500 L 119.9160,287.0500 L 55.3460,287.0500 z " style="fill: #ffffff; fill-opacity: 0.00; stroke: none;" id="ezcGraphPolygon_34"/><text id="ezcGraphTextBox_16_text" x="55.8460" text-length="63.0700px" y="266.4000" style="font-size: 17px; font-family: 'Arial'; fill: #2e3436; fill-opacity: 1.00; stroke: none;">Wayland</text><text id="ezcGraphTextBox_16_text" x="55.8460" text-length="63.0700px" y="285.1000" style="font-size: 17px; font-family: 'Arial'; fill: #2e3436; fill-opacity: 1.00; stroke: none;">(91.0%)</text></g><g id="ezcGraphTextBox_20" style=" cursor: pointer;" onclick="top.location = 'https://linux-hardware.org/?view=computers&amp;type=notebook&amp;f=os_display_server&amp;v=X11&amp;r=fedora-41'"><path d=" M 377.3275,193.5000 L 377.3275,175.0000 L 468.9275,175.0000 L 468.9275,193.5000 L 377.3275,193.5000 z " style="fill: #ffffff; fill-opacity: 0.00; stroke: none;" id="ezcGraphPolygon_35"/><text id="ezcGraphTextBox_20_text" x="377.8275" text-length="90.1000px" y="189.9500" style="font-size: 17px; font-family: 'Arial'; fill: #2e3436; fill-opacity: 1.00; stroke: none;">X11 (5.7%)</text></g><g id="ezcGraphTextBox_24" style=" cursor: pointer;" onclick="top.location = 'https://linux-hardware.org/?view=computers&amp;type=notebook&amp;f=os_display_server&amp;v=Tty&amp;r=fedora-41'"><path d=" M 386.1385,231.0000 L 386.1385,212.5000 L 477.7385,212.5000 L 477.7385,231.0000 L 386.1385,231.0000 z " style="fill: #ffffff; fill-opacity: 0.00; stroke: none;" id="ezcGraphPolygon_36"/><text id="ezcGraphTextBox_24_text" x="386.6385" text-length="90.1000px" y="227.4500" style="font-size: 17px; font-family: 'Arial'; fill: #2e3436; fill-opacity: 1.00; stroke: none;">Tty (2.8%)</text></g><g id="ezcGraphTextBox_28" style=" cursor: pointer;" onclick="top.location = 'https://linux-hardware.org/?view=computers&amp;type=notebook&amp;f=os_display_server&amp;v=&amp;r=fedora-41'"><path d=" M 383.3236,277.0500 L 383.3236,241.4500 L 447.8936,241.4500 L 447.8936,277.0500 L 383.3236,277.0500 z " style="fill: #ffffff; fill-opacity: 0.00; stroke: none;" id="ezcGraphPolygon_37"/><text id="ezcGraphTextBox_28_text" x="383.8236" text-length="63.0700px" y="256.4000" style="font-size: 17px; font-family: 'Arial'; fill: #2e3436; fill-opacity: 1.00; stroke: none;">Unknown</text><text id="ezcGraphTextBox_28_text" x="383.8236" text-length="54.0600px" y="275.1000" style="font-size: 17px; font-family: 'Arial'; fill: #2e3436; fill-opacity: 1.00; stroke: none;">(0.4%)</text></g><g id="ezcGraphTextBox_32" style=" cursor: pointer;" onclick="top.location = 'https://linux-hardware.org/?view=computers&amp;type=notebook&amp;f=os_display_server&amp;v=Web&amp;r=fedora-41'"><path d=" M 367.9648,306.0000 L 367.9648,287.5000 L 459.5648,287.5000 L 459.5648,306.0000 L 367.9648,306.0000 z " style="fill: #ffffff; fill-opacity: 0.00; stroke: none;" id="ezcGraphPolygon_38"/><text id="ezcGraphTextBox_32_text" x="368.4648" text-length="90.1000px" y="302.4500" style="font-size: 17px; font-family: 'Arial'; fill: #2e3436; fill-opacity: 1.00; stroke: none;">Web (0.1%)</text></g></g></svg>
